SplineFontDB: 3.0
FontName: Untitled
FullName: Untitled
FamilyName: Untitled
Weight: Normal
ItalicAngle: 0
UnderlinePosition: -100
UnderlineWidth: 50
Ascent: 750
Descent: 250
UFOAscent: 750
UFODescent: -250
LayerCount: 2
Layer: 0 0 "Back"  1
Layer: 1 0 "Fore"  0
FSType: 1
OS2Version: 0
OS2_WeightWidthSlopeOnly: 0
OS2_UseTypoMetrics: 0
CreationTime: 1328477826
ModificationTime: 1328526007
PfmFamily: 0
TTFWeight: 0
TTFWidth: 0
LineGap: 9
VLineGap: 0
Panose: 0 0 0 0 0 0 0 0 0 0
OS2TypoAscent: 750
OS2TypoAOffset: 0
OS2TypoDescent: -250
OS2TypoDOffset: 0
OS2TypoLinegap: 0
OS2WinAscent: 0
OS2WinAOffset: 0
OS2WinDescent: 0
OS2WinDOffset: 0
HheadAscent: 750
HheadAOffset: 0
HheadDescent: -250
HheadDOffset: 0
OS2SubXSize: 700
OS2SubYSize: 650
OS2SubXOff: 0
OS2SubYOff: 140
OS2SupXSize: 700
OS2SupYSize: 650
OS2SupXOff: 0
OS2SupYOff: 477
OS2StrikeYSize: 50
OS2StrikeYPos: 250
OS2Vendor: 'newt'
OS2CodePages: 00000000.00000000
OS2UnicodeRanges: 00000000.00000000.00000000.00000000
DEI: 91125
PickledData: "(dp1
S'org.robofab.glyphOrder'
p2
(S'a'
S'b'
S'c'
S'd'
S'e'
S'f'
S'g'
S'h'
S'i'
S'j'
S'k'
S'l'
S'm'
S'n'
S'o'
S'p'
S'q'
S'r'
S's'
S't'
S'u'
S'v'
S'w'
S'x'
S'y'
S'z'
S'_26'
S'_27'
S'_28'
S'_29'
S'_30'
S'_31'
S'_32'
S'_33'
S'_34'
S'_35'
S'_36'
S'_37'
S'_38'
S'_39'
S'_40'
S'_41'
S'_42'
S'_43'
S'_44'
S'_45'
S'_46'
S'_47'
S'_48'
S'_49'
S'_50'
S'_51'
S'_52'
S'_53'
S'_54'
S'_55'
S'_56'
S'_57'
S'_58'
S'_59'
S'_60'
S'_61'
S'_62'
S'_63'
S'_64'
S'_65'
S'_66'
S'_67'
S'_68'
S'_69'
S'_70'
S'_71'
S'_72'
S'_73'
S'_74'
S'_75'
S'_76'
S'_77'
S'_78'
S'_79'
S'_80'
S'_81'
S'_82'
S'_83'
S'_84'
S'_85'
S'_86'
S'_87'
S'_88'
S'_89'
S'_90'
S'E'
S'H'
S'T'
S'quoteleft'
S'M'
S'O'
S'N'
S'Y'
S'P'
S'one'
S'two'
S'three'
S'four'
S'five'
S'six'
S'seven'
S'eight'
S'nine'
S'zero'
S'comma'
S'_111'
S'_112'
S'_113'
S'_114'
S'_115'
S'_116'
S'_117'
S'_118'
S'_119'
S'_120'
S'_121'
S'_122'
S'A'
S'S'
S'R'
S'F'
S'I'
S'_128'
S'_129'
S'_130'
S'_131'
S'_132'
S'_133'
S'C'
tp3
s."
Encoding: ISO8859-1
UnicodeInterp: none

StartChar: A
Encoding: 65 65 0
Width: 2143
VWidth: 0
Flags: W
LayerCount: 2
Fore
SplineSet
1079 407 m 1
 1292 147 l 2
 1294 144 1300 139 1303 139 c 2
 1340 143 l 2
 1343 143 1344 154 1344 158 c 0
 1344 161 l 1
 1342 179 1331 258 1329 275 c 1
 1329 606 l 1
 1330 606 1333 608 1333 609 c 0
 1333 610 1329 616 1329 617 c 2
 1329 617 1329 621 1329 623 c 0
 1329 654 1329 686 1336 716 c 0
 1338 722 1343 740 1344 741 c 0
 1344 742 1357 758 1362 763 c 0
 1368 770 1372 775 1380 778 c 0
 1386 780 1415 788 1421 789 c 1
 1428 792 1428 795 1428 801 c 0
 1428 809 1427 814 1424 822 c 1
 1351 826 1277 827 1204 829 c 0
 1203 829 1196 830 1194 830 c 0
 1190 830 1181 830 1178 826 c 0
 1178 825 1176 812 1175 807 c 1
 1175 807 1175 806 1175 805 c 2
 1175 804 l 1
 1176 802 1184 794 1186 793 c 0
 1193 791 1226 781 1233 778 c 0
 1234 778 1247 767 1252 763 c 0
 1278 741 1279 700 1281 668 c 0
 1282 660 1284 624 1285 617 c 1
 1285 323 l 2
 1285 320 1281 319 1279 319 c 2
 1277 319 l 1
 1277 320 1271 329 1270 330 c 0
 1248 357 1226 384 1204 411 c 0
 1193 425 1157 471 1153 477 c 0
 1151 479 1146 489 1145 492 c 1
 1103 538 1057 594 1017 642 c 0
 981 685 948 733 910 774 c 0
 908 777 887 797 885 800 c 0
 884 801 882 807 881 807 c 0
 878 811 863 826 859 829 c 1
 845 829 781 829 767 829 c 1
 763 830 728 833 723 833 c 2
 723 833 722 833 721 833 c 0
 719 833 705 831 705 826 c 2
 705 800 l 2
 705 799 750 782 760 774 c 0
 770 767 803 738 808 734 c 0
 810 732 821 719 822 716 c 0
 823 690 823 572 823 547 c 0
 823 502 823 384 822 378 c 1
 822 370 819 305 819 297 c 0
 819 296 819 287 819 286 c 0
 818 280 816 262 815 261 c 0
 807 239 797 216 775 206 c 1
 767 204 731 196 723 194 c 0
 711 191 712 181 712 170 c 0
 712 168 712 162 712 161 c 2
 720 158 l 1
 969 158 l 2
 970 158 973 163 973 165 c 0
 973 166 973 174 973 177 c 0
 973 187 l 1
 972 189 964 197 962 198 c 0
 960 199 942 201 940 202 c 0
 934 204 905 217 899 220 c 1
 886 238 878 261 874 283 c 1
 870 385 869 488 866 591 c 0
 866 594 866 622 866 631 c 0
 866 638 866 656 866 657 c 2
 870 664 l 1
 879 663 880 656 885 650 c 1
 887 646 900 631 903 628 c 0
 904 626 913 618 914 617 c 0
 916 614 930 593 933 591 c 1
 935 587 959 561 962 558 c 0
 963 556 972 541 973 539 c 0
 996 507 1025 476 1050 444 c 0
 1059 432 1067 417 1079 407 c 1
1619 176 m 0
 1619 171 1622 150 1630 150 c 2
 1905 150 l 1
 1905 187 l 1
 1905 187 1900 190 1898 191 c 0
 1895 192 1888 194 1887 194 c 0
 1885 195 1873 194 1872 194 c 0
 1867 195 1849 201 1846 202 c 0
 1834 207 1822 238 1821 250 c 0
 1820 258 1817 297 1817 305 c 0
 1817 307 1817 346 1817 361 c 0
 1817 401 1812 437 1835 470 c 0
 1837 473 1855 496 1857 499 c 0
 1871 521 1933 624 1945 646 c 1
 1949 650 l 1
 2011 745 l 1
 2024 763 2051 771 2070 778 c 1
 2073 781 2078 805 2078 809 c 0
 2078 816 2075 826 2066 826 c 2
 1854 826 l 2
 1847 826 1846 803 1846 798 c 0
 1846 795 1844 787 1850 785 c 0
 1865 781 1892 783 1905 771 c 0
 1906 770 1916 754 1920 749 c 0
 1924 742 1924 741 1924 733 c 0
 1924 732 1924 727 1923 727 c 2
 1905 675 l 1
 1810 514 l 2
 1806 508 1803 498 1795 498 c 0
 1794 498 1791 499 1791 499 c 1
 1769 532 l 1
 1670 716 l 1
 1668 725 1663 734 1663 743 c 0
 1663 781 1703 784 1733 789 c 1
 1737 794 1737 801 1737 807 c 0
 1737 816 1737 828 1725 829 c 1
 1702 829 1591 829 1567 829 c 1
 1561 830 1511 833 1505 833 c 0
 1504 833 1490 833 1485 833 c 0
 1482 833 1468 833 1465 833 c 1
 1458 828 1457 821 1457 813 c 0
 1457 803 1457 792 1468 789 c 0
 1487 784 1512 783 1523 763 c 2
 1600 628 l 1
 1604 624 l 1
 1710 440 l 2
 1711 439 1714 406 1714 393 c 0
 1714 392 1714 373 1714 366 c 0
 1714 359 1714 339 1714 338 c 0
 1714 321 1711 270 1710 264 c 0
 1709 250 1702 232 1692 220 c 0
 1688 215 1679 204 1670 202 c 0
 1663 200 1630 192 1622 191 c 1
 1619 184 1619 182 1619 176 c 0
41 161 m 1
 112 163 170 158 239 158 c 0
 242 158 250 158 250 161 c 2
 250 194 l 2
 250 196 245 201 243 202 c 0
 240 203 219 208 217 209 c 0
 193 220 184 246 184 269 c 0
 184 292 185 316 191 338 c 0
 195 352 216 419 221 433 c 1
 230 432 277 430 287 429 c 1
 307 429 402 429 422 429 c 1
 425 427 432 414 433 411 c 0
 436 405 450 358 452 352 c 2
 452 352 455 346 455 345 c 0
 459 334 477 283 481 272 c 0
 482 269 482 256 482 253 c 0
 482 229 470 206 444 202 c 0
 440 201 419 199 415 198 c 1
 409 194 408 187 408 180 c 0
 408 178 408 173 408 172 c 0
 408 168 411 158 411 158 c 1
 668 158 l 1
 668 187 l 2
 668 188 663 194 661 194 c 1
 660 195 647 198 643 198 c 0
 642 198 636 198 635 198 c 0
 621 206 600 227 595 242 c 2
 529 444 l 1
 522 459 l 1
 419 771 l 1
 417 773 412 783 411 785 c 0
 410 790 398 832 397 837 c 0
 396 839 394 844 393 844 c 0
 391 845 381 848 378 848 c 2
 294 848 l 2
 290 848 290 843 290 840 c 0
 290 829 302 821 302 809 c 0
 302 808 302 804 301 804 c 2
 276 730 l 1
 276 727 l 1
 270 709 264 699 261 683 c 1
 169 422 l 2
 169 419 166 406 166 404 c 0
 161 388 143 334 140 327 c 0
 135 314 109 255 103 242 c 1
 97 238 102 238 96 231 c 0
 81 214 65 197 41 198 c 1
 35 193 37 181 37 176 c 0
 37 173 37 166 37 165 c 2
 41 161 l 1
2103 361 m 0
 2101 361 2101 358 2103 358 c 0
 2105 358 2105 361 2103 361 c 0
235 486 m 1
 235 488 l 1
 237 494 248 525 250 532 c 0
 250 533 253 538 254 539 c 2
 305 697 l 1
 312 708 315 738 325 738 c 0
 330 738 339 708 338 705 c 1
 341 696 353 658 356 650 c 0
 375 597 389 542 408 488 c 1
 408 481 l 1
 246 481 l 2
 245 481 237 483 235 484 c 1
 235 486 l 1
1435 519 m 0
 1433 519 1433 516 1435 516 c 0
 1437 516 1437 519 1435 519 c 0
1010 611 m 0
 1011 611 1011 607 1010 607 c 0
 1008 607 1008 611 1010 611 c 0
2059 651 m 0
 2057 651 2057 648 2059 648 c 0
 2061 648 2061 651 2059 651 c 0
1799 782 m 1
 1799 778 l 1
 1802 778 l 1
 1802 782 l 1
 1799 782 l 1
EndSplineSet
EndChar

StartChar: C
Encoding: 67 67 1
Width: 786
VWidth: 0
Flags: W
LayerCount: 2
Fore
SplineSet
226 136 m 0
 292 100 367 83 443 83 c 0
 537 83 633 92 720 131 c 1
 738 151 731 166 733 193 c 0
 734 201 741 267 742 276 c 0
 742 277 742 289 742 293 c 0
 742 296 742 308 742 311 c 1
 738 316 731 320 725 320 c 0
 696 320 695 293 685 271 c 0
 680 259 669 239 659 228 c 0
 620 186 581 150 523 136 c 0
 522 135 515 136 514 136 c 0
 513 135 507 132 506 131 c 1
 500 131 470 131 464 131 c 0
 453 131 424 131 423 131 c 0
 421 131 409 134 405 136 c 0
 335 159 295 181 252 241 c 0
 239 259 208 305 208 306 c 2
 208 311 l 1
 177 411 l 1
 178 413 178 419 177 420 c 1
 177 424 173 452 173 455 c 0
 173 457 173 500 173 516 c 0
 173 532 173 575 173 578 c 0
 174 595 179 613 177 630 c 1
 180 643 198 701 204 713 c 1
 207 722 232 762 239 770 c 0
 242 774 279 811 291 823 c 0
 295 827 311 839 313 840 c 0
 324 846 364 865 370 867 c 0
 397 874 430 876 458 876 c 0
 574 876 650 794 689 691 c 1
 691 689 700 683 703 683 c 0
 711 682 729 685 733 696 c 1
 733 699 734 712 734 716 c 0
 734 720 733 734 733 735 c 0
 732 743 721 802 720 810 c 0
 720 813 721 837 720 840 c 0
 719 846 713 864 711 867 c 0
 711 868 698 874 694 875 c 0
 680 880 616 902 602 906 c 0
 600 906 591 906 589 906 c 0
 584 907 545 914 541 915 c 0
 518 918 502 919 482 919 c 0
 455 919 428 913 401 915 c 1
 388 912 330 896 317 893 c 0
 297 887 279 876 261 867 c 0
 251 861 239 859 230 853 c 0
 199 835 165 802 142 779 c 1
 142 777 139 771 138 770 c 0
 136 767 114 743 112 740 c 0
 107 733 92 709 90 705 c 0
 87 699 70 653 68 648 c 0
 58 624 42 575 42 551 c 2
 42 411 l 2
 42 408 48 375 51 363 c 0
 51 362 54 355 55 354 c 0
 56 352 63 331 64 328 c 0
 71 313 108 242 116 228 c 1
 124 218 164 178 173 171 c 0
 177 167 213 147 217 144 c 0
 218 143 224 137 226 136 c 0
681 186 m 0
 683 186 683 182 681 182 c 0
 679 182 679 186 681 186 c 0
EndSplineSet
EndChar

StartChar: E
Encoding: 69 69 2
Width: 723
VWidth: 0
Flags: W
LayerCount: 2
Fore
SplineSet
41 34 m 0
 41 19 45 10 62 10 c 2
 609 10 l 1
 640 14 l 2
 649 15 652 32 651 38 c 1
 678 164 l 1
 678 202 l 2
 678 207 670 206 668 206 c 0
 634 206 632 187 616 164 c 1
 602 142 580 124 562 106 c 0
 559 103 547 94 544 92 c 0
 500 66 458 61 407 61 c 0
 394 61 358 61 356 62 c 1
 353 62 334 64 329 65 c 0
 326 65 314 70 312 72 c 0
 288 93 280 103 274 134 c 0
 270 154 270 178 267 199 c 1
 267 384 l 2
 267 386 271 392 274 394 c 1
 276 394 288 394 291 394 c 0
 295 394 307 394 308 394 c 0
 329 393 425 391 445 390 c 1
 466 385 486 377 496 356 c 1
 500 350 509 328 510 325 c 0
 515 309 512 292 527 281 c 1
 530 281 540 280 543 280 c 0
 547 280 558 281 558 281 c 1
 558 281 568 285 568 288 c 2
 568 404 l 1
 567 407 565 418 565 421 c 0
 565 426 568 467 568 473 c 1
 569 476 569 503 569 512 c 0
 569 519 569 537 568 538 c 2
 562 545 l 1
 531 545 l 1
 524 538 l 1
 524 532 519 508 517 503 c 0
 516 502 502 478 496 469 c 0
 490 459 468 456 459 452 c 0
 456 451 441 443 438 442 c 0
 396 438 361 438 319 438 c 0
 308 438 279 438 277 438 c 2
 267 442 l 1
 267 668 l 2
 267 673 264 697 264 702 c 2
 264 702 264 705 264 706 c 0
 264 709 l 2
 264 715 267 729 267 729 c 1
 274 733 l 1
 469 733 l 2
 472 733 491 728 496 726 c 0
 526 714 546 688 562 661 c 0
 567 651 573 629 582 620 c 0
 585 617 591 616 596 616 c 0
 603 616 621 615 623 623 c 1
 623 628 623 649 623 654 c 0
 623 662 623 683 623 685 c 0
 623 698 620 761 620 774 c 0
 620 775 617 777 616 777 c 0
 614 778 602 781 599 781 c 0
 588 781 537 781 526 781 c 0
 507 781 456 781 452 781 c 0
 427 780 312 778 288 777 c 0
 286 776 279 774 277 774 c 0
 276 774 271 776 270 777 c 0
 268 778 255 778 252 778 c 0
 247 778 233 778 233 777 c 1
 232 777 224 774 223 774 c 0
 221 774 217 776 216 777 c 1
 212 777 194 778 190 778 c 0
 183 778 165 777 164 777 c 0
 161 777 137 774 133 774 c 0
 130 774 100 777 96 777 c 0
 95 777 77 778 70 778 c 0
 66 778 48 777 44 777 c 1
 40 771 41 766 41 759 c 0
 41 749 38 732 51 729 c 0
 54 729 79 727 82 726 c 0
 121 718 145 688 147 647 c 0
 147 642 147 601 147 596 c 0
 147 590 151 547 151 541 c 0
 151 503 150 323 149 284 c 1
 149 274 l 2
 149 266 150 230 151 223 c 0
 151 222 151 217 151 215 c 0
 151 169 146 137 137 92 c 1
 118 62 85 55 51 55 c 1
 44 51 41 42 41 34 c 0
EndSplineSet
EndChar

StartChar: F
Encoding: 70 70 3
Width: 615
VWidth: 0
Flags: W
LayerCount: 2
Fore
SplineSet
49 150 m 1
 64 151 130 151 145 150 c 0
 160 150 280 147 295 147 c 0
 302 147 333 149 339 150 c 1
 339 183 l 2
 339 184 337 186 336 187 c 0
 325 194 318 191 303 194 c 0
 254 205 245 237 244 283 c 0
 244 286 241 417 240 470 c 1
 240 470 240 473 240 474 c 0
 240 480 240 480 244 488 c 1
 251 488 283 488 290 488 c 0
 301 488 334 488 336 488 c 0
 362 487 403 489 424 466 c 0
 432 456 448 439 453 426 c 0
 462 404 456 378 484 378 c 0
 490 378 506 379 504 389 c 1
 504 407 504 489 504 506 c 1
 505 513 508 566 508 572 c 0
 508 577 506 606 504 613 c 0
 504 615 501 620 501 620 c 1
 468 620 l 2
 467 620 464 618 464 617 c 0
 463 614 458 593 457 591 c 0
 445 559 411 528 376 528 c 2
 244 528 l 1
 244 528 241 541 240 547 c 1
 240 547 240 549 240 550 c 0
 240 554 l 1
 241 559 243 579 244 583 c 1
 244 782 l 1
 438 782 l 1
 486 767 l 2
 488 766 504 751 508 745 c 0
 511 742 529 713 534 705 c 0
 542 690 544 675 563 675 c 0
 570 675 585 675 585 686 c 0
 585 691 585 713 585 717 c 0
 585 725 585 747 585 749 c 0
 585 757 582 799 581 807 c 0
 579 815 575 819 567 822 c 1
 527 822 342 822 303 822 c 0
 285 822 141 825 123 826 c 0
 122 826 112 826 109 826 c 0
 97 826 l 1
 89 825 53 823 46 822 c 1
 41 817 42 810 42 803 c 0
 42 773 76 788 97 774 c 0
 118 760 134 749 137 723 c 1
 139 715 141 686 141 683 c 2
 141 308 l 2
 141 264 142 210 90 194 c 0
 87 194 63 191 60 191 c 0
 44 188 45 177 42 161 c 1
 42 161 42 160 42 159 c 2
 42 158 l 1
 43 157 48 151 49 150 c 1
365 721 m 0
 363 721 363 717 365 717 c 0
 367 717 367 721 365 721 c 0
EndSplineSet
EndChar

StartChar: H
Encoding: 72 72 4
Width: 894
VWidth: 0
Flags: W
LayerCount: 2
Fore
SplineSet
42 23 m 0
 42 8 49 0 65 0 c 2
 66 0 l 2
 68 0 85 3 87 3 c 0
 97 4 133 7 138 7 c 0
 174 7 339 7 375 7 c 0
 376 7 384 11 385 14 c 0
 388 24 389 36 389 47 c 0
 389 49 388 55 388 55 c 2
 387 57 380 64 378 65 c 1
 372 64 343 64 337 65 c 0
 332 66 308 78 303 82 c 0
 302 83 290 99 286 106 c 0
 285 107 282 112 282 113 c 0
 281 119 276 146 275 151 c 0
 275 153 275 169 275 171 c 0
 275 187 272 313 272 329 c 0
 272 331 272 347 272 352 c 0
 272 366 l 1
 275 370 l 2
 276 371 298 373 306 373 c 0
 308 373 346 374 361 374 c 0
 375 374 416 373 419 373 c 0
 427 373 487 370 494 370 c 0
 514 370 605 371 625 371 c 1
 625 140 l 2
 625 104 594 69 560 62 c 0
 557 61 538 59 536 58 c 1
 532 58 523 55 522 55 c 0
 513 50 511 39 511 31 c 0
 511 19 514 11 525 7 c 1
 530 7 553 7 558 7 c 0
 653 7 748 12 844 10 c 1
 847 11 852 14 854 17 c 1
 854 19 854 30 854 33 c 0
 854 40 856 57 847 62 c 1
 793 65 749 80 744 144 c 0
 744 151 745 209 744 216 c 1
 744 234 741 379 741 397 c 0
 741 408 741 513 741 547 c 0
 741 575 741 643 741 644 c 2
 758 695 l 2
 758 696 763 701 765 702 c 0
 769 705 788 720 792 723 c 0
 809 734 841 724 851 740 c 0
 851 741 851 750 851 752 c 0
 851 763 852 777 837 777 c 2
 518 777 l 1
 518 777 515 773 515 771 c 0
 515 770 515 757 515 752 c 0
 515 740 l 1
 522 733 l 1
 529 733 560 728 566 726 c 0
 578 723 592 716 601 705 c 0
 604 702 618 682 621 678 c 1
 621 675 l 1
 622 670 624 648 625 644 c 1
 625 428 l 1
 272 428 l 2
 271 428 269 440 268 445 c 0
 268 446 268 454 268 458 c 0
 268 461 268 472 268 473 c 0
 269 479 272 528 272 534 c 0
 272 545 272 633 272 644 c 0
 273 671 286 708 313 719 c 0
 334 728 352 733 375 733 c 1
 376 734 381 738 381 740 c 2
 381 740 382 742 382 743 c 2
 382 743 381 746 381 747 c 0
 381 755 378 774 378 774 c 1
 375 777 l 2
 373 778 342 778 331 778 c 0
 316 778 269 778 265 777 c 0
 261 777 245 775 241 774 c 1
 42 774 l 1
 42 774 40 767 39 764 c 0
 39 763 39 759 39 757 c 0
 39 750 38 736 46 733 c 1
 54 732 93 725 101 723 c 0
 103 722 120 712 125 709 c 0
 127 708 134 701 135 699 c 0
 138 692 147 661 149 654 c 0
 149 651 148 626 149 623 c 1
 149 618 151 591 152 586 c 1
 152 140 l 2
 152 139 150 127 149 123 c 0
 148 123 146 117 145 116 c 0
 144 114 140 98 138 96 c 0
 137 94 120 77 114 72 c 0
 110 68 97 66 94 65 c 0
 89 64 68 62 63 62 c 1
 62 61 60 59 60 58 c 0
 59 57 54 43 53 41 c 0
 52 40 43 32 42 31 c 0
 42 30 42 25 42 23 c 0
80 163 m 0
 78 163 78 159 80 159 c 0
 82 159 82 163 80 163 c 0
758 255 m 0
 756 255 756 252 758 252 c 0
 760 252 760 255 758 255 c 0
546 443 m 0
 544 443 544 440 546 440 c 0
 548 440 548 443 546 443 c 0
56 485 m 0
 54 485 54 481 56 481 c 0
 58 481 58 485 56 485 c 0
789 502 m 0
 787 502 787 498 789 498 c 0
 791 498 791 502 789 502 c 0
512 553 m 0
 510 553 510 550 512 550 c 0
 513 550 513 553 512 553 c 0
553 560 m 0
 551 560 551 557 553 557 c 0
 554 557 554 560 553 560 c 0
560 563 m 0
 558 563 558 560 560 560 c 0
 561 560 561 563 560 563 c 0
577 570 m 0
 575 570 575 567 577 567 c 0
 578 567 578 570 577 570 c 0
224 574 m 0
 226 574 226 570 224 570 c 0
 222 570 222 574 224 574 c 0
73 717 m 0
 72 717 72 714 73 714 c 0
 75 714 75 717 73 717 c 0
EndSplineSet
EndChar

StartChar: I
Encoding: 73 73 5
Width: 376
VWidth: 0
Flags: W
LayerCount: 2
Fore
SplineSet
40 158 m 1
 130 154 219 154 308 150 c 0
 309 150 317 150 319 150 c 0
 336 150 334 166 334 181 c 0
 334 183 334 187 334 187 c 1
 333 189 325 197 323 198 c 0
 322 199 313 198 312 198 c 0
 286 203 246 214 242 246 c 0
 242 249 239 280 239 290 c 2
 239 290 239 294 239 295 c 0
 239 296 239 301 239 301 c 2
 239 309 242 374 242 382 c 0
 242 395 242 507 242 521 c 0
 242 535 246 647 246 661 c 0
 246 669 246 710 246 719 c 1
 252 722 252 735 253 738 c 0
 263 764 284 781 312 785 c 0
 322 787 336 779 341 793 c 1
 341 793 341 796 341 798 c 0
 341 804 339 826 330 826 c 2
 169 826 l 1
 145 831 121 830 97 830 c 0
 91 830 61 830 55 829 c 1
 47 829 41 816 40 811 c 0
 40 809 43 799 44 796 c 0
 51 782 76 786 88 782 c 0
 103 776 116 769 125 756 c 0
 145 728 140 690 140 657 c 0
 140 645 139 608 139 606 c 0
 139 596 136 520 136 510 c 0
 136 498 136 398 136 385 c 0
 136 382 132 356 132 352 c 0
 132 338 132 271 132 257 c 1
 129 217 76 190 40 198 c 1
 40 197 37 192 37 191 c 0
 36 186 33 171 33 169 c 0
 33 166 38 160 40 158 c 1
257 717 m 0
 255 717 255 714 257 714 c 0
 259 714 259 717 257 717 c 0
EndSplineSet
EndChar

StartChar: M
Encoding: 77 77 6
Width: 1019
VWidth: 0
Flags: W
LayerCount: 2
Fore
SplineSet
423 127 m 2
 423 126 423 124 423 123 c 0
 426 113 431 97 433 86 c 0
 434 81 439 45 440 41 c 0
 440 40 445 25 447 21 c 0
 448 19 450 14 450 14 c 1
 458 8 460 11 468 10 c 0
 469 10 483 7 485 7 c 0
 486 7 496 12 498 14 c 0
 499 14 501 19 502 21 c 2
 587 288 l 1
 590 292 599 314 601 318 c 0
 602 322 610 349 611 353 c 0
 612 354 618 365 618 366 c 0
 625 384 653 465 659 483 c 1
 663 490 l 1
 697 610 l 1
 700 616 l 1
 704 594 711 574 714 551 c 0
 714 550 714 546 714 545 c 2
 741 332 l 2
 742 330 745 321 745 318 c 0
 753 263 762 201 762 144 c 0
 762 112 747 89 721 72 c 0
 720 71 715 69 714 68 c 1
 711 68 686 66 683 65 c 0
 665 62 665 47 663 31 c 1
 663 29 l 2
 663 18 670 10 681 10 c 0
 683 10 l 1
 695 11 791 14 803 14 c 0
 828 14 946 14 971 14 c 1
 978 17 l 1
 978 17 980 36 981 45 c 1
 981 45 981 47 981 48 c 0
 981 57 977 69 966 69 c 1
 964 68 l 2
 963 68 952 65 950 65 c 0
 932 65 902 85 896 103 c 0
 892 113 883 144 882 147 c 0
 879 161 867 229 865 243 c 1
 866 259 861 273 858 288 c 0
 856 298 847 358 844 373 c 0
 835 433 828 495 820 555 c 0
 816 590 810 626 810 661 c 0
 810 686 815 702 831 723 c 1
 831 722 833 722 834 723 c 2
 837 729 l 1
 850 742 885 730 885 753 c 0
 885 783 875 781 849 781 c 0
 843 781 828 781 827 781 c 0
 824 781 799 777 796 777 c 0
 779 777 700 777 683 777 c 1
 680 774 l 1
 679 762 675 704 673 692 c 0
 671 678 659 657 663 640 c 1
 611 476 l 1
 603 463 603 445 594 432 c 1
 512 223 l 2
 512 222 511 222 511 222 c 1
 500 222 499 253 491 264 c 1
 437 418 l 1
 437 425 l 1
 437 425 415 485 406 510 c 0
 405 513 401 517 402 521 c 1
 351 675 l 1
 348 682 l 1
 327 767 l 2
 327 770 317 777 313 777 c 2
 135 777 l 2
 127 777 128 756 128 752 c 0
 128 750 l 1
 129 746 132 737 132 736 c 2
 132 736 140 733 142 733 c 0
 145 732 167 731 170 729 c 0
 173 728 190 711 194 705 c 0
 197 701 206 679 207 675 c 0
 207 674 208 660 208 654 c 0
 208 649 207 632 207 630 c 0
 205 609 193 508 190 486 c 1
 181 464 184 438 180 414 c 0
 177 395 160 304 156 284 c 1
 157 276 153 268 152 260 c 0
 151 251 147 208 146 199 c 1
 140 192 140 178 139 171 c 1
 136 162 124 119 122 110 c 1
 117 106 110 95 108 92 c 0
 88 70 68 60 39 51 c 1
 36 42 36 38 36 29 c 0
 36 26 36 10 43 10 c 2
 279 10 l 2
 283 10 286 35 286 38 c 0
 286 71 246 54 231 65 c 0
 229 67 217 79 214 82 c 0
 205 94 197 112 197 127 c 2
 197 216 l 1
 228 435 l 1
 228 452 l 1
 245 562 l 1
 244 575 246 594 248 606 c 0
 249 609 250 614 254 614 c 1
 255 613 l 1
 262 599 l 1
 365 301 l 1
 368 295 l 1
 423 127 l 2
EndSplineSet
EndChar

StartChar: N
Encoding: 78 78 7
Width: 908
VWidth: 0
Flags: W
LayerCount: 2
Fore
SplineSet
710 31 m 1
 714 21 722 7 734 7 c 2
 775 7 l 2
 777 7 782 12 782 14 c 2
 782 14 782 20 782 22 c 0
 782 24 782 30 782 31 c 0
 781 39 770 102 768 110 c 0
 768 111 769 125 768 127 c 0
 768 129 765 145 765 147 c 0
 765 148 765 157 765 158 c 0
 765 166 762 238 762 247 c 0
 761 265 762 416 762 435 c 1
 761 442 758 497 758 503 c 0
 758 505 758 526 758 534 c 0
 758 541 758 561 758 562 c 0
 758 565 761 592 762 596 c 1
 762 601 761 639 762 644 c 0
 762 645 764 657 765 661 c 0
 766 666 774 690 775 695 c 0
 776 696 778 698 779 699 c 0
 780 701 794 717 796 719 c 0
 800 723 819 735 823 736 c 0
 835 741 860 735 868 750 c 0
 868 752 868 762 868 764 c 0
 868 772 870 786 857 788 c 1
 832 787 712 787 686 788 c 0
 679 788 625 791 618 791 c 0
 617 791 610 791 608 791 c 0
 591 791 580 787 580 767 c 0
 580 757 584 750 594 747 c 0
 599 745 637 734 642 733 c 0
 663 726 686 698 693 678 c 0
 699 660 698 644 703 627 c 1
 708 525 708 423 710 322 c 0
 710 317 714 279 714 274 c 0
 714 265 711 224 710 216 c 1
 703 216 l 2
 702 216 681 240 673 250 c 0
 670 253 651 281 649 284 c 0
 640 295 597 343 587 353 c 1
 570 386 541 416 515 442 c 0
 515 443 512 448 512 449 c 0
 510 451 496 464 494 466 c 0
 492 469 482 483 481 486 c 1
 375 606 l 1
 357 630 l 1
 221 784 l 1
 70 784 l 2
 66 784 52 782 49 781 c 0
 40 777 39 763 39 755 c 0
 39 736 56 742 70 736 c 0
 101 724 125 701 152 682 c 1
 152 678 l 1
 156 676 170 664 173 661 c 0
 178 654 176 636 176 630 c 0
 176 624 179 578 179 572 c 0
 180 535 180 365 179 329 c 1
 180 324 182 300 183 295 c 0
 183 293 l 2
 183 291 l 1
 182 287 180 257 179 253 c 1
 179 247 180 192 179 185 c 0
 179 178 172 139 169 130 c 0
 163 109 144 89 128 75 c 0
 127 75 123 72 121 72 c 0
 115 70 94 66 90 65 c 0
 88 65 72 65 70 65 c 0
 53 63 52 42 52 30 c 0
 52 28 53 21 53 21 c 1
 60 17 l 1
 347 17 l 2
 359 17 358 35 358 41 c 0
 358 52 357 66 344 68 c 0
 341 69 316 71 313 72 c 0
 308 73 282 85 275 89 c 0
 257 99 242 162 241 178 c 0
 241 185 238 237 238 243 c 0
 237 254 238 342 238 353 c 1
 237 358 234 396 234 401 c 0
 234 409 234 475 234 483 c 0
 234 489 231 541 231 548 c 0
 231 549 231 562 231 567 c 0
 231 582 l 2
 231 585 232 589 236 589 c 2
 236 589 237 589 238 589 c 2
 258 568 l 1
 364 438 l 1
 379 426 390 409 402 394 c 0
 426 364 452 334 477 305 c 0
 479 303 496 286 498 284 c 0
 501 281 522 250 525 247 c 0
 527 245 541 231 542 229 c 1
 544 228 548 221 549 219 c 2
 710 31 l 1
EndSplineSet
EndChar

StartChar: O
Encoding: 79 79 8
Width: 807
VWidth: 0
Flags: W
LayerCount: 2
Fore
SplineSet
36 360 m 1
 44 346 39 316 43 301 c 0
 46 287 61 239 63 233 c 1
 66 228 97 170 108 151 c 0
 109 149 116 140 118 137 c 0
 119 136 125 131 125 130 c 0
 140 110 160 92 180 75 c 0
 243 22 321 0 402 0 c 0
 404 0 421 3 423 3 c 0
 477 10 529 21 577 48 c 0
 580 50 602 67 604 68 c 0
 605 69 611 72 611 72 c 2
 617 75 631 85 632 86 c 0
 639 92 673 126 680 134 c 0
 682 136 695 155 697 158 c 2
 697 158 700 160 700 161 c 0
 707 172 736 228 741 240 c 0
 742 241 749 265 752 274 c 1
 752 277 l 1
 760 314 769 348 769 386 c 0
 769 451 758 508 735 568 c 0
 733 573 713 612 711 616 c 0
 710 617 708 626 707 627 c 0
 705 630 685 654 683 658 c 0
 659 691 631 721 594 743 c 0
 584 749 536 773 526 777 c 1
 518 775 507 783 502 784 c 0
 497 786 480 791 478 791 c 0
 453 796 430 795 404 795 c 0
 398 795 371 795 365 795 c 1
 362 793 347 789 344 788 c 0
 342 787 326 785 324 784 c 0
 316 782 280 770 272 767 c 0
 234 752 203 729 173 702 c 0
 171 700 154 687 152 685 c 0
 148 680 119 639 115 634 c 0
 107 624 101 610 91 603 c 1
 87 595 70 557 67 548 c 0
 62 533 43 464 39 449 c 1
 41 428 36 406 36 385 c 0
 36 381 36 363 36 360 c 1
180 267 m 1
 177 279 165 334 163 346 c 0
 163 347 160 385 159 401 c 1
 159 401 159 403 159 404 c 0
 159 435 164 466 163 497 c 1
 187 592 l 1
 208 632 224 680 262 709 c 0
 265 711 290 724 293 726 c 2
 296 729 l 1
 322 746 352 754 383 754 c 0
 386 754 395 754 396 753 c 0
 406 752 444 745 450 743 c 0
 452 743 471 733 478 729 c 0
 505 715 533 695 553 671 c 0
 554 670 562 656 563 654 c 0
 580 630 602 607 611 579 c 0
 615 568 629 515 632 503 c 1
 630 495 634 495 635 486 c 0
 643 445 646 403 646 361 c 0
 646 351 646 327 646 325 c 0
 646 324 642 310 642 308 c 0
 642 307 642 293 642 291 c 0
 642 290 639 285 639 284 c 0
 638 281 633 257 632 253 c 0
 631 252 626 238 625 236 c 0
 625 235 625 227 625 226 c 0
 615 182 599 157 574 120 c 0
 563 104 548 98 533 89 c 0
 532 89 529 86 529 86 c 1
 505 66 475 52 444 48 c 0
 431 46 385 44 378 45 c 0
 375 45 344 54 334 58 c 0
 321 63 308 74 296 82 c 0
 250 113 222 163 197 212 c 0
 196 213 191 222 190 223 c 1
 190 226 l 1
 189 230 181 260 180 264 c 1
 180 267 l 1
180 310 m 0
 178 310 178 307 180 307 c 0
 182 307 182 310 180 310 c 0
50 592 m 1
 50 595 46 595 46 592 c 1
 47 590 49 590 50 592 c 1
EndSplineSet
EndChar

StartChar: P
Encoding: 80 80 9
Width: 692
VWidth: 0
Flags: W
LayerCount: 2
Fore
SplineSet
38 29 m 0
 38 15 44 7 60 7 c 0
 93 7 126 10 159 10 c 0
 214 10 269 7 324 7 c 0
 332 7 369 7 377 7 c 1
 386 12 387 22 387 31 c 0
 387 37 387 48 380 51 c 1
 318 58 273 66 267 137 c 0
 267 139 268 155 267 158 c 1
 267 162 265 181 264 185 c 1
 264 210 264 328 264 353 c 0
 264 358 261 399 261 404 c 0
 261 411 264 463 264 469 c 2
 264 469 264 470 264 471 c 0
 264 524 260 578 260 632 c 0
 260 645 261 703 261 716 c 1
 263 721 267 728 274 729 c 0
 280 730 308 730 314 730 c 0
 337 730 355 731 377 726 c 0
 407 719 435 714 459 695 c 0
 462 693 483 672 490 664 c 0
 492 662 500 652 500 651 c 0
 503 646 515 615 517 606 c 1
 522 593 521 583 521 569 c 0
 521 557 522 539 517 527 c 1
 514 517 495 472 490 462 c 1
 470 437 440 417 408 411 c 0
 401 410 346 405 339 404 c 0
 328 403 315 395 315 382 c 0
 315 369 322 358 336 356 c 0
 342 356 372 356 379 356 c 0
 433 356 486 360 535 387 c 0
 541 390 560 402 562 404 c 0
 568 409 606 445 617 455 c 0
 642 481 651 532 651 566 c 0
 651 625 627 677 583 716 c 0
 575 722 542 746 535 750 c 0
 533 751 509 758 500 760 c 0
 477 766 452 769 428 771 c 0
 425 771 346 773 315 774 c 1
 315 774 311 774 310 774 c 0
 305 774 l 2
 300 774 262 771 257 771 c 0
 252 770 214 771 209 771 c 1
 207 770 188 767 185 767 c 0
 180 767 139 770 134 771 c 0
 132 771 105 771 95 771 c 0
 89 771 61 771 55 771 c 1
 54 770 46 768 45 767 c 0
 44 767 41 764 41 764 c 1
 41 733 l 2
 41 732 49 727 52 726 c 0
 55 725 83 723 86 723 c 0
 143 709 147 655 148 606 c 0
 148 603 148 551 148 532 c 0
 148 513 148 461 148 459 c 0
 148 455 144 425 144 421 c 2
 144 421 144 409 144 404 c 0
 144 358 148 313 148 266 c 0
 148 209 151 149 137 92 c 0
 133 73 108 66 93 62 c 0
 86 60 52 53 45 51 c 0
 37 48 38 36 38 29 c 0
55 721 m 0
 53 721 53 717 55 717 c 0
 57 717 57 721 55 721 c 0
EndSplineSet
EndChar

StartChar: R
Encoding: 82 82 10
Width: 738
VWidth: 0
Flags: W
LayerCount: 2
Fore
SplineSet
40 165 m 0
 40 154 42 147 55 147 c 2
 326 147 l 1
 326 191 l 1
 286 198 l 2
 284 199 281 203 281 205 c 1
 265 205 256 215 246 228 c 0
 245 228 242 234 242 235 c 0
 241 240 238 261 238 264 c 2
 238 459 l 2
 238 463 249 466 253 466 c 0
 286 466 317 448 337 422 c 2
 517 191 l 1
 557 150 l 1
 690 147 l 2
 702 146 704 155 704 165 c 0
 704 195 680 195 657 209 c 0
 653 212 635 224 631 228 c 0
 616 240 606 254 594 268 c 0
 589 274 551 321 546 327 c 2
 546 327 540 333 539 334 c 0
 538 336 529 351 528 352 c 0
 526 354 511 369 510 371 c 0
 505 376 470 421 466 426 c 0
 459 433 426 467 418 473 c 1
 488 503 l 1
 490 508 498 508 502 510 c 0
 506 512 521 522 524 525 c 0
 560 553 576 604 576 648 c 0
 576 720 513 786 447 807 c 1
 420 817 386 826 356 826 c 2
 44 826 l 1
 44 789 l 2
 44 778 94 779 106 767 c 0
 121 752 132 730 132 708 c 2
 132 264 l 2
 132 232 106 199 73 194 c 1
 66 194 48 191 47 191 c 0
 46 191 44 188 44 187 c 0
 43 183 40 168 40 165 c 0
238 517 m 1
 238 526 238 564 238 572 c 0
 238 587 238 625 238 628 c 0
 238 634 242 687 242 694 c 0
 242 699 239 746 238 752 c 0
 238 753 238 760 238 762 c 0
 238 770 238 774 242 782 c 1
 245 782 262 782 266 782 c 0
 317 782 366 778 407 745 c 0
 442 717 458 680 458 635 c 0
 458 623 452 601 447 591 c 0
 445 586 435 565 433 561 c 0
 432 561 427 556 425 554 c 0
 375 510 316 510 251 510 c 0
 246 510 241 514 238 517 c 1
EndSplineSet
EndChar

StartChar: S
Encoding: 83 83 11
Width: 484
VWidth: 0
Flags: W
LayerCount: 2
Fore
SplineSet
40 330 m 0
 40 327 44 301 44 297 c 0
 44 290 44 234 44 228 c 0
 44 225 47 208 48 206 c 0
 48 202 l 1
 49 197 51 184 51 183 c 0
 54 177 69 170 73 169 c 0
 91 163 152 145 162 143 c 0
 168 142 204 137 213 136 c 0
 214 136 229 135 234 135 c 0
 357 135 444 201 444 330 c 0
 444 388 416 432 374 470 c 0
 366 477 330 506 323 510 c 0
 311 518 214 572 202 580 c 0
 199 582 168 605 158 613 c 0
 152 618 147 625 143 631 c 0
 139 639 129 660 129 661 c 2
 129 719 l 2
 129 720 136 735 140 741 c 0
 152 764 179 788 206 793 c 0
 210 793 231 793 235 793 c 0
 242 793 263 793 264 793 c 0
 270 792 293 784 297 782 c 0
 300 780 323 757 330 749 c 0
 331 748 337 740 338 738 c 0
 341 731 357 700 360 694 c 0
 368 677 364 642 391 642 c 0
 396 642 l 1
 400 643 407 645 407 646 c 2
 407 782 l 1
 404 789 l 2
 403 790 383 800 374 804 c 0
 368 806 335 819 327 822 c 0
 295 833 266 833 233 833 c 0
 224 833 199 833 198 833 c 0
 192 832 158 825 151 822 c 0
 108 807 64 750 48 712 c 0
 47 710 44 699 44 697 c 0
 44 695 44 669 44 659 c 0
 44 629 46 603 62 576 c 0
 98 516 171 472 231 440 c 0
 232 440 234 437 235 437 c 0
 240 433 268 415 275 411 c 0
 288 403 303 397 312 385 c 0
 320 375 343 344 345 341 c 0
 355 326 356 308 356 290 c 0
 356 245 333 197 286 183 c 0
 282 182 253 177 246 176 c 0
 245 176 237 176 233 176 c 0
 160 176 120 244 95 305 c 0
 89 320 91 338 77 349 c 1
 75 349 66 349 64 349 c 0
 61 349 47 350 44 345 c 0
 43 343 40 333 40 330 c 0
EndSplineSet
EndChar

StartChar: T
Encoding: 84 84 12
Width: 795
VWidth: 0
Flags: W
LayerCount: 2
Fore
SplineSet
233 30 m 0
 233 20 238 10 250 10 c 2
 555 10 l 2
 567 10 566 26 566 33 c 0
 566 41 566 50 559 55 c 1
 552 56 524 60 517 62 c 0
 512 63 497 69 493 72 c 0
 487 77 468 96 466 99 c 0
 465 101 460 118 459 123 c 0
 458 130 456 159 456 164 c 2
 456 729 l 1
 466 740 l 1
 583 740 l 2
 586 740 615 733 624 729 c 0
 626 729 638 721 641 719 c 0
 646 715 668 693 672 688 c 0
 674 685 691 661 696 654 c 0
 707 636 713 609 739 609 c 0
 747 609 752 609 757 616 c 1
 757 619 758 629 758 632 c 0
 758 636 757 646 757 647 c 0
 756 655 748 715 747 723 c 0
 747 726 747 750 747 753 c 0
 747 755 744 767 743 771 c 0
 743 773 741 777 740 777 c 2
 682 781 l 1
 96 781 l 1
 96 782 91 784 89 784 c 2
 83 781 l 1
 75 780 56 784 52 774 c 1
 51 765 46 724 45 716 c 0
 42 689 38 662 38 635 c 0
 38 628 37 613 45 610 c 0
 47 609 56 609 59 609 c 0
 70 609 79 609 86 620 c 0
 88 623 104 654 106 658 c 1
 108 659 120 676 124 682 c 0
 131 691 138 702 148 709 c 0
 152 712 176 727 182 729 c 0
 184 730 200 736 202 736 c 1
 203 737 209 740 209 740 c 2
 210 740 218 737 220 736 c 1
 221 736 l 2
 234 736 246 740 259 740 c 0
 262 740 270 740 271 740 c 0
 272 740 283 736 285 736 c 0
 292 736 325 736 333 736 c 1
 335 735 339 729 339 726 c 2
 339 363 l 1
 340 358 343 337 343 332 c 0
 343 326 339 277 339 271 c 0
 339 262 342 197 343 188 c 1
 343 185 l 2
 343 182 l 1
 342 171 337 120 336 110 c 1
 329 85 308 61 281 58 c 0
 272 57 248 55 247 55 c 0
 235 53 233 40 233 30 c 0
72 426 m 0
 71 426 71 423 72 423 c 0
 74 423 74 426 72 426 c 0
298 541 m 1
 302 538 l 1
 302 541 l 1
 298 541 l 1
EndSplineSet
EndChar

StartChar: Y
Encoding: 89 89 13
Width: 788
VWidth: 0
Flags: W
LayerCount: 2
Fore
SplineSet
233 38 m 0
 233 32 233 26 237 21 c 0
 239 17 246 10 247 10 c 2
 552 10 l 1
 559 17 l 1
 559 17 559 25 559 28 c 0
 559 37 561 49 552 55 c 1
 502 57 477 65 459 113 c 0
 458 116 456 125 456 127 c 0
 455 132 456 170 456 175 c 0
 456 179 453 212 452 216 c 0
 452 218 452 260 452 276 c 0
 452 285 452 327 452 336 c 1
 454 351 461 359 470 370 c 0
 474 375 471 377 476 380 c 1
 486 398 534 479 545 497 c 0
 558 517 573 537 586 558 c 0
 611 600 633 648 665 685 c 0
 670 691 686 707 689 709 c 0
 692 711 721 725 730 729 c 0
 731 730 742 732 743 733 c 0
 746 734 750 736 750 736 c 1
 750 771 l 2
 750 773 740 777 740 777 c 1
 737 777 723 778 720 778 c 0
 715 778 700 777 699 777 c 0
 685 777 617 775 603 774 c 1
 596 777 l 1
 490 777 l 2
 483 777 483 753 483 746 c 0
 483 742 482 738 487 736 c 0
 506 728 528 733 548 723 c 0
 554 720 559 709 562 705 c 0
 569 696 573 684 573 671 c 0
 573 670 572 665 572 664 c 0
 570 655 553 612 548 603 c 0
 540 586 497 509 487 493 c 1
 481 490 482 483 476 479 c 1
 435 408 l 1
 434 404 431 401 427 401 c 0
 425 401 l 1
 423 403 416 412 415 414 c 0
 414 415 412 417 411 418 c 2
 356 510 l 1
 339 520 343 552 326 562 c 1
 319 575 287 640 281 654 c 0
 279 658 275 672 274 675 c 1
 274 675 274 684 274 687 c 0
 274 728 317 731 350 736 c 1
 353 740 l 1
 353 771 l 2
 353 773 343 777 343 777 c 1
 69 777 l 1
 41 774 l 2
 38 773 38 765 38 762 c 0
 38 753 39 741 48 736 c 1
 54 735 80 728 86 726 c 0
 88 725 102 718 106 716 c 0
 107 716 109 713 110 712 c 0
 114 707 126 690 127 688 c 2
 220 531 l 1
 225 528 228 516 230 514 c 0
 256 472 285 430 309 387 c 0
 317 372 321 353 333 339 c 1
 334 328 339 275 339 264 c 1
 340 262 340 240 340 231 c 0
 340 203 339 178 336 151 c 0
 335 141 333 117 333 116 c 0
 329 107 312 78 309 75 c 2
 295 65 l 1
 288 64 257 57 250 55 c 0
 241 52 233 49 233 38 c 0
466 471 m 0
 464 471 464 467 466 467 c 0
 468 467 468 471 466 471 c 0
EndSplineSet
EndChar

StartChar: _111
Encoding: 256 -1 14
Width: 2143
VWidth: 0
Flags: W
LayerCount: 2
Fore
SplineSet
1079 407 m 1
 1292 147 l 2
 1294 144 1300 139 1303 139 c 2
 1340 143 l 2
 1343 143 1344 154 1344 158 c 0
 1344 161 l 1
 1342 179 1331 258 1329 275 c 1
 1329 606 l 1
 1330 606 1333 608 1333 609 c 0
 1333 610 1329 616 1329 617 c 2
 1329 617 1329 621 1329 623 c 0
 1329 654 1329 686 1336 716 c 0
 1338 722 1343 740 1344 741 c 0
 1344 742 1357 758 1362 763 c 0
 1368 770 1372 775 1380 778 c 0
 1386 780 1415 788 1421 789 c 1
 1428 792 1428 795 1428 801 c 0
 1428 809 1427 814 1424 822 c 1
 1351 826 1277 827 1204 829 c 0
 1203 829 1196 830 1194 830 c 0
 1190 830 1181 830 1178 826 c 0
 1178 825 1176 812 1175 807 c 1
 1175 807 1175 806 1175 805 c 2
 1175 804 l 1
 1176 802 1184 794 1186 793 c 0
 1193 791 1226 781 1233 778 c 0
 1234 778 1247 767 1252 763 c 0
 1278 741 1279 700 1281 668 c 0
 1282 660 1284 624 1285 617 c 1
 1285 323 l 2
 1285 320 1281 319 1279 319 c 2
 1277 319 l 1
 1277 320 1271 329 1270 330 c 0
 1248 357 1226 384 1204 411 c 0
 1193 425 1157 471 1153 477 c 0
 1151 479 1146 489 1145 492 c 1
 1103 538 1057 594 1017 642 c 0
 981 685 948 733 910 774 c 0
 908 777 887 797 885 800 c 0
 884 801 882 807 881 807 c 0
 878 811 863 826 859 829 c 1
 845 829 781 829 767 829 c 1
 763 830 728 833 723 833 c 2
 723 833 722 833 721 833 c 0
 719 833 705 831 705 826 c 2
 705 800 l 2
 705 799 750 782 760 774 c 0
 770 767 803 738 808 734 c 0
 810 732 821 719 822 716 c 0
 823 690 823 572 823 547 c 0
 823 502 823 384 822 378 c 1
 822 370 819 305 819 297 c 0
 819 296 819 287 819 286 c 0
 818 280 816 262 815 261 c 0
 807 239 797 216 775 206 c 1
 767 204 731 196 723 194 c 0
 711 191 712 181 712 170 c 0
 712 168 712 162 712 161 c 2
 720 158 l 1
 969 158 l 2
 970 158 973 163 973 165 c 0
 973 166 973 174 973 177 c 0
 973 187 l 1
 972 189 964 197 962 198 c 0
 960 199 942 201 940 202 c 0
 934 204 905 217 899 220 c 1
 886 238 878 261 874 283 c 1
 870 385 869 488 866 591 c 0
 866 594 866 622 866 631 c 0
 866 638 866 656 866 657 c 2
 870 664 l 1
 879 663 880 656 885 650 c 1
 887 646 900 631 903 628 c 0
 904 626 913 618 914 617 c 0
 916 614 930 593 933 591 c 1
 935 587 959 561 962 558 c 0
 963 556 972 541 973 539 c 0
 996 507 1025 476 1050 444 c 0
 1059 432 1067 417 1079 407 c 1
1619 176 m 0
 1619 171 1622 150 1630 150 c 2
 1905 150 l 1
 1905 187 l 1
 1905 187 1900 190 1898 191 c 0
 1895 192 1888 194 1887 194 c 0
 1885 195 1873 194 1872 194 c 0
 1867 195 1849 201 1846 202 c 0
 1834 207 1822 238 1821 250 c 0
 1820 258 1817 297 1817 305 c 0
 1817 307 1817 346 1817 361 c 0
 1817 401 1812 437 1835 470 c 0
 1837 473 1855 496 1857 499 c 0
 1871 521 1933 624 1945 646 c 1
 1949 650 l 1
 2011 745 l 1
 2024 763 2051 771 2070 778 c 1
 2073 781 2078 805 2078 809 c 0
 2078 816 2075 826 2066 826 c 2
 1854 826 l 2
 1847 826 1846 803 1846 798 c 0
 1846 795 1844 787 1850 785 c 0
 1865 781 1892 783 1905 771 c 0
 1906 770 1916 754 1920 749 c 0
 1924 742 1924 741 1924 733 c 0
 1924 732 1924 727 1923 727 c 2
 1905 675 l 1
 1810 514 l 2
 1806 508 1803 498 1795 498 c 0
 1794 498 1791 499 1791 499 c 1
 1769 532 l 1
 1670 716 l 1
 1668 725 1663 734 1663 743 c 0
 1663 781 1703 784 1733 789 c 1
 1737 794 1737 801 1737 807 c 0
 1737 816 1737 828 1725 829 c 1
 1702 829 1591 829 1567 829 c 1
 1561 830 1511 833 1505 833 c 0
 1504 833 1490 833 1485 833 c 0
 1482 833 1468 833 1465 833 c 1
 1458 828 1457 821 1457 813 c 0
 1457 803 1457 792 1468 789 c 0
 1487 784 1512 783 1523 763 c 2
 1600 628 l 1
 1604 624 l 1
 1710 440 l 2
 1711 439 1714 406 1714 393 c 0
 1714 392 1714 373 1714 366 c 0
 1714 359 1714 339 1714 338 c 0
 1714 321 1711 270 1710 264 c 0
 1709 250 1702 232 1692 220 c 0
 1688 215 1679 204 1670 202 c 0
 1663 200 1630 192 1622 191 c 1
 1619 184 1619 182 1619 176 c 0
41 161 m 1
 112 163 170 158 239 158 c 0
 242 158 250 158 250 161 c 2
 250 194 l 2
 250 196 245 201 243 202 c 0
 240 203 219 208 217 209 c 0
 193 220 184 246 184 269 c 0
 184 292 185 316 191 338 c 0
 195 352 216 419 221 433 c 1
 230 432 277 430 287 429 c 1
 307 429 402 429 422 429 c 1
 425 427 432 414 433 411 c 0
 436 405 450 358 452 352 c 2
 452 352 455 346 455 345 c 0
 459 334 477 283 481 272 c 0
 482 269 482 256 482 253 c 0
 482 229 470 206 444 202 c 0
 440 201 419 199 415 198 c 1
 409 194 408 187 408 180 c 0
 408 178 408 173 408 172 c 0
 408 168 411 158 411 158 c 1
 668 158 l 1
 668 187 l 2
 668 188 663 194 661 194 c 1
 660 195 647 198 643 198 c 0
 642 198 636 198 635 198 c 0
 621 206 600 227 595 242 c 2
 529 444 l 1
 522 459 l 1
 419 771 l 1
 417 773 412 783 411 785 c 0
 410 790 398 832 397 837 c 0
 396 839 394 844 393 844 c 0
 391 845 381 848 378 848 c 2
 294 848 l 2
 290 848 290 843 290 840 c 0
 290 829 302 821 302 809 c 0
 302 808 302 804 301 804 c 2
 276 730 l 1
 276 727 l 1
 270 709 264 699 261 683 c 1
 169 422 l 2
 169 419 166 406 166 404 c 0
 161 388 143 334 140 327 c 0
 135 314 109 255 103 242 c 1
 97 238 102 238 96 231 c 0
 81 214 65 197 41 198 c 1
 35 193 37 181 37 176 c 0
 37 173 37 166 37 165 c 2
 41 161 l 1
2103 361 m 0
 2101 361 2101 358 2103 358 c 0
 2105 358 2105 361 2103 361 c 0
235 486 m 1
 235 488 l 1
 237 494 248 525 250 532 c 0
 250 533 253 538 254 539 c 2
 305 697 l 1
 312 708 315 738 325 738 c 0
 330 738 339 708 338 705 c 1
 341 696 353 658 356 650 c 0
 375 597 389 542 408 488 c 1
 408 481 l 1
 246 481 l 2
 245 481 237 483 235 484 c 1
 235 486 l 1
1435 519 m 0
 1433 519 1433 516 1435 516 c 0
 1437 516 1437 519 1435 519 c 0
1010 611 m 0
 1011 611 1011 607 1010 607 c 0
 1008 607 1008 611 1010 611 c 0
2059 651 m 0
 2057 651 2057 648 2059 648 c 0
 2061 648 2061 651 2059 651 c 0
1799 782 m 1
 1799 778 l 1
 1802 778 l 1
 1802 782 l 1
 1799 782 l 1
EndSplineSet
EndChar

StartChar: _112
Encoding: 257 -1 15
Width: 484
VWidth: 0
Flags: W
LayerCount: 2
Fore
SplineSet
40 330 m 0
 40 327 44 301 44 297 c 0
 44 290 44 234 44 228 c 0
 44 225 47 208 48 206 c 0
 48 202 l 1
 49 197 51 184 51 183 c 0
 54 177 69 170 73 169 c 0
 91 163 152 145 162 143 c 0
 168 142 204 137 213 136 c 0
 214 136 229 135 234 135 c 0
 357 135 444 201 444 330 c 0
 444 388 416 432 374 470 c 0
 366 477 330 506 323 510 c 0
 311 518 214 572 202 580 c 0
 199 582 168 605 158 613 c 0
 152 618 147 625 143 631 c 0
 139 639 129 660 129 661 c 2
 129 719 l 2
 129 720 136 735 140 741 c 0
 152 764 179 788 206 793 c 0
 210 793 231 793 235 793 c 0
 242 793 263 793 264 793 c 0
 270 792 293 784 297 782 c 0
 300 780 323 757 330 749 c 0
 331 748 337 740 338 738 c 0
 341 731 357 700 360 694 c 0
 368 677 364 642 391 642 c 0
 396 642 l 1
 400 643 407 645 407 646 c 2
 407 782 l 1
 404 789 l 2
 403 790 383 800 374 804 c 0
 368 806 335 819 327 822 c 0
 295 833 266 833 233 833 c 0
 224 833 199 833 198 833 c 0
 192 832 158 825 151 822 c 0
 108 807 64 750 48 712 c 0
 47 710 44 699 44 697 c 0
 44 695 44 669 44 659 c 0
 44 629 46 603 62 576 c 0
 98 516 171 472 231 440 c 0
 232 440 234 437 235 437 c 0
 240 433 268 415 275 411 c 0
 288 403 303 397 312 385 c 0
 320 375 343 344 345 341 c 0
 355 326 356 308 356 290 c 0
 356 245 333 197 286 183 c 0
 282 182 253 177 246 176 c 0
 245 176 237 176 233 176 c 0
 160 176 120 244 95 305 c 0
 89 320 91 338 77 349 c 1
 75 349 66 349 64 349 c 0
 61 349 47 350 44 345 c 0
 43 343 40 333 40 330 c 0
EndSplineSet
EndChar

StartChar: _113
Encoding: 258 -1 16
Width: 637
VWidth: 0
Flags: W
LayerCount: 2
Fore
SplineSet
301 150 m 1
 325 151 435 151 459 150 c 0
 465 150 509 147 514 147 c 0
 521 147 552 149 558 150 c 0
 559 151 561 157 562 158 c 0
 565 168 578 217 580 228 c 0
 580 229 580 234 580 235 c 0
 586 259 595 281 595 305 c 0
 595 316 584 316 576 316 c 0
 565 316 565 317 558 308 c 0
 554 303 525 262 521 257 c 0
 515 250 487 224 481 220 c 0
 478 218 445 203 433 198 c 0
 416 191 394 191 375 191 c 0
 364 191 l 2
 357 191 304 194 298 194 c 0
 290 195 282 193 276 198 c 0
 248 220 239 248 239 283 c 2
 239 451 l 2
 239 456 241 474 243 477 c 1
 243 479 248 484 250 484 c 2
 323 483 l 1
 334 483 l 1
 397 481 l 2
 399 481 417 473 422 470 c 0
 448 454 449 421 459 396 c 0
 460 395 462 387 463 385 c 1
 465 385 474 385 476 385 c 0
 478 385 499 384 499 393 c 2
 499 565 l 1
 501 568 503 581 503 583 c 0
 503 587 501 605 499 609 c 1
 498 615 487 613 485 613 c 0
 474 613 l 1
 466 612 458 550 426 536 c 0
 419 532 393 525 389 525 c 2
 261 525 l 2
 259 525 246 527 243 528 c 0
 242 529 239 531 239 532 c 0
 239 536 239 552 239 556 c 0
 239 562 239 579 239 580 c 0
 239 583 243 610 243 613 c 0
 243 634 243 734 243 756 c 1
 246 782 l 1
 411 782 l 2
 470 782 483 738 507 694 c 0
 515 679 520 678 537 678 c 0
 539 678 547 679 547 679 c 1
 551 683 l 1
 551 807 l 2
 551 812 543 820 540 822 c 1
 414 820 288 826 162 826 c 0
 145 826 68 826 52 826 c 1
 46 821 48 809 48 804 c 0
 48 801 48 791 48 789 c 1
 63 779 80 785 96 778 c 0
 117 768 139 743 140 719 c 0
 140 715 136 683 136 679 c 0
 136 674 140 633 140 628 c 0
 140 626 140 595 140 583 c 0
 140 571 140 535 140 532 c 0
 140 517 136 390 136 374 c 0
 136 368 136 315 136 308 c 0
 136 300 131 252 129 239 c 0
 126 217 106 194 85 191 c 0
 81 190 55 191 52 191 c 0
 40 190 40 177 40 169 c 0
 40 167 38 155 44 154 c 1
 74 154 213 151 243 150 c 1
 243 150 244 150 245 150 c 0
 255 150 265 154 276 154 c 0
 285 154 293 155 301 150 c 1
250 413 m 0
 248 413 248 409 250 409 c 0
 252 409 252 413 250 413 c 0
210 543 m 0
 209 541 206 541 206 543 c 0
 205 545 210 545 210 543 c 0
202 549 m 0
 204 549 204 545 202 545 c 0
 200 545 200 549 202 549 c 0
125 659 m 0
 123 659 123 655 125 655 c 0
 127 655 127 659 125 659 c 0
EndSplineSet
EndChar

StartChar: _114
Encoding: 259 -1 17
Width: 738
VWidth: 0
Flags: W
LayerCount: 2
Fore
SplineSet
40 165 m 0
 40 154 42 147 55 147 c 2
 326 147 l 1
 326 191 l 1
 286 198 l 2
 284 199 281 203 281 205 c 1
 265 205 256 215 246 228 c 0
 245 228 242 234 242 235 c 0
 241 240 238 261 238 264 c 2
 238 459 l 2
 238 463 249 466 253 466 c 0
 286 466 317 448 337 422 c 2
 517 191 l 1
 557 150 l 1
 690 147 l 2
 702 146 704 155 704 165 c 0
 704 195 680 195 657 209 c 0
 653 212 635 224 631 228 c 0
 616 240 606 254 594 268 c 0
 589 274 551 321 546 327 c 2
 546 327 540 333 539 334 c 0
 538 336 529 351 528 352 c 0
 526 354 511 369 510 371 c 0
 505 376 470 421 466 426 c 0
 459 433 426 467 418 473 c 1
 488 503 l 1
 490 508 498 508 502 510 c 0
 506 512 521 522 524 525 c 0
 560 553 576 604 576 648 c 0
 576 720 513 786 447 807 c 1
 420 817 386 826 356 826 c 2
 44 826 l 1
 44 789 l 2
 44 778 94 779 106 767 c 0
 121 752 132 730 132 708 c 2
 132 264 l 2
 132 232 106 199 73 194 c 1
 66 194 48 191 47 191 c 0
 46 191 44 188 44 187 c 0
 43 183 40 168 40 165 c 0
238 517 m 1
 238 526 238 564 238 572 c 0
 238 587 238 625 238 628 c 0
 238 634 242 687 242 694 c 0
 242 699 239 746 238 752 c 0
 238 753 238 760 238 762 c 0
 238 770 238 774 242 782 c 1
 245 782 262 782 266 782 c 0
 317 782 366 778 407 745 c 0
 442 717 458 680 458 635 c 0
 458 623 452 601 447 591 c 0
 445 586 435 565 433 561 c 0
 432 561 427 556 425 554 c 0
 375 510 316 510 251 510 c 0
 246 510 241 514 238 517 c 1
EndSplineSet
EndChar

StartChar: _115
Encoding: 260 -1 18
Width: 376
VWidth: 0
Flags: W
LayerCount: 2
Fore
SplineSet
40 158 m 1
 130 154 219 154 308 150 c 0
 309 150 317 150 319 150 c 0
 336 150 334 166 334 181 c 0
 334 187 l 1
 333 189 325 197 323 198 c 0
 322 199 313 198 312 198 c 0
 286 203 246 214 242 246 c 0
 242 249 239 280 239 290 c 2
 239 290 239 294 239 295 c 0
 239 301 l 2
 239 309 242 374 242 382 c 0
 242 395 242 507 242 521 c 0
 242 535 246 647 246 661 c 0
 246 669 246 710 246 719 c 1
 252 722 252 735 253 738 c 0
 263 764 284 781 312 785 c 0
 322 787 336 779 341 793 c 1
 341 793 341 796 341 798 c 0
 341 804 339 826 330 826 c 2
 169 826 l 1
 145 831 121 830 97 830 c 0
 91 830 61 830 55 829 c 1
 47 829 41 816 40 811 c 0
 40 809 43 799 44 796 c 0
 51 782 76 786 88 782 c 0
 103 776 116 769 125 756 c 0
 145 728 140 690 140 657 c 0
 140 645 139 608 139 606 c 0
 139 596 136 520 136 510 c 0
 136 498 136 398 136 385 c 0
 136 382 132 356 132 352 c 0
 132 338 132 271 132 257 c 1
 129 217 76 190 40 198 c 1
 40 197 37 192 37 191 c 0
 36 186 33 171 33 169 c 0
 33 166 38 160 40 158 c 1
257 717 m 0
 255 717 255 714 257 714 c 0
 259 714 259 717 257 717 c 0
EndSplineSet
EndChar

StartChar: _116
Encoding: 261 -1 19
Width: 650
VWidth: 0
Flags: W
LayerCount: 2
Fore
SplineSet
288 154 m 1
 292 153 313 150 317 150 c 0
 319 150 324 153 325 154 c 1
 563 154 l 2
 570 154 573 169 574 172 c 0
 581 201 585 228 592 257 c 0
 597 276 604 292 604 312 c 0
 604 318 599 323 593 323 c 0
 578 323 569 321 559 308 c 0
 557 305 540 278 537 275 c 0
 531 268 501 237 493 231 c 0
 492 231 487 228 486 228 c 0
 485 227 476 221 475 220 c 0
 435 202 412 198 369 198 c 0
 363 198 334 198 328 198 c 1
 314 206 299 199 284 206 c 0
 250 221 252 253 244 283 c 1
 244 462 l 2
 244 465 246 481 248 484 c 0
 248 485 250 488 251 488 c 0
 254 488 267 488 270 488 c 0
 274 488 287 488 288 488 c 0
 290 488 308 484 310 484 c 0
 312 484 323 487 325 488 c 1
 402 484 l 2
 405 484 420 479 424 477 c 0
 453 461 452 389 476 389 c 0
 482 389 l 1
 489 390 504 392 504 393 c 2
 508 400 l 1
 508 613 l 2
 508 614 503 620 501 620 c 2
 501 620 494 621 492 621 c 0
 486 621 474 620 471 613 c 0
 470 610 462 583 460 580 c 0
 457 572 451 561 446 554 c 0
 440 547 425 542 420 539 c 1
 409 535 402 532 391 532 c 0
 378 532 319 529 306 528 c 1
 304 529 294 532 292 532 c 0
 284 532 251 531 244 531 c 1
 244 533 244 548 244 550 c 0
 244 563 251 666 251 679 c 0
 252 695 250 770 250 786 c 1
 277 786 304 789 332 789 c 0
 338 789 356 789 358 789 c 0
 363 789 404 786 409 785 c 0
 474 781 494 744 519 690 c 1
 526 686 534 682 541 682 c 0
 546 682 559 684 559 690 c 2
 559 815 l 2
 559 818 555 824 552 826 c 1
 391 834 229 827 68 833 c 1
 58 831 49 826 49 815 c 0
 49 811 52 796 53 793 c 1
 61 786 73 788 82 785 c 0
 104 780 125 770 134 749 c 0
 136 743 141 725 141 723 c 2
 141 418 l 1
 134 361 141 303 134 246 c 0
 130 218 100 201 75 198 c 0
 74 198 62 199 60 198 c 0
 57 197 47 192 46 191 c 0
 44 189 42 176 42 172 c 0
 42 170 48 160 49 158 c 1
 63 157 124 154 137 154 c 0
 160 154 265 154 288 154 c 1
600 347 m 0
 598 347 598 343 600 343 c 0
 602 343 602 347 600 347 c 0
108 769 m 0
 106 769 106 765 108 765 c 0
 110 765 110 769 108 769 c 0
EndSplineSet
EndChar

StartChar: _117
Encoding: 262 -1 20
Width: 486
VWidth: 0
Flags: W
LayerCount: 2
Fore
SplineSet
71 169 m 0
 86 164 155 143 170 139 c 0
 188 135 220 135 238 135 c 0
 265 135 283 135 310 143 c 0
 401 172 446 232 446 329 c 0
 446 405 390 467 328 506 c 0
 310 518 222 570 203 580 c 0
 197 584 172 605 166 609 c 0
 139 633 133 656 133 690 c 0
 133 714 134 728 148 749 c 0
 169 779 197 793 234 793 c 0
 300 793 323 773 354 716 c 0
 363 698 367 639 394 639 c 0
 416 639 416 655 416 673 c 0
 416 691 412 709 412 727 c 0
 412 730 412 737 412 738 c 0
 413 739 416 748 416 749 c 2
 416 749 413 755 412 756 c 0
 411 764 416 783 405 789 c 0
 357 812 307 834 253 834 c 0
 247 834 230 833 229 833 c 0
 218 832 166 824 155 822 c 1
 88 787 45 730 45 654 c 0
 45 635 l 1
 47 626 60 585 64 576 c 0
 65 573 78 555 82 550 c 0
 88 543 117 515 122 510 c 0
 124 509 136 504 137 503 c 0
 142 500 177 473 181 470 c 0
 195 461 259 422 273 415 c 1
 277 408 293 401 299 396 c 0
 322 376 346 350 354 319 c 0
 354 315 354 296 354 292 c 0
 354 221 309 176 237 176 c 0
 225 176 215 176 203 180 c 0
 197 182 179 190 177 191 c 2
 130 239 l 2
 129 241 124 251 122 253 c 0
 121 255 109 273 108 275 c 0
 106 279 96 307 93 316 c 0
 93 317 90 332 89 334 c 0
 88 338 83 349 82 349 c 2
 49 349 l 2
 48 349 46 346 45 345 c 0
 44 343 42 335 42 334 c 0
 42 331 45 308 45 305 c 0
 46 297 45 232 45 224 c 1
 46 218 48 193 49 187 c 0
 51 177 64 172 71 169 c 0
71 754 m 0
 69 754 69 750 71 750 c 0
 73 750 73 754 71 754 c 0
EndSplineSet
EndChar

StartChar: _118
Encoding: 263 -1 21
Width: 699
VWidth: 0
Flags: W
LayerCount: 2
Fore
SplineSet
339 20 m 0
 337 20 337 17 339 17 c 0
 341 17 341 20 339 20 c 0
104 253 m 1
 108 249 126 231 130 228 c 0
 141 217 156 202 170 194 c 0
 189 184 243 156 247 154 c 0
 253 152 278 144 284 143 c 1
 291 143 325 142 332 142 c 0
 344 142 377 143 379 143 c 0
 391 144 445 157 456 161 c 0
 458 162 463 165 464 165 c 0
 465 166 474 168 475 169 c 0
 484 174 525 197 534 202 c 1
 534 202 537 205 537 206 c 0
 540 208 564 225 567 228 c 0
 569 229 583 247 585 250 c 0
 629 300 656 363 666 429 c 1
 666 437 666 474 666 483 c 0
 666 496 666 534 666 536 c 0
 665 545 657 586 655 594 c 1
 649 603 647 615 644 624 c 0
 638 638 617 685 614 690 c 0
 613 692 601 710 596 716 c 0
 595 716 589 722 589 723 c 0
 546 773 493 808 431 829 c 0
 411 836 366 837 347 837 c 0
 255 837 175 790 115 723 c 0
 113 720 99 696 97 694 c 0
 96 693 90 687 89 686 c 0
 88 684 83 677 82 675 c 0
 49 609 27 543 27 469 c 0
 27 468 27 463 27 462 c 0
 27 461 31 446 31 444 c 0
 31 442 31 428 31 426 c 0
 32 420 37 394 38 389 c 0
 42 377 54 338 56 334 c 0
 63 321 96 265 104 253 c 1
136 508 m 0
 136 636 183 797 335 797 c 0
 356 797 374 797 394 789 c 0
 397 788 421 772 423 771 c 0
 479 737 520 683 537 620 c 0
 542 602 557 517 559 499 c 0
 560 497 560 470 560 461 c 0
 560 455 560 428 559 422 c 0
 558 420 556 410 556 407 c 0
 549 369 544 329 526 294 c 0
 488 217 432 183 346 183 c 0
 276 183 233 223 196 279 c 0
 150 347 136 427 136 508 c 0
EndSplineSet
EndChar

StartChar: _119
Encoding: 264 -1 22
Width: 615
VWidth: 0
Flags: W
LayerCount: 2
Fore
SplineSet
49 150 m 1
 64 151 130 151 145 150 c 0
 160 150 280 147 295 147 c 0
 302 147 333 149 339 150 c 1
 339 183 l 2
 339 184 337 186 336 187 c 0
 325 194 318 191 303 194 c 0
 254 205 245 237 244 283 c 0
 244 286 241 417 240 470 c 1
 240 470 240 473 240 474 c 0
 240 480 240 480 244 488 c 1
 251 488 283 488 290 488 c 0
 301 488 334 488 336 488 c 0
 362 487 403 489 424 466 c 0
 432 456 448 439 453 426 c 0
 462 404 456 378 484 378 c 0
 490 378 506 379 504 389 c 1
 504 407 504 489 504 506 c 1
 505 513 508 566 508 572 c 0
 508 577 506 606 504 613 c 0
 504 615 501 620 501 620 c 1
 468 620 l 2
 467 620 464 618 464 617 c 0
 463 614 458 593 457 591 c 0
 445 559 411 528 376 528 c 2
 244 528 l 1
 244 528 241 541 240 547 c 1
 240 547 240 549 240 550 c 0
 240 554 l 1
 241 559 243 579 244 583 c 1
 244 782 l 1
 438 782 l 1
 486 767 l 2
 488 766 504 751 508 745 c 0
 511 742 529 713 534 705 c 0
 542 690 544 675 563 675 c 0
 570 675 585 675 585 686 c 0
 585 691 585 713 585 717 c 0
 585 725 585 747 585 749 c 0
 585 757 582 799 581 807 c 0
 579 815 575 819 567 822 c 1
 527 822 342 822 303 822 c 0
 285 822 141 825 123 826 c 0
 122 826 112 826 109 826 c 0
 97 826 l 1
 89 825 53 823 46 822 c 1
 41 817 42 810 42 803 c 0
 42 773 76 788 97 774 c 0
 118 760 134 749 137 723 c 1
 139 715 141 686 141 683 c 2
 141 308 l 2
 141 264 142 210 90 194 c 0
 87 194 63 191 60 191 c 0
 44 188 45 177 42 161 c 1
 42 161 42 160 42 159 c 2
 42 158 l 1
 43 157 48 151 49 150 c 1
365 721 m 0
 363 721 363 717 365 717 c 0
 367 717 367 721 365 721 c 0
EndSplineSet
EndChar

StartChar: _120
Encoding: 265 -1 23
Width: 1361
VWidth: 0
Flags: W
LayerCount: 2
Fore
SplineSet
860 166 m 0
 860 160 860 145 868 143 c 0
 871 142 887 140 890 139 c 1
 895 139 936 140 941 139 c 1
 955 139 1070 136 1084 136 c 0
 1087 136 1111 136 1118 136 c 0
 1139 136 l 1
 1147 143 l 1
 1147 169 l 1
 1139 176 l 1
 1117 180 1094 181 1077 198 c 0
 1071 204 1063 214 1062 224 c 0
 1062 226 1063 244 1062 246 c 1
 1062 251 1059 289 1059 294 c 0
 1059 296 1058 334 1058 348 c 0
 1058 361 1059 398 1059 400 c 0
 1059 417 1060 431 1070 444 c 0
 1073 448 1086 466 1088 470 c 0
 1095 480 1100 492 1106 503 c 0
 1128 538 1182 622 1183 624 c 2
 1187 628 l 1
 1224 690 l 1
 1229 693 1233 705 1235 708 c 0
 1236 710 1249 726 1253 730 c 0
 1256 733 1263 741 1264 741 c 0
 1267 743 1298 759 1308 763 c 0
 1314 766 1327 768 1327 778 c 0
 1327 785 1326 803 1316 807 c 1
 1301 807 1231 807 1216 807 c 0
 1214 807 1197 811 1194 811 c 0
 1193 811 1158 811 1145 811 c 0
 1137 811 1103 811 1095 811 c 1
 1087 802 1087 795 1087 785 c 0
 1087 758 1112 768 1132 763 c 1
 1145 761 1151 747 1158 738 c 0
 1163 730 1165 724 1165 715 c 0
 1165 708 l 1
 1132 635 l 1
 1040 488 l 1
 1040 488 1038 488 1037 488 c 0
 1033 488 1032 488 1029 492 c 0
 1026 497 1016 512 1015 514 c 2
 912 705 l 2
 906 715 904 726 904 738 c 0
 904 761 927 763 945 767 c 0
 946 767 955 770 956 771 c 0
 977 774 978 769 978 794 c 0
 978 797 978 806 978 807 c 0
 976 813 962 815 960 815 c 2
 706 815 l 2
 700 815 699 801 699 796 c 0
 699 790 699 777 706 774 c 1
 734 770 754 766 769 741 c 0
 778 725 822 648 831 631 c 1
 835 628 l 1
 912 495 l 2
 914 493 922 483 923 481 c 0
 931 467 951 426 952 422 c 0
 953 420 955 384 956 371 c 0
 956 370 956 353 956 347 c 0
 956 341 956 324 956 323 c 0
 955 306 953 255 952 250 c 0
 951 235 941 206 927 198 c 0
 909 188 888 183 868 180 c 1
 860 177 860 172 860 166 c 0
204 147 m 1
 239 146 406 144 442 143 c 0
 443 143 458 143 462 143 c 0
 465 143 480 143 483 143 c 1
 489 147 490 157 490 163 c 0
 490 188 458 185 442 191 c 0
 426 197 407 216 398 228 c 1
 400 257 394 286 394 315 c 0
 394 318 394 326 394 327 c 0
 395 334 398 393 398 400 c 0
 398 445 398 656 398 701 c 1
 403 725 403 754 402 778 c 1
 405 782 l 1
 407 782 429 782 437 782 c 0
 510 782 559 783 600 719 c 0
 603 714 626 673 629 668 c 0
 630 667 632 665 633 664 c 1
 635 664 644 664 646 664 c 0
 652 664 661 663 666 668 c 1
 666 670 666 682 666 684 c 0
 666 688 666 700 666 701 c 0
 665 709 656 770 655 778 c 0
 654 786 658 807 648 811 c 1
 634 812 573 814 560 815 c 1
 532 815 400 815 372 815 c 1
 367 816 341 818 336 818 c 0
 330 819 286 818 281 818 c 0
 265 819 135 822 119 822 c 0
 118 822 97 822 90 822 c 0
 85 822 65 822 60 822 c 1
 57 820 54 815 53 811 c 0
 51 797 43 733 42 719 c 0
 42 718 42 704 42 699 c 0
 42 696 42 682 42 679 c 1
 47 672 56 671 63 671 c 0
 82 671 85 696 94 708 c 1
 118 746 144 780 193 782 c 0
 194 782 224 782 235 782 c 0
 253 782 280 784 299 778 c 1
 299 766 299 708 299 695 c 0
 299 674 299 617 299 613 c 0
 299 601 296 507 295 495 c 0
 294 405 296 320 288 231 c 0
 287 230 282 222 281 220 c 0
 280 219 274 207 273 206 c 0
 257 189 223 186 204 183 c 1
 195 180 196 165 196 157 c 0
 196 155 196 151 196 150 c 0
 197 149 202 146 204 147 c 1
EndSplineSet
EndChar

StartChar: _121
Encoding: 266 -1 24
Width: 617
VWidth: 0
Flags: W
LayerCount: 2
Fore
SplineSet
50 143 m 1
 130 145 210 139 290 139 c 0
 297 139 329 139 336 139 c 1
 344 145 344 154 344 162 c 0
 344 169 345 177 336 180 c 1
 295 181 255 194 245 239 c 1
 244 255 241 332 241 349 c 0
 241 352 241 402 241 420 c 0
 241 438 241 486 241 488 c 0
 241 495 245 548 245 554 c 0
 245 584 245 723 245 752 c 0
 245 754 247 765 248 767 c 0
 249 768 251 770 252 771 c 0
 269 775 283 774 300 774 c 0
 389 774 469 730 469 631 c 0
 469 610 469 597 461 576 c 0
 441 521 405 497 347 492 c 0
 344 492 321 488 318 488 c 0
 316 488 305 489 303 488 c 0
 299 486 288 475 288 468 c 0
 288 453 300 444 314 444 c 0
 321 444 352 444 358 444 c 0
 384 444 398 441 421 448 c 1
 421 448 427 451 428 451 c 0
 455 459 483 465 505 484 c 0
 513 491 549 525 556 532 c 1
 577 564 583 594 583 632 c 0
 583 733 506 801 406 811 c 1
 301 810 197 815 93 815 c 0
 85 815 66 815 65 815 c 2
 54 811 l 1
 54 778 l 2
 54 772 90 774 101 767 c 0
 104 766 111 760 112 760 c 0
 138 738 142 718 142 685 c 0
 142 681 142 666 142 664 c 0
 141 637 138 413 138 385 c 0
 138 376 138 299 138 290 c 0
 138 281 133 237 131 228 c 1
 119 200 97 193 68 187 c 0
 58 185 49 190 43 180 c 1
 43 178 42 169 42 167 c 0
 42 158 42 149 50 143 c 1
105 501 m 0
 103 501 103 497 105 497 c 0
 107 497 107 501 105 501 c 0
EndSplineSet
EndChar

StartChar: _122
Encoding: 267 -1 25
Width: 648
VWidth: 0
Flags: W
LayerCount: 2
Fore
SplineSet
52 143 m 1
 87 143 251 143 287 143 c 0
 293 143 346 140 353 139 c 1
 363 139 449 140 459 139 c 1
 474 139 543 137 558 136 c 1
 565 137 568 141 569 147 c 2
 598 264 l 1
 597 271 602 278 602 285 c 2
 602 286 l 1
 601 290 595 301 595 301 c 2
 594 301 587 302 584 302 c 0
 581 302 573 301 573 301 c 2
 572 300 561 290 558 286 c 0
 555 282 529 246 525 242 c 0
 519 234 500 218 492 213 c 0
 481 206 448 188 444 187 c 0
 442 186 401 181 386 180 c 0
 385 180 378 180 375 180 c 0
 346 180 316 185 287 183 c 1
 283 187 265 205 261 209 c 0
 260 210 258 216 257 217 c 0
 256 218 243 233 243 235 c 0
 242 238 243 265 243 268 c 1
 242 270 239 291 239 294 c 0
 239 295 241 300 243 301 c 1
 242 322 242 419 243 440 c 0
 243 445 245 465 246 470 c 0
 247 476 258 474 259 474 c 0
 262 474 271 473 272 473 c 0
 279 473 338 470 345 470 c 0
 384 468 432 473 448 429 c 0
 451 422 464 386 466 378 c 1
 470 374 l 1
 499 374 l 1
 507 382 l 1
 506 402 506 497 507 517 c 0
 507 523 510 567 510 572 c 0
 510 583 509 602 494 602 c 0
 487 602 482 601 474 598 c 1
 467 574 457 535 430 525 c 0
 400 513 371 510 338 510 c 0
 336 510 328 510 327 510 c 0
 304 511 250 514 250 514 c 1
 246 517 l 2
 246 518 246 537 246 545 c 0
 246 619 251 693 250 767 c 1
 278 772 305 771 334 771 c 0
 346 771 380 771 382 771 c 0
 387 770 418 768 426 767 c 0
 447 765 462 754 477 741 c 0
 479 740 484 735 485 734 c 2
 521 672 l 2
 525 666 532 664 538 664 c 2
 540 664 l 1
 545 665 558 668 558 668 c 1
 562 670 562 679 562 683 c 0
 562 685 562 689 562 690 c 0
 561 706 559 780 558 796 c 1
 554 801 549 806 543 807 c 0
 527 808 450 811 433 811 c 0
 426 811 294 811 244 811 c 0
 216 811 84 811 55 811 c 1
 50 806 51 794 51 788 c 0
 51 786 52 779 52 778 c 2
 55 774 l 1
 63 773 96 765 103 763 c 0
 104 763 109 760 110 760 c 0
 123 748 137 737 140 719 c 1
 141 702 143 623 143 606 c 0
 143 603 144 569 144 557 c 0
 144 544 143 512 143 510 c 0
 143 503 140 447 140 440 c 0
 139 411 139 275 140 246 c 0
 140 228 126 208 118 194 c 1
 112 186 105 184 96 183 c 0
 89 183 58 180 52 180 c 1
 43 178 44 168 44 161 c 0
 44 155 43 145 52 143 c 1
EndSplineSet
EndChar

StartChar: _128
Encoding: 268 -1 26
Width: 603
VWidth: 0
Flags: W
LayerCount: 2
Fore
SplineSet
95 137 m 1
 109 129 173 98 188 93 c 0
 199 89 254 77 267 75 c 0
 269 75 298 74 308 74 c 0
 391 74 467 113 515 181 c 0
 522 191 544 225 546 230 c 0
 547 234 560 274 563 287 c 0
 571 315 568 343 568 372 c 0
 568 385 568 418 568 419 c 0
 567 426 558 463 554 472 c 0
 538 517 508 562 471 592 c 1
 468 593 447 603 444 605 c 0
 434 610 425 617 413 618 c 0
 409 619 373 622 369 623 c 0
 368 623 356 623 352 623 c 0
 328 623 311 612 290 605 c 0
 289 605 282 605 281 605 c 0
 280 605 273 602 272 600 c 1
 266 597 220 564 214 561 c 1
 211 558 208 556 203 556 c 0
 200 556 199 557 197 561 c 0
 197 563 197 576 197 578 c 0
 197 614 201 649 201 685 c 0
 201 696 197 706 197 717 c 0
 197 718 197 719 197 720 c 0
 197 722 201 743 201 746 c 0
 201 752 201 798 201 804 c 0
 201 812 205 883 206 892 c 1
 206 892 206 896 206 897 c 0
 206 907 191 906 185 906 c 0
 182 906 175 905 175 905 c 2
 172 904 151 893 148 892 c 0
 113 878 74 870 38 857 c 1
 33 851 33 845 33 838 c 0
 33 813 89 804 104 781 c 1
 104 767 104 701 104 687 c 0
 104 587 103 488 100 389 c 0
 97 309 91 230 91 151 c 0
 91 145 90 142 95 137 c 1
267 534 m 1
 273 534 299 535 305 535 c 0
 323 535 346 536 365 530 c 0
 447 500 480 399 480 319 c 0
 480 292 477 267 471 238 c 0
 466 217 449 192 435 177 c 1
 403 139 378 123 328 123 c 0
 268 123 197 162 197 230 c 2
 197 490 l 2
 197 509 252 531 267 534 c 1
188 146 m 0
 187 143 184 143 184 146 c 1
 183 148 189 148 188 146 c 0
148 225 m 1
 166 225 l 1
 164 219 151 219 148 219 c 1
 148 225 l 1
501 479 m 0
 504 479 504 475 501 475 c 0
 499 475 499 479 501 479 c 0
338 563 m 0
 340 563 340 558 338 558 c 0
 336 558 336 563 338 563 c 0
184 594 m 0
 186 594 186 589 184 589 c 0
 181 589 181 594 184 594 c 0
157 669 m 0
 159 669 159 664 157 664 c 0
 155 664 155 669 157 669 c 0
153 819 m 0
 155 819 155 815 153 815 c 0
 150 815 150 819 153 819 c 0
EndSplineSet
EndChar

StartChar: _129
Encoding: 269 -1 27
Width: 900
VWidth: 0
Flags: W
LayerCount: 2
Fore
SplineSet
52 656 m 1
 57 653 81 640 85 637 c 0
 86 636 93 626 95 622 c 0
 100 613 113 587 114 584 c 2
 271 119 l 2
 271 118 274 114 275 114 c 0
 280 113 296 109 299 109 c 0
 311 109 328 116 332 128 c 2
 451 437 l 1
 461 447 l 1
 484 412 480 363 503 328 c 1
 570 119 l 2
 573 108 591 109 598 109 c 0
 620 109 636 118 636 143 c 1
 717 371 l 1
 744 414 749 466 765 513 c 0
 769 526 792 586 798 599 c 1
 804 608 813 619 822 627 c 0
 840 642 860 645 860 672 c 0
 860 688 853 694 836 694 c 2
 679 694 l 2
 673 694 674 673 674 672 c 0
 674 635 704 651 727 632 c 1
 729 629 736 619 736 618 c 2
 736 565 l 1
 689 418 l 2
 688 417 684 410 684 409 c 0
 682 403 667 357 665 352 c 0
 661 342 641 299 636 290 c 1
 635 286 632 285 629 285 c 0
 627 285 l 1
 617 304 l 1
 527 594 l 1
 527 594 527 599 527 601 c 0
 527 619 544 636 560 641 c 0
 581 648 603 645 603 675 c 0
 603 682 602 686 598 694 c 1
 564 694 404 698 370 698 c 0
 369 698 359 698 356 698 c 0
 355 698 337 700 337 694 c 2
 337 656 l 2
 337 655 344 652 347 651 c 0
 350 650 377 643 380 641 c 0
 383 640 396 626 399 622 c 0
 401 619 414 592 418 584 c 0
 421 577 434 540 437 532 c 1
 433 525 430 516 432 508 c 1
 404 428 l 1
 399 423 l 1
 394 409 367 346 361 333 c 0
 360 331 352 320 351 318 c 0
 346 310 342 280 329 280 c 2
 328 280 l 1
 214 608 l 2
 213 609 220 623 223 627 c 0
 225 630 235 640 237 641 c 0
 240 643 267 654 271 656 c 0
 276 658 276 660 276 665 c 0
 276 686 270 698 247 698 c 2
 62 698 l 1
 52 689 l 1
 52 656 l 1
EndSplineSet
EndChar

StartChar: _130
Encoding: 270 -1 28
Width: 755
VWidth: 0
Flags: W
LayerCount: 2
Fore
SplineSet
39 156 m 0
 39 145 37 127 52 126 c 0
 56 125 91 126 95 126 c 0
 114 125 264 122 282 121 c 1
 301 121 454 122 473 121 c 0
 483 121 563 117 573 117 c 0
 577 117 618 117 631 117 c 0
 641 117 667 117 668 117 c 2
 672 121 l 2
 673 122 682 152 686 165 c 1
 689 179 691 195 694 208 c 0
 701 236 712 262 712 291 c 0
 712 304 712 308 699 308 c 0
 689 308 679 308 672 299 c 0
 669 295 645 260 642 256 c 0
 627 238 608 230 594 213 c 1
 586 208 543 187 534 182 c 0
 532 182 523 179 521 178 c 0
 517 177 486 170 482 169 c 0
 481 169 474 165 473 165 c 0
 472 165 461 169 460 169 c 0
 401 173 357 167 299 187 c 1
 269 220 277 277 277 317 c 0
 277 472 281 626 286 781 c 0
 288 822 304 857 347 868 c 0
 348 868 359 872 360 872 c 0
 384 874 417 861 417 893 c 0
 417 908 413 919 399 924 c 1
 290 923 183 929 74 929 c 0
 55 929 48 924 48 905 c 0
 48 889 48 880 65 876 c 0
 69 876 96 873 100 872 c 0
 137 866 151 837 156 803 c 1
 156 786 156 709 156 692 c 0
 156 664 156 587 156 581 c 0
 156 549 152 284 152 252 c 0
 152 230 135 217 122 200 c 0
 115 191 99 185 91 182 c 0
 81 179 52 182 43 174 c 0
 40 170 39 162 39 156 c 0
EndSplineSet
EndChar

StartChar: _131
Encoding: 271 -1 29
Width: 786
VWidth: 0
Flags: W
LayerCount: 2
Fore
SplineSet
226 136 m 0
 292 100 367 83 443 83 c 0
 537 83 633 92 720 131 c 1
 738 151 731 166 733 193 c 0
 734 201 741 267 742 276 c 0
 742 277 742 289 742 293 c 0
 742 296 742 308 742 311 c 1
 738 316 731 320 725 320 c 0
 696 320 695 293 685 271 c 0
 680 259 669 239 659 228 c 0
 620 186 581 150 523 136 c 0
 522 135 515 136 514 136 c 0
 513 135 507 132 506 131 c 1
 500 131 470 131 464 131 c 0
 453 131 424 131 423 131 c 0
 421 131 409 134 405 136 c 0
 335 159 295 181 252 241 c 0
 239 259 208 305 208 306 c 2
 208 311 l 1
 177 411 l 1
 178 413 178 419 177 420 c 1
 177 424 173 452 173 455 c 0
 173 457 173 500 173 516 c 0
 173 532 173 575 173 578 c 0
 174 595 179 613 177 630 c 1
 180 643 198 701 204 713 c 1
 207 722 232 762 239 770 c 0
 242 774 279 811 291 823 c 0
 295 827 311 839 313 840 c 0
 324 846 364 865 370 867 c 0
 397 874 430 876 458 876 c 0
 574 876 650 794 689 691 c 1
 691 689 700 683 703 683 c 0
 711 682 729 685 733 696 c 1
 733 699 734 712 734 716 c 0
 734 720 733 734 733 735 c 0
 732 743 721 802 720 810 c 0
 720 813 721 837 720 840 c 0
 719 846 713 864 711 867 c 0
 711 868 698 874 694 875 c 0
 680 880 616 902 602 906 c 0
 600 906 591 906 589 906 c 0
 584 907 545 914 541 915 c 0
 518 918 502 919 482 919 c 0
 455 919 428 913 401 915 c 1
 388 912 330 896 317 893 c 0
 297 887 279 876 261 867 c 0
 251 861 239 859 230 853 c 0
 199 835 165 802 142 779 c 1
 142 777 139 771 138 770 c 0
 136 767 114 743 112 740 c 0
 107 733 92 709 90 705 c 0
 87 699 70 653 68 648 c 0
 58 624 42 575 42 551 c 2
 42 411 l 2
 42 408 48 375 51 363 c 0
 51 362 54 355 55 354 c 0
 56 352 63 331 64 328 c 0
 71 313 108 242 116 228 c 1
 124 218 164 178 173 171 c 0
 177 167 213 147 217 144 c 0
 218 143 224 137 226 136 c 0
681 186 m 0
 683 186 683 182 681 182 c 0
 679 182 679 186 681 186 c 0
EndSplineSet
EndChar

StartChar: _132
Encoding: 272 -1 30
Width: 521
VWidth: 0
Flags: W
LayerCount: 2
Fore
SplineSet
157 76 m 0
 156 76 156 72 157 72 c 0
 159 72 159 76 157 76 c 0
294 94 m 0
 292 94 292 91 294 91 c 0
 296 91 296 94 294 94 c 0
64 181 m 0
 64 133 139 109 176 100 c 0
 197 95 211 96 233 96 c 0
 285 96 309 99 357 118 c 0
 359 119 377 125 379 126 c 0
 427 151 465 188 465 244 c 0
 465 290 449 297 416 322 c 0
 415 323 410 328 409 329 c 0
 401 331 365 339 357 340 c 1
 357 340 354 340 353 340 c 0
 351 340 330 344 327 344 c 0
 321 344 271 344 265 344 c 0
 254 344 202 347 191 348 c 1
 183 352 165 365 165 375 c 0
 165 394 191 414 209 414 c 0
 223 414 233 410 250 410 c 0
 303 410 374 449 398 499 c 0
 407 519 409 544 409 566 c 0
 409 584 404 601 398 617 c 1
 402 624 410 625 417 625 c 0
 438 625 458 621 478 621 c 0
 483 621 l 1
 484 622 486 627 486 628 c 2
 486 677 l 1
 486 677 482 688 479 688 c 2
 398 688 l 1
 257 713 l 1
 257 713 256 713 255 713 c 2
 254 713 l 1
 240 712 204 706 202 706 c 0
 178 701 161 689 143 673 c 0
 137 668 122 653 120 651 c 0
 115 642 94 601 91 591 c 1
 91 587 90 566 90 562 c 0
 90 543 89 534 95 518 c 1
 98 507 109 481 109 481 c 1
 157 433 l 1
 158 431 l 1
 158 420 145 416 139 410 c 0
 132 404 111 383 109 381 c 0
 106 376 93 353 91 348 c 0
 91 347 90 341 90 339 c 0
 90 325 93 315 98 299 c 1
 108 297 108 291 117 285 c 0
 128 277 132 281 139 270 c 1
 114 239 64 227 64 181 c 0
135 194 m 0
 135 220 162 244 180 259 c 0
 181 260 186 262 187 262 c 2
 327 262 l 2
 330 262 345 260 350 259 c 0
 354 258 369 253 372 251 c 0
 374 250 382 245 383 244 c 0
 386 240 394 224 394 222 c 0
 394 217 389 193 387 189 c 0
 386 187 370 172 364 166 c 1
 364 166 359 163 357 163 c 0
 324 150 291 147 255 147 c 0
 246 147 222 148 220 148 c 0
 217 148 176 159 161 163 c 0
 148 166 135 180 135 194 c 0
124 272 m 0
 122 272 122 268 124 268 c 0
 126 268 126 272 124 272 c 0
28 285 m 0
 26 286 26 276 28 277 c 0
 30 278 30 284 28 285 c 0
176 547 m 0
 176 555 178 601 180 614 c 0
 183 650 222 670 254 670 c 0
 273 670 285 662 298 647 c 0
 325 616 324 578 324 538 c 0
 324 530 324 511 324 510 c 0
 323 505 315 482 313 477 c 0
 312 475 299 462 294 458 c 0
 284 450 265 451 253 451 c 0
 248 451 236 451 235 451 c 0
 234 451 229 454 228 455 c 0
 202 478 176 510 176 547 c 0
446 774 m 0
 444 774 444 771 446 771 c 0
 448 771 448 774 446 774 c 0
EndSplineSet
EndChar

StartChar: _133
Encoding: 273 -1 31
Width: 1153
VWidth: 0
Flags: W
LayerCount: 2
Fore
SplineSet
758 75 m 1
 867 77 976 71 1086 71 c 0
 1103 71 1106 80 1106 95 c 0
 1106 106 1107 115 1097 122 c 1
 1063 123 1023 139 1012 174 c 0
 999 215 994 249 988 292 c 0
 988 293 988 300 988 301 c 2
 965 456 l 2
 965 457 965 460 965 461 c 0
 963 472 952 554 951 565 c 0
 942 632 932 703 927 772 c 0
 927 773 927 793 927 800 c 0
 927 830 933 862 960 880 c 0
 981 894 1017 876 1017 911 c 0
 1017 920 1012 941 998 941 c 2
 786 941 l 1
 777 932 l 1
 777 877 767 819 753 767 c 0
 745 738 719 652 715 645 c 1
 711 635 l 1
 584 311 l 1
 573 348 552 382 541 419 c 0
 537 435 536 451 527 466 c 1
 447 720 l 1
 447 725 l 1
 439 745 406 840 400 861 c 0
 397 872 387 925 386 936 c 1
 384 940 376 946 372 946 c 2
 174 946 l 1
 165 941 l 2
 164 941 161 921 160 913 c 0
 160 912 160 909 160 908 c 0
 160 891 218 890 235 861 c 0
 237 859 243 839 245 833 c 1
 246 826 250 807 249 805 c 2
 217 555 l 1
 217 551 l 1
 169 264 l 2
 169 261 162 238 160 231 c 0
 160 230 156 222 155 221 c 0
 141 182 139 177 104 151 c 0
 103 150 100 146 99 146 c 0
 95 144 61 134 57 132 c 0
 47 127 47 124 47 116 c 0
 47 105 49 97 52 85 c 1
 76 84 188 80 212 80 c 0
 217 80 261 80 275 80 c 0
 315 80 l 1
 325 89 l 1
 325 127 l 2
 325 137 303 135 297 136 c 1
 289 139 269 145 268 146 c 0
 265 148 249 164 245 169 c 0
 228 191 230 219 230 244 c 0
 230 254 230 281 231 282 c 1
 231 286 235 312 235 315 c 0
 236 318 235 341 235 344 c 0
 237 357 242 360 240 372 c 1
 268 551 l 1
 268 560 l 1
 297 744 l 1
 302 749 l 1
 381 518 l 1
 388 508 386 502 391 489 c 0
 399 466 438 357 447 334 c 1
 443 323 454 321 457 311 c 2
 508 94 l 2
 513 75 533 75 549 75 c 0
 558 75 566 74 569 85 c 2
 697 452 l 2
 699 456 709 476 711 480 c 1
 711 480 711 484 711 485 c 0
 711 489 715 502 715 504 c 0
 720 517 757 613 767 640 c 0
 768 641 772 648 772 649 c 0
 776 662 792 721 795 734 c 1
 805 734 l 2
 806 734 812 695 814 678 c 0
 815 674 815 658 814 654 c 1
 852 372 l 1
 850 350 853 323 861 301 c 1
 861 193 l 2
 861 192 848 169 842 160 c 0
 838 153 826 144 819 141 c 0
 800 134 766 141 758 122 c 0
 755 116 753 103 753 94 c 0
 753 87 754 84 758 75 c 1
697 139 m 0
 694 139 694 134 697 134 c 0
 699 134 699 139 697 139 c 0
-47 426 m 0
 -49 426 -49 421 -47 421 c 0
 -45 421 -45 426 -47 426 c 0
EndSplineSet
EndChar

StartChar: _26
Encoding: 274 -1 32
Width: 733
VWidth: 0
Flags: W
LayerCount: 2
Fore
SplineSet
110 326 m 0
 110 310 110 293 106 277 c 0
 100 253 41 237 41 229 c 2
 41 199 l 2
 41 196 60 192 60 192 c 2
 62 192 l 2
 65 192 77 195 79 195 c 2
 271 195 l 2
 285 195 285 205 285 216 c 0
 285 241 280 238 257 243 c 0
 247 246 238 251 230 257 c 0
 224 261 210 273 209 274 c 0
 209 275 204 294 202 301 c 0
 201 307 199 323 199 325 c 2
 199 551 l 1
 195 576 195 596 195 621 c 0
 195 627 195 643 196 644 c 2
 199 647 l 1
 274 647 l 2
 290 647 288 673 288 683 c 0
 288 697 281 702 268 702 c 0
 264 702 255 702 254 702 c 0
 250 702 223 699 220 699 c 0
 217 699 203 701 199 702 c 0
 198 702 196 705 196 705 c 1
 195 712 195 745 195 752 c 0
 195 809 196 928 280 928 c 2
 281 928 l 1
 317 913 318 889 346 870 c 0
 351 867 370 857 374 856 c 2
 374 856 381 855 384 855 c 0
 386 855 394 856 394 856 c 1
 403 859 426 895 426 905 c 0
 426 944 386 967 353 976 c 1
 348 976 326 977 321 977 c 0
 295 977 278 977 254 969 c 0
 204 953 143 897 127 849 c 0
 126 845 116 809 113 798 c 0
 107 771 115 735 96 712 c 0
 92 708 86 700 79 699 c 1
 74 697 50 693 45 692 c 1
 37 686 38 676 38 668 c 0
 38 664 38 655 38 654 c 0
 38 652 41 647 41 647 c 1
 93 647 l 2
 96 647 104 645 106 640 c 1
 107 597 109 393 110 349 c 0
 110 347 110 331 110 326 c 0
346 195 m 1
 427 196 507 192 589 192 c 0
 595 192 603 192 606 199 c 0
 607 201 607 210 607 212 c 0
 607 246 595 239 569 243 c 0
 544 247 523 257 511 281 c 1
 510 289 507 324 507 332 c 0
 507 336 507 414 507 443 c 0
 507 460 507 538 507 555 c 0
 507 557 510 564 511 565 c 0
 514 570 528 589 531 592 c 0
 533 595 552 611 559 616 c 1
 565 622 573 627 583 627 c 1
 583 627 588 624 589 623 c 0
 614 608 618 572 653 572 c 0
 669 572 681 586 685 599 c 0
 687 605 695 632 696 637 c 1
 696 637 696 642 696 644 c 0
 696 671 668 699 644 709 c 1
 641 709 625 709 622 709 c 0
 602 709 585 708 569 695 c 0
 566 693 542 669 535 661 c 0
 532 658 523 646 521 644 c 0
 514 634 517 630 507 623 c 1
 504 624 l 1
 504 705 l 1
 500 712 l 2
 500 713 493 713 491 713 c 0
 460 713 429 692 401 682 c 0
 384 675 358 670 343 658 c 0
 338 654 336 646 336 640 c 2
 336 640 336 638 336 637 c 0
 338 634 350 622 353 620 c 0
 356 618 378 608 380 606 c 1
 385 604 411 589 411 586 c 2
 411 305 l 2
 411 267 397 248 360 243 c 0
 353 242 343 244 339 236 c 0
 335 228 336 224 336 214 c 0
 336 212 336 204 336 202 c 1
 338 199 343 196 346 195 c 1
387 697 m 0
 386 697 386 693 387 693 c 0
 389 693 389 697 387 697 c 0
593 762 m 0
 591 762 591 759 593 759 c 0
 595 759 595 762 593 762 c 0
541 861 m 0
 540 861 540 858 541 858 c 0
 543 858 543 861 541 861 c 0
EndSplineSet
EndChar

StartChar: _27
Encoding: 275 -1 33
Width: 534
VWidth: 0
Flags: W
LayerCount: 2
Fore
SplineSet
86 274 m 1
 93 265 132 227 141 219 c 0
 143 217 172 201 182 195 c 0
 206 183 232 181 259 181 c 0
 321 181 367 201 415 240 c 0
 420 244 436 260 439 264 c 0
 441 267 460 301 463 305 c 2
 463 305 465 308 466 308 c 0
 469 315 481 349 483 356 c 0
 486 368 496 418 497 428 c 0
 497 429 497 446 497 453 c 0
 497 459 497 478 497 479 c 0
 497 484 492 511 490 517 c 0
 489 520 481 542 480 545 c 0
 479 546 477 560 476 562 c 0
 475 566 468 583 466 586 c 0
 463 592 448 613 446 616 c 0
 436 628 400 664 394 668 c 0
 391 670 350 692 336 699 c 0
 315 709 282 706 260 706 c 0
 252 706 231 706 230 705 c 1
 228 705 211 701 206 699 c 0
 195 695 159 680 154 678 c 0
 151 677 135 665 130 661 c 0
 127 658 103 634 96 627 c 0
 94 624 84 612 83 610 c 0
 78 599 56 549 52 538 c 0
 39 506 38 464 38 431 c 0
 38 394 41 361 55 325 c 0
 63 305 80 292 86 274 c 1
137 479 m 0
 137 531 136 585 172 627 c 0
 195 655 228 661 262 661 c 0
 266 661 281 661 285 661 c 1
 296 656 304 648 315 644 c 1
 331 628 356 603 363 579 c 2
 391 483 l 1
 389 474 393 461 394 452 c 0
 394 450 398 430 398 428 c 0
 398 426 398 395 398 383 c 0
 398 331 396 266 343 240 c 0
 325 231 305 222 285 222 c 0
 258 222 235 236 216 253 c 0
 209 260 190 279 189 281 c 0
 183 289 166 325 165 332 c 2
 137 445 l 2
 137 446 137 470 137 479 c 0
EndSplineSet
EndChar

StartChar: _28
Encoding: 276 -1 34
Width: 920
VWidth: 0
Flags: W
LayerCount: 2
Fore
SplineSet
41 205 m 0
 41 187 58 190 72 190 c 2
 250 190 l 2
 255 190 279 189 284 188 c 1
 286 188 l 2
 293 188 298 193 298 200 c 0
 298 208 297 220 294 226 c 1
 291 236 278 234 270 236 c 0
 250 242 230 249 223 271 c 1
 215 291 220 320 219 339 c 0
 219 347 216 407 216 414 c 0
 216 418 215 475 215 497 c 0
 215 509 216 566 216 579 c 0
 217 592 275 620 288 620 c 1
 288 615 l 1
 294 615 288 620 294 623 c 0
 296 624 308 627 312 627 c 0
 313 627 331 627 337 627 c 0
 341 627 359 627 363 627 c 1
 395 617 404 593 414 565 c 1
 419 516 418 477 418 427 c 0
 418 384 418 341 414 298 c 0
 414 293 411 276 411 274 c 0
 406 257 391 245 377 236 c 0
 375 235 370 233 370 233 c 2
 368 233 357 236 356 236 c 2
 356 236 355 236 354 236 c 0
 351 236 339 230 339 226 c 2
 339 195 l 1
 342 192 l 2
 343 191 412 189 442 188 c 0
 445 188 490 188 507 188 c 0
 517 188 562 188 572 188 c 1
 574 189 583 191 586 192 c 0
 591 194 589 201 589 205 c 0
 589 245 559 228 538 250 c 0
 519 269 519 294 514 318 c 1
 514 586 l 1
 514 586 516 588 517 589 c 0
 525 594 549 609 551 610 c 0
 561 614 594 626 599 627 c 0
 600 627 615 627 620 627 c 0
 650 627 680 621 695 592 c 0
 698 587 708 565 709 562 c 0
 709 560 709 549 709 548 c 0
 709 543 712 522 712 517 c 0
 712 503 713 439 713 425 c 0
 713 400 712 336 712 332 c 0
 712 327 710 293 709 284 c 0
 708 280 706 268 705 267 c 0
 704 265 690 251 685 247 c 0
 684 246 679 243 678 243 c 0
 673 242 649 237 644 236 c 1
 636 232 633 222 633 214 c 0
 633 206 634 192 644 188 c 1
 647 188 661 188 664 188 c 0
 717 188 769 192 821 192 c 0
 832 192 l 2
 834 192 854 188 856 188 c 0
 858 188 870 191 873 192 c 0
 881 195 880 209 880 214 c 0
 880 240 874 233 853 240 c 0
 819 250 809 275 808 308 c 0
 808 315 805 373 805 380 c 0
 805 384 808 414 808 418 c 0
 808 421 808 477 808 498 c 0
 808 510 808 567 808 579 c 0
 805 653 739 709 666 709 c 0
 638 709 607 707 582 692 c 0
 554 675 526 654 503 630 c 0
 502 630 494 632 493 634 c 0
 492 635 487 646 486 647 c 0
 482 653 468 673 466 675 c 0
 451 690 425 704 404 709 c 1
 399 709 378 709 373 709 c 0
 325 709 303 698 264 671 c 0
 260 669 230 646 226 644 c 0
 225 643 220 641 219 640 c 1
 216 641 l 1
 216 699 l 2
 216 710 201 709 193 709 c 0
 184 709 173 702 164 699 c 0
 158 696 112 674 106 671 c 0
 87 663 67 659 48 651 c 0
 43 649 41 641 41 637 c 0
 41 627 71 614 79 610 c 0
 82 608 113 591 116 589 c 0
 117 589 120 586 120 586 c 1
 123 558 l 1
 123 322 l 2
 123 319 121 295 120 288 c 0
 115 256 90 243 62 236 c 0
 56 235 52 239 48 233 c 0
 48 232 45 225 44 223 c 0
 43 218 41 207 41 205 c 0
476 390 m 0
 478 390 478 388 476 387 c 0
 474 386 474 391 476 390 c 0
863 534 m 0
 864 536 851 536 853 534 c 0
 854 532 861 532 863 534 c 0
EndSplineSet
EndChar

StartChar: _29
Encoding: 277 -1 35
Width: 438
VWidth: 0
Flags: W
LayerCount: 2
Fore
SplineSet
14 45 m 0
 14 19 48 9 69 3 c 1
 74 3 99 3 105 3 c 0
 133 3 167 1 192 17 c 0
 207 27 277 72 291 82 c 1
 316 105 344 133 360 164 c 0
 365 175 387 225 391 236 c 0
 391 238 391 248 391 250 c 0
 391 252 394 268 394 271 c 0
 394 272 394 296 394 305 c 0
 394 358 384 391 350 432 c 1
 297 493 234 522 161 558 c 0
 154 561 154 564 154 570 c 0
 154 576 155 579 158 586 c 0
 164 599 181 633 182 634 c 2
 185 637 l 2
 186 637 194 637 198 637 c 0
 242 637 287 630 332 630 c 0
 348 630 375 629 384 647 c 2
 418 716 l 1
 418 716 419 723 419 725 c 0
 419 743 413 761 392 761 c 0
 369 761 365 734 343 726 c 1
 338 726 317 726 312 726 c 0
 280 726 249 733 218 733 c 0
 201 733 185 735 175 719 c 0
 174 718 172 710 172 709 c 0
 170 706 160 691 158 688 c 2
 96 565 l 1
 94 564 87 557 86 555 c 0
 85 554 83 542 82 541 c 0
 79 533 62 494 59 486 c 1
 58 485 l 1
 58 479 68 474 72 473 c 0
 78 471 125 454 130 452 c 0
 132 452 140 446 141 445 c 0
 143 444 159 439 161 438 c 0
 163 438 173 433 175 432 c 0
 176 431 184 425 185 425 c 0
 187 424 198 422 199 421 c 0
 202 420 219 410 223 408 c 0
 280 370 323 313 323 242 c 0
 323 236 322 220 322 219 c 0
 322 218 319 210 319 209 c 0
 319 207 319 200 319 199 c 0
 315 191 296 155 291 147 c 0
 281 130 256 102 237 96 c 0
 217 89 191 85 172 82 c 0
 171 82 167 82 166 82 c 0
 155 82 142 91 130 92 c 0
 127 93 103 92 100 92 c 0
 97 93 75 99 72 99 c 2
 72 99 66 100 64 100 c 0
 58 100 53 100 48 96 c 0
 34 83 14 66 14 45 c 0
254 937 m 0
 252 937 252 933 254 933 c 0
 255 933 255 937 254 937 c 0
EndSplineSet
EndChar

StartChar: _30
Encoding: 278 -1 36
Width: 332
VWidth: 0
Flags: W
LayerCount: 2
Fore
SplineSet
96 317 m 0
 96 301 96 261 96 260 c 2
 110 216 l 2
 110 215 125 200 130 195 c 0
 134 192 150 183 154 182 c 0
 170 178 187 178 203 178 c 0
 231 178 273 183 291 205 c 1
 292 208 292 217 292 219 c 0
 292 236 294 241 274 243 c 0
 270 244 234 246 230 247 c 0
 228 247 221 249 220 250 c 0
 214 253 200 263 199 264 c 0
 198 265 193 282 192 288 c 0
 191 293 189 312 189 315 c 2
 189 603 l 1
 192 637 l 1
 281 637 l 2
 292 637 292 652 292 659 c 0
 292 668 293 683 281 685 c 0
 276 686 252 688 247 688 c 0
 239 689 200 689 192 688 c 1
 189 692 l 1
 189 692 188 701 188 704 c 0
 188 724 192 744 192 764 c 0
 192 768 191 781 185 781 c 2
 158 781 l 1
 151 772 115 731 106 723 c 0
 104 720 85 703 79 699 c 0
 77 697 57 683 55 682 c 0
 51 678 39 666 38 664 c 2
 38 664 37 658 37 655 c 0
 37 653 38 645 38 644 c 0
 38 642 41 639 41 639 c 1
 89 639 l 1
 96 630 l 1
 96 630 99 596 100 582 c 1
 100 582 100 577 100 576 c 0
 100 574 100 569 100 568 c 0
 99 559 96 479 96 469 c 0
 96 466 100 438 100 435 c 0
 100 432 96 404 96 401 c 0
 96 396 96 337 96 317 c 0
EndSplineSet
EndChar

StartChar: _31
Encoding: 279 -1 37
Width: 538
VWidth: 0
Flags: W
LayerCount: 2
Fore
SplineSet
38 432 m 0
 38 362 48 308 96 257 c 0
 106 246 138 215 141 212 c 0
 142 211 169 197 178 192 c 0
 183 190 199 183 202 182 c 0
 220 176 245 178 261 178 c 0
 369 178 443 235 480 332 c 0
 481 335 489 363 490 366 c 0
 490 367 493 372 493 373 c 0
 495 384 499 434 500 445 c 1
 500 445 500 448 500 449 c 2
 500 452 l 1
 494 509 485 572 446 616 c 0
 404 663 347 702 283 702 c 0
 118 702 38 591 38 432 c 0
178 284 m 1
 177 289 170 313 168 318 c 0
 167 321 159 340 158 342 c 0
 157 346 152 363 151 366 c 0
 142 407 134 446 134 488 c 0
 134 538 137 573 165 616 c 1
 165 618 173 625 175 627 c 0
 200 647 221 658 254 658 c 0
 271 658 280 656 295 651 c 1
 298 651 l 1
 316 640 333 626 346 610 c 1
 351 601 370 560 374 551 c 0
 375 549 382 520 384 510 c 0
 394 464 401 415 401 366 c 0
 401 298 373 218 293 218 c 0
 263 218 237 227 216 247 c 0
 210 252 184 278 178 284 c 1
EndSplineSet
EndChar

StartChar: _32
Encoding: 280 -1 38
Width: 529
VWidth: 0
Flags: W
LayerCount: 2
Fore
SplineSet
34 224 m 0
 34 220 34 203 41 202 c 2
 96 199 l 1
 431 199 l 2
 438 199 440 204 442 209 c 0
 449 229 485 322 493 342 c 0
 493 343 493 345 493 346 c 0
 493 349 l 1
 492 351 487 356 486 356 c 2
 455 356 l 2
 454 356 450 351 448 349 c 0
 435 326 427 300 397 295 c 0
 386 293 352 288 349 288 c 0
 343 287 291 288 284 288 c 0
 281 288 259 284 257 284 c 0
 256 284 249 284 247 284 c 0
 244 284 237 284 236 284 c 0
 219 285 178 287 178 288 c 2
 171 291 l 1
 172 293 180 300 181 301 c 0
 188 307 243 347 250 353 c 0
 252 354 265 368 267 370 c 0
 268 371 279 376 281 377 c 0
 285 379 302 391 305 394 c 0
 368 446 442 495 442 585 c 0
 442 689 352 754 254 754 c 0
 235 754 217 746 198 743 c 0
 194 743 182 740 181 740 c 0
 177 738 153 726 147 723 c 0
 135 716 124 704 113 695 c 0
 108 692 94 680 92 678 c 0
 91 677 86 669 85 668 c 0
 83 665 71 653 68 651 c 0
 68 646 l 2
 68 635 78 623 89 623 c 2
 92 623 l 1
 138 651 175 672 230 672 c 0
 254 672 275 665 294 651 c 0
 330 625 343 612 343 564 c 0
 343 561 342 555 342 555 c 2
 341 551 332 519 329 510 c 0
 318 481 291 460 270 438 c 1
 267 432 l 1
 249 412 226 391 205 373 c 0
 178 351 147 330 120 308 c 0
 105 296 91 283 75 271 c 0
 59 258 34 248 34 224 c 0
157 618 m 0
 156 618 156 615 157 615 c 0
 159 615 159 618 157 618 c 0
EndSplineSet
EndChar

StartChar: _33
Encoding: 281 -1 39
Width: 529
VWidth: 0
Flags: W
LayerCount: 2
Fore
SplineSet
287 37 m 0
 287 32 287 21 288 21 c 2
 294 14 l 1
 389 14 l 1
 389 192 l 1
 389 192 392 197 394 199 c 0
 397 202 l 1
 496 202 l 2
 497 202 499 204 500 205 c 0
 501 208 503 215 503 216 c 2
 503 267 l 1
 496 274 l 1
 489 274 453 274 445 274 c 0
 440 274 399 277 394 277 c 0
 387 277 l 1
 386 278 383 283 383 284 c 2
 383 753 l 1
 331 753 l 1
 75 349 l 1
 72 346 l 1
 20 260 l 1
 20 260 18 233 17 223 c 0
 17 222 17 213 17 210 c 0
 17 202 l 1
 24 199 l 1
 288 199 l 1
 291 192 l 2
 291 190 291 165 291 156 c 0
 291 116 287 77 287 37 c 0
500 101 m 0
 498 101 498 98 500 98 c 0
 502 98 502 101 500 101 c 0
85 282 m 0
 85 284 l 1
 243 538 l 2
 243 539 246 543 246 545 c 1
 257 561 284 599 284 599 c 1
 288 599 l 1
 288 599 293 578 294 568 c 1
 294 567 l 2
 294 565 l 2
 294 562 291 548 291 545 c 2
 291 284 l 1
 284 277 l 1
 241 279 200 274 157 274 c 0
 151 274 l 2
 145 274 104 277 99 277 c 1
 95 278 85 276 85 282 c 0
62 784 m 0
 62 786 58 786 58 784 c 0
 59 782 61 782 62 784 c 0
188 813 m 0
 187 813 187 810 188 810 c 0
 190 810 190 813 188 813 c 0
199 829 m 0
 199 831 195 831 195 829 c 0
 196 827 198 827 199 829 c 0
EndSplineSet
EndChar

StartChar: _34
Encoding: 282 -1 40
Width: 599
VWidth: 0
Flags: W
LayerCount: 2
Fore
SplineSet
42 41 m 1
 42 14 l 2
 42 11 53 7 53 7 c 1
 53 7 62 7 66 7 c 0
 116 7 166 10 216 10 c 0
 237 10 259 7 280 7 c 0
 282 7 291 7 292 7 c 0
 301 9 300 17 300 23 c 0
 300 56 282 40 258 48 c 0
 231 57 211 80 210 110 c 0
 210 112 210 145 210 156 c 0
 210 164 210 186 210 188 c 2
 214 199 l 1
 214 199 219 199 221 199 c 0
 223 199 230 199 231 199 c 0
 236 198 277 189 282 188 c 0
 284 188 307 188 315 188 c 0
 352 188 391 194 423 212 c 0
 427 215 463 233 467 236 c 0
 470 239 499 270 508 281 c 0
 510 284 520 298 522 301 c 0
 526 308 538 335 539 339 c 0
 544 354 558 407 560 414 c 0
 560 415 560 433 560 441 c 0
 560 522 550 582 498 647 c 0
 495 651 483 663 481 664 c 0
 478 667 442 691 429 699 c 0
 428 699 423 702 423 702 c 1
 418 703 382 708 378 709 c 0
 377 709 366 712 364 712 c 2
 363 712 l 2
 361 712 l 1
 347 709 309 699 306 699 c 1
 278 689 252 670 231 651 c 0
 225 646 211 634 210 634 c 2
 207 634 l 1
 200 668 l 1
 208 671 207 687 207 694 c 0
 207 703 204 709 193 709 c 0
 190 709 l 1
 161 700 132 687 104 678 c 0
 103 677 99 672 97 671 c 1
 97 671 91 671 90 671 c 0
 73 667 39 658 39 635 c 0
 39 627 45 624 53 620 c 0
 61 615 102 593 111 589 c 1
 114 586 l 2
 115 585 117 494 118 455 c 0
 118 439 118 362 118 346 c 1
 122 331 121 326 121 312 c 0
 121 308 121 296 121 295 c 0
 121 263 118 117 118 86 c 1
 108 54 74 47 46 45 c 1
 42 41 l 1
206 495 m 0
 206 507 207 563 207 575 c 1
 214 605 288 627 314 627 c 0
 323 627 l 1
 327 626 360 619 371 616 c 0
 389 612 402 600 416 589 c 0
 417 588 422 583 423 582 c 0
 463 532 481 472 481 407 c 0
 481 349 454 278 402 247 c 0
 386 237 367 226 347 226 c 0
 330 226 312 231 296 236 c 0
 278 242 267 242 251 253 c 1
 239 263 231 279 224 291 c 0
 215 306 212 331 210 346 c 0
 206 392 206 449 206 495 c 0
433 327 m 0
 431 327 431 324 433 324 c 0
 435 324 435 327 433 327 c 0
EndSplineSet
EndChar

StartChar: _35
Encoding: 283 -1 41
Width: 529
VWidth: 0
Flags: W
LayerCount: 2
Fore
SplineSet
46 342 m 0
 49 337 60 313 63 308 c 0
 106 239 169 185 254 185 c 0
 314 185 396 217 433 267 c 0
 460 303 477 347 488 390 c 0
 493 410 492 437 492 456 c 0
 492 479 494 493 488 514 c 0
 486 522 471 567 468 579 c 0
 467 580 465 585 464 586 c 0
 434 633 402 673 348 695 c 0
 327 704 305 707 283 712 c 1
 281 712 l 2
 241 712 204 703 166 688 c 0
 165 688 153 681 149 678 c 0
 127 663 107 650 91 630 c 1
 56 571 36 515 36 446 c 0
 36 411 41 379 46 346 c 0
 46 345 46 343 46 342 c 0
135 442 m 1
 135 558 l 2
 135 560 140 577 142 582 c 0
 163 633 197 665 254 665 c 0
 295 665 313 647 341 616 c 0
 342 615 347 608 348 606 c 0
 379 549 390 486 396 421 c 0
 396 420 396 398 396 390 c 0
 396 380 396 354 396 353 c 0
 396 351 392 337 392 336 c 0
 392 335 392 326 392 325 c 0
 382 263 341 229 280 229 c 0
 266 229 258 229 245 236 c 0
 241 239 214 258 207 264 c 0
 177 288 165 329 152 363 c 0
 152 365 149 374 149 377 c 2
 149 377 149 383 149 384 c 0
 147 392 138 433 135 442 c 1
255 659 m 0
 253 659 253 656 255 656 c 0
 257 656 257 659 255 659 c 0
255 717 m 0
 253 717 253 714 255 714 c 0
 257 714 257 717 255 717 c 0
187 735 m 0
 185 735 185 731 187 731 c 0
 188 731 188 735 187 735 c 0
183 738 m 0
 182 738 182 735 183 735 c 0
 185 735 185 738 183 738 c 0
EndSplineSet
EndChar

StartChar: _36
Encoding: 284 -1 42
Width: 317
VWidth: 0
Flags: W
LayerCount: 2
Fore
SplineSet
167 163 m 0
 165 163 165 159 167 159 c 0
 168 159 168 163 167 163 c 0
33 207 m 4
 33 205 36 195 40 195 c 6
 283 195 l 6
 287 195 287 207 287 209 c 4
 287 217 285 229 276 233 c 4
 274 234 251 239 249 240 c 4
 229 247 217 272 215 291 c 5
 214 327 211 495 211 531 c 4
 211 534 211 564 211 573 c 4
 211 614 215 655 215 696 c 4
 215 707 207 709 197 709 c 4
 192 709 188 710 184 705 c 5
 54 661 l 6
 43 657 44 640 44 634 c 5
 50 634 l 5
 119 596 l 6
 121 595 125 588 125 586 c 6
 125 336 l 6
 125 330 123 301 122 295 c 4
 114 244 85 242 40 236 c 4
 32 234 33 213 33 207 c 4
105 919 m 4
 105 886 126 860 161 860 c 4
 176 860 196 867 204 880 c 4
 210 889 218 904 218 916 c 4
 218 953 192 983 153 983 c 4
 119 983 105 948 105 919 c 4
EndSplineSet
EndChar

StartChar: _37
Encoding: 285 -1 43
Width: 616
VWidth: 0
Flags: W
LayerCount: 2
Fore
SplineSet
38 210 m 0
 38 202 l 1
 39 200 43 195 45 195 c 2
 285 195 l 1
 285 195 288 198 288 199 c 2
 288 199 288 206 288 209 c 0
 288 216 290 233 281 236 c 1
 248 243 215 255 209 291 c 1
 208 305 206 370 206 384 c 0
 206 388 205 457 205 483 c 0
 205 498 206 567 206 582 c 1
 209 599 226 608 240 616 c 0
 243 618 265 628 271 630 c 0
 276 632 293 637 295 637 c 0
 296 637 311 637 317 637 c 0
 324 637 342 637 343 637 c 0
 380 635 412 589 412 555 c 2
 412 428 l 1
 413 416 415 358 415 346 c 0
 415 337 412 293 411 284 c 1
 403 267 397 250 377 243 c 0
 372 241 348 237 343 236 c 1
 337 232 339 221 339 216 c 0
 339 214 339 204 339 202 c 1
 342 199 346 196 350 195 c 1
 356 195 387 195 394 195 c 0
 405 195 436 195 439 195 c 0
 459 196 555 198 576 199 c 0
 581 199 579 211 579 212 c 0
 579 218 580 230 572 233 c 0
 570 234 551 239 548 240 c 0
 537 243 524 254 517 264 c 0
 505 282 504 308 504 329 c 1
 503 346 504 483 504 500 c 0
 504 510 501 565 500 579 c 0
 500 583 498 600 497 603 c 0
 480 671 430 713 358 713 c 0
 306 713 262 673 223 647 c 0
 222 647 217 644 216 644 c 0
 214 642 207 635 206 634 c 1
 206 705 l 2
 206 711 193 709 193 709 c 2
 191 709 186 709 185 709 c 2
 45 651 l 2
 44 650 39 646 38 644 c 1
 38 644 38 643 38 642 c 0
 38 639 39 636 41 634 c 0
 48 630 79 610 86 606 c 0
 93 602 108 593 113 586 c 1
 117 557 117 540 117 512 c 0
 117 507 117 484 117 479 c 1
 116 479 113 474 113 473 c 0
 113 472 117 466 117 466 c 1
 117 463 117 444 117 442 c 0
 117 434 120 368 120 360 c 0
 120 359 120 357 120 356 c 0
 120 353 l 1
 118 323 119 273 93 250 c 0
 70 229 38 248 38 210 c 0
EndSplineSet
EndChar

StartChar: _38
Encoding: 286 -1 44
Width: 293
VWidth: 0
Flags: W
LayerCount: 2
Fore
SplineSet
90 5 m 0
 89 5 89 2 90 2 c 0
 92 2 92 5 90 5 c 0
49 183 m 0
 48 183 48 180 49 180 c 0
 51 180 51 183 49 183 c 0
80 284 m 1
 82 247 93 220 121 195 c 0
 122 194 127 192 128 192 c 0
 132 191 166 186 176 185 c 1
 176 185 178 185 179 185 c 0
 208 185 231 190 258 199 c 0
 264 201 278 207 279 216 c 0
 279 217 279 230 279 234 c 0
 279 237 279 246 279 247 c 2
 272 253 l 1
 214 253 l 2
 212 253 198 261 193 264 c 0
 185 269 179 284 176 291 c 1
 175 323 173 472 173 503 c 0
 173 507 172 541 172 552 c 0
 172 584 172 604 176 637 c 0
 176 639 181 643 183 644 c 1
 183 644 186 644 187 644 c 0
 207 644 226 640 246 640 c 0
 250 640 265 640 268 640 c 1
 274 644 279 651 279 658 c 0
 279 661 276 680 275 685 c 0
 274 694 267 695 258 695 c 2
 179 695 l 1
 173 699 l 1
 173 699 172 705 172 708 c 0
 172 732 176 756 176 779 c 0
 176 781 l 1
 175 783 170 788 169 788 c 2
 142 788 l 2
 141 788 137 783 135 781 c 0
 133 778 117 756 114 753 c 0
 107 746 78 717 73 712 c 0
 69 709 30 682 25 678 c 0
 18 672 15 666 15 657 c 0
 15 652 18 642 25 642 c 2
 77 642 l 1
 77 642 80 639 80 637 c 0
 81 633 83 619 83 616 c 0
 83 610 80 561 80 555 c 0
 80 550 80 455 80 420 c 0
 80 399 80 304 80 284 c 1
EndSplineSet
EndChar

StartChar: _39
Encoding: 287 -1 45
Width: 255
VWidth: 0
Flags: W
LayerCount: 2
Fore
SplineSet
17 32 m 0
 17 19 24 10 39 10 c 0
 78 10 128 25 157 51 c 0
 202 92 232 132 236 192 c 0
 236 193 237 214 237 221 c 0
 237 250 234 283 219 308 c 0
 197 345 169 377 124 377 c 0
 105 377 87 376 72 363 c 0
 57 350 47 338 47 318 c 0
 47 292 55 249 89 247 c 0
 93 246 123 247 127 247 c 0
 160 244 168 208 168 181 c 0
 168 139 151 90 106 79 c 0
 87 74 67 74 48 68 c 0
 45 68 28 60 24 58 c 0
 23 58 21 55 20 55 c 0
 17 46 17 41 17 32 c 0
222 635 m 0
 221 635 221 632 222 632 c 0
 224 632 224 635 222 635 c 0
EndSplineSet
EndChar

StartChar: _40
Encoding: 288 -1 46
Width: 461
VWidth: 0
Flags: W
LayerCount: 2
Fore
SplineSet
121 98 m 0
 120 98 120 94 121 94 c 0
 123 94 123 98 121 98 c 0
39 132 m 0
 38 132 38 128 39 128 c 0
 41 128 41 132 39 132 c 0
29 450 m 0
 29 396 35 342 63 295 c 0
 64 293 76 279 77 277 c 0
 92 257 107 238 128 223 c 0
 131 221 153 210 156 209 c 0
 167 203 177 195 190 192 c 0
 198 190 234 183 241 182 c 0
 242 182 244 181 245 181 c 2
 248 182 l 1
 263 184 306 191 310 192 c 0
 361 203 403 255 433 295 c 0
 437 300 437 303 437 309 c 0
 437 315 l 1
 435 318 423 330 419 332 c 1
 405 329 398 312 385 305 c 0
 351 285 325 274 286 274 c 0
 269 274 l 1
 264 275 229 286 224 288 c 0
 200 295 181 311 163 329 c 0
 156 336 151 348 145 356 c 0
 144 358 133 375 132 377 c 0
 130 380 125 389 125 390 c 0
 121 403 112 446 111 452 c 0
 111 453 111 472 111 479 c 0
 111 487 111 509 111 510 c 0
 112 515 118 553 118 558 c 0
 118 568 l 1
 119 571 130 587 132 589 c 0
 142 605 151 621 166 634 c 0
 167 634 172 636 173 637 c 0
 174 638 179 646 180 647 c 0
 180 648 183 651 183 651 c 1
 205 661 229 665 253 665 c 0
 273 665 295 662 313 651 c 0
 317 648 329 636 330 634 c 2
 358 572 l 2
 362 564 377 558 385 558 c 0
 421 558 433 589 433 620 c 0
 433 650 414 665 392 685 c 0
 372 703 342 704 317 709 c 0
 316 709 307 712 306 712 c 1
 306 713 290 713 284 713 c 0
 278 713 263 713 262 712 c 0
 261 712 250 709 248 709 c 0
 247 709 239 709 238 709 c 0
 227 706 180 692 169 688 c 0
 140 678 118 659 97 637 c 1
 97 635 95 628 94 627 c 0
 94 626 88 624 87 623 c 2
 87 623 84 621 84 620 c 0
 80 614 68 597 67 596 c 0
 41 552 29 501 29 450 c 0
317 620 m 0
 315 620 315 616 317 616 c 0
 319 617 319 619 317 620 c 0
EndSplineSet
EndChar

StartChar: _41
Encoding: 289 -1 47
Width: 500
VWidth: 0
Flags: W
LayerCount: 2
Fore
SplineSet
41 317 m 0
 41 258 82 212 137 195 c 0
 140 194 152 192 154 192 c 0
 160 192 194 197 202 199 c 0
 232 205 261 234 284 250 c 0
 287 252 289 254 293 254 c 0
 295 254 296 253 298 250 c 0
 299 248 307 231 308 229 c 0
 313 224 332 204 336 202 c 0
 345 196 359 195 370 195 c 0
 389 195 416 202 431 216 c 1
 439 222 455 239 455 240 c 2
 455 284 l 2
 455 289 449 288 447 288 c 0
 435 288 426 280 414 280 c 0
 395 280 392 305 390 318 c 1
 390 345 387 470 387 497 c 0
 387 513 387 590 387 606 c 0
 383 673 329 708 267 712 c 0
 266 713 248 713 241 713 c 0
 168 713 58 679 58 589 c 0
 58 579 57 558 62 548 c 0
 62 547 74 527 79 521 c 1
 81 517 85 515 89 514 c 1
 110 517 161 535 161 562 c 0
 161 582 140 594 140 614 c 0
 140 620 140 629 144 634 c 0
 163 658 184 665 215 665 c 0
 240 665 254 656 270 637 c 1
 295 610 292 573 292 538 c 0
 292 531 291 509 291 507 c 1
 288 503 l 1
 123 435 l 1
 123 435 115 430 113 428 c 2
 113 428 110 425 109 425 c 0
 67 399 41 371 41 317 c 0
137 338 m 0
 137 342 l 1
 138 346 142 365 144 370 c 0
 144 371 146 376 147 377 c 0
 150 380 164 394 168 397 c 0
 178 404 229 433 240 438 c 0
 245 441 271 453 277 455 c 0
 279 455 289 453 291 452 c 0
 292 452 294 449 294 449 c 1
 294 325 l 1
 294 325 292 320 291 318 c 0
 268 289 246 270 207 270 c 0
 171 270 137 300 137 338 c 0
EndSplineSet
EndChar

StartChar: _42
Encoding: 290 -1 48
Width: 402
VWidth: 0
Flags: W
LayerCount: 2
Fore
SplineSet
42 330 m 0
 42 325 42 313 42 312 c 0
 43 307 46 268 46 264 c 0
 46 262 45 245 46 243 c 0
 47 241 56 232 60 229 c 0
 62 227 87 214 90 212 c 0
 92 211 99 203 101 202 c 1
 107 202 l 1
 136 192 153 181 185 181 c 0
 188 181 196 181 197 182 c 0
 211 184 259 193 265 195 c 0
 272 197 301 212 306 216 c 0
 311 219 337 246 344 253 c 0
 346 256 355 272 357 277 c 0
 366 297 365 324 365 345 c 0
 365 351 365 366 364 366 c 1
 364 369 349 400 344 411 c 0
 333 432 315 445 296 459 c 0
 288 464 262 481 258 483 c 0
 253 486 226 495 221 497 c 0
 220 498 215 503 214 503 c 0
 204 510 177 524 176 524 c 2
 173 524 l 2
 172 524 148 548 138 558 c 0
 134 563 122 579 121 586 c 1
 121 586 121 595 121 598 c 0
 121 601 121 609 121 610 c 0
 122 614 132 636 135 640 c 0
 149 663 177 668 202 668 c 0
 224 668 246 655 262 640 c 0
 285 619 299 582 306 551 c 1
 312 548 315 548 320 548 c 0
 327 548 340 548 340 558 c 2
 340 664 l 2
 340 673 280 697 268 699 c 0
 263 700 219 708 214 709 c 0
 213 709 207 709 204 709 c 0
 165 709 137 700 101 685 c 1
 85 664 62 663 53 634 c 0
 49 623 40 592 39 589 c 2
 39 589 38 580 38 578 c 0
 38 574 39 566 39 565 c 0
 39 562 44 546 46 541 c 0
 78 456 147 441 217 397 c 0
 244 381 262 367 282 342 c 0
 284 341 288 331 289 329 c 1
 289 326 289 310 289 307 c 0
 289 301 289 285 289 284 c 0
 288 271 259 234 244 229 c 0
 243 229 235 230 234 229 c 0
 220 227 207 222 193 222 c 0
 149 222 99 286 90 325 c 0
 89 331 84 357 84 363 c 1
 81 367 73 370 70 370 c 0
 66 370 49 365 46 363 c 1
 42 351 42 342 42 330 c 0
279 491 m 0
 277 491 277 488 279 488 c 0
 280 488 280 491 279 491 c 0
159 625 m 0
 157 625 157 622 159 622 c 0
 161 622 161 625 159 625 c 0
EndSplineSet
EndChar

StartChar: _43
Encoding: 291 -1 49
Width: 318
VWidth: 0
Flags: W
LayerCount: 2
Fore
SplineSet
91 357 m 0
 91 338 91 290 91 288 c 0
 91 280 94 254 94 250 c 1
 95 248 105 226 108 219 c 1
 108 219 111 216 112 216 c 0
 117 212 136 197 139 195 c 0
 151 187 168 188 182 188 c 0
 197 188 l 1
 205 189 241 194 249 195 c 1
 262 204 280 201 290 216 c 1
 290 218 290 229 290 231 c 0
 290 247 292 259 273 260 c 0
 268 261 229 260 225 260 c 0
 204 261 187 281 187 301 c 2
 187 616 l 1
 186 618 184 625 184 627 c 0
 184 636 184 647 195 647 c 0
 197 647 l 2
 201 647 234 644 238 644 c 0
 250 644 278 646 279 647 c 2
 286 654 l 1
 286 688 l 2
 286 691 275 699 273 699 c 2
 190 699 l 1
 184 702 l 2
 183 702 183 714 183 718 c 0
 183 735 187 751 187 767 c 0
 187 774 186 781 184 788 c 0
 182 793 175 791 171 791 c 0
 162 791 158 791 149 784 c 1
 142 776 109 737 101 729 c 0
 99 728 83 714 81 712 c 0
 80 712 78 709 77 709 c 0
 64 699 39 690 29 675 c 0
 26 670 26 665 26 659 c 0
 26 650 29 645 40 644 c 0
 46 643 78 643 84 644 c 1
 93 640 94 629 94 621 c 0
 94 533 91 445 91 357 c 0
221 639 m 0
 219 639 219 635 221 635 c 0
 223 635 223 639 221 639 c 0
EndSplineSet
EndChar

StartChar: _44
Encoding: 292 -1 50
Width: 404
VWidth: 0
Flags: W
LayerCount: 2
Fore
SplineSet
46 240 m 1
 51 224 66 223 80 216 c 0
 81 215 89 209 90 209 c 0
 100 204 136 190 142 188 c 0
 154 184 174 185 187 185 c 0
 250 185 300 201 340 250 c 0
 360 274 365 303 365 333 c 0
 365 362 362 395 340 418 c 0
 331 428 304 454 303 455 c 2
 169 531 l 1
 166 534 l 2
 164 535 153 543 152 545 c 0
 134 562 121 575 121 600 c 0
 121 626 140 656 166 664 c 0
 175 667 192 668 202 668 c 0
 226 668 237 660 255 644 c 0
 268 632 278 623 286 606 c 0
 293 590 297 551 323 551 c 0
 328 551 336 550 340 555 c 1
 341 559 343 578 344 582 c 1
 344 584 l 1
 344 584 344 585 344 586 c 0
 343 588 341 610 340 613 c 1
 340 621 340 660 340 668 c 1
 330 681 317 683 303 688 c 0
 300 689 281 698 279 699 c 0
 270 702 262 700 255 705 c 1
 247 707 211 711 203 712 c 2
 203 712 199 713 198 713 c 0
 146 713 86 691 60 644 c 0
 48 624 39 604 39 581 c 0
 39 534 71 483 111 459 c 0
 127 449 201 406 217 397 c 1
 220 391 235 388 241 384 c 0
 248 378 272 356 275 353 c 0
 287 341 289 324 289 308 c 0
 289 254 255 226 202 226 c 0
 150 226 111 269 94 315 c 0
 88 330 93 370 68 370 c 0
 61 370 46 371 42 363 c 1
 42 358 42 333 42 327 c 0
 42 318 42 293 42 291 c 0
 43 283 45 247 46 240 c 1
EndSplineSet
EndChar

StartChar: _45
Encoding: 293 -1 51
Width: 598
VWidth: 0
Flags: W
LayerCount: 2
Fore
SplineSet
143 142 m 0
 141 142 141 139 143 139 c 0
 144 139 144 142 143 142 c 0
33 433 m 2
 33 432 l 1
 39 414 38 394 43 377 c 0
 56 333 74 290 105 257 c 0
 125 236 144 211 173 202 c 0
 180 200 218 193 228 192 c 0
 230 192 245 191 250 191 c 0
 255 191 269 192 269 192 c 2
 273 192 306 204 317 209 c 0
 340 218 361 240 379 253 c 0
 388 260 390 259 396 267 c 1
 399 264 l 2
 400 263 400 257 400 254 c 0
 400 238 396 223 396 207 c 0
 396 199 399 191 410 192 c 0
 412 192 425 198 427 199 c 0
 441 202 505 216 519 219 c 0
 520 219 522 219 523 219 c 0
 529 221 551 225 554 226 c 0
 557 227 562 230 564 233 c 1
 564 235 564 246 564 248 c 0
 564 257 566 268 557 274 c 1
 546 270 538 270 526 270 c 0
 524 270 516 270 516 271 c 1
 514 271 504 278 502 281 c 0
 500 283 496 293 495 295 c 2
 492 356 l 1
 492 969 l 2
 492 977 492 989 482 990 c 0
 481 990 472 990 468 990 c 0
 466 990 456 990 454 990 c 0
 442 984 385 960 372 955 c 0
 369 954 344 949 341 949 c 1
 339 948 332 946 331 945 c 0
 328 944 321 939 321 938 c 2
 321 914 l 1
 330 910 370 891 379 887 c 0
 390 882 396 876 396 863 c 2
 396 716 l 2
 396 711 390 712 388 712 c 0
 375 712 368 716 351 719 c 1
 335 723 314 726 297 726 c 0
 231 726 176 694 125 654 c 0
 122 652 98 628 91 620 c 0
 91 619 88 614 88 613 c 0
 87 612 82 607 81 606 c 0
 67 580 53 550 47 521 c 0
 41 491 42 463 33 435 c 1
 33 435 33 434 33 433 c 2
128 483 m 0
 128 489 129 506 129 507 c 0
 129 510 134 536 136 545 c 0
 137 553 141 554 139 562 c 1
 142 569 156 600 160 606 c 0
 179 639 211 656 245 668 c 0
 255 671 263 675 275 675 c 2
 276 675 l 1
 286 672 315 665 317 664 c 0
 360 651 396 608 396 562 c 0
 396 538 396 428 396 404 c 0
 396 399 399 355 399 349 c 2
 399 349 400 343 400 342 c 0
 400 329 391 321 382 312 c 1
 374 307 336 288 328 284 c 0
 316 279 311 280 297 280 c 0
 249 280 209 296 177 332 c 0
 176 333 171 341 170 342 c 0
 146 389 128 429 128 483 c 0
362 865 m 0
 360 865 360 861 362 861 c 0
 363 861 363 865 362 865 c 0
EndSplineSet
EndChar

StartChar: _46
Encoding: 294 -1 52
Width: 324
VWidth: 0
Flags: W
LayerCount: 2
Fore
SplineSet
43 205 m 1
 64 206 165 206 187 205 c 0
 194 205 230 203 238 202 c 1
 235 202 l 1
 241 205 l 1
 286 205 l 1
 286 240 l 1
 286 240 284 243 283 243 c 0
 280 244 261 249 259 250 c 0
 212 267 214 306 214 350 c 0
 214 360 214 391 214 394 c 0
 214 406 215 461 216 473 c 1
 216 486 l 1
 214 678 l 1
 215 682 218 701 218 705 c 0
 218 718 213 723 202 723 c 0
 201 723 198 723 197 723 c 0
 162 711 139 700 108 688 c 0
 107 688 102 685 101 685 c 0
 100 685 92 685 91 685 c 0
 85 683 61 673 57 671 c 0
 55 670 47 663 46 661 c 1
 46 661 46 659 46 658 c 0
 46 649 54 642 60 637 c 0
 63 635 82 623 87 620 c 0
 92 617 116 605 122 603 c 1
 125 596 l 1
 125 353 l 2
 125 332 123 308 118 288 c 0
 118 285 115 278 115 277 c 0
 90 234 36 268 36 222 c 0
 36 216 34 208 43 205 c 1
163 870 m 1
 166 866 l 1
 168 865 189 874 197 880 c 0
 199 882 211 899 214 904 c 0
 219 914 221 922 221 932 c 0
 221 938 l 1
 211 971 193 993 156 993 c 0
 127 993 113 966 104 942 c 1
 104 942 104 941 104 940 c 0
 104 930 108 904 115 894 c 0
 118 889 132 875 135 873 c 0
 139 871 158 869 163 870 c 1
EndSplineSet
EndChar

StartChar: _47
Encoding: 295 -1 53
Width: 411
VWidth: 0
Flags: W
LayerCount: 2
Fore
SplineSet
66 229 m 1
 78 224 133 200 145 195 c 0
 161 189 176 188 192 188 c 0
 203 188 l 1
 255 195 302 210 337 250 c 0
 341 255 353 272 354 274 c 0
 356 279 366 313 368 322 c 1
 368 322 368 329 368 332 c 0
 368 359 364 396 344 418 c 0
 327 436 304 460 282 473 c 0
 267 482 192 523 176 531 c 1
 172 536 167 537 162 541 c 0
 146 555 130 572 125 592 c 0
 124 594 122 601 121 603 c 1
 121 609 129 635 131 640 c 0
 134 645 151 662 155 664 c 0
 158 666 179 671 186 671 c 0
 187 671 200 672 205 672 c 0
 208 672 221 671 224 671 c 1
 229 662 259 655 268 640 c 1
 274 632 291 606 292 603 c 0
 294 599 305 569 306 565 c 1
 306 565 310 555 313 555 c 2
 340 555 l 1
 340 671 l 2
 340 672 333 680 330 682 c 0
 298 701 265 708 227 712 c 0
 226 713 212 716 210 716 c 2
 210 716 200 716 196 716 c 0
 167 716 132 712 107 695 c 0
 90 684 70 670 60 651 c 0
 48 630 38 611 38 587 c 0
 38 584 39 576 39 575 c 0
 44 549 54 520 73 500 c 0
 82 491 111 465 114 462 c 1
 121 458 182 426 190 421 c 0
 192 420 211 406 214 404 c 0
 216 403 232 395 234 394 c 0
 235 393 240 388 241 387 c 0
 269 366 293 349 293 310 c 0
 293 285 274 245 248 236 c 0
 245 235 214 230 203 229 c 1
 203 229 195 229 192 229 c 0
 144 229 103 295 90 336 c 0
 87 345 87 363 80 373 c 0
 77 378 75 377 68 377 c 0
 59 377 42 375 42 362 c 0
 42 324 47 285 46 247 c 1
 52 239 61 237 66 229 c 1
EndSplineSet
EndChar

StartChar: _48
Encoding: 296 -1 54
Width: 570
VWidth: 0
Flags: W
LayerCount: 2
Fore
SplineSet
22 27 m 0
 22 21 25 14 32 14 c 2
 275 14 l 2
 277 14 282 18 282 21 c 2
 282 21 283 27 283 30 c 0
 283 62 261 53 234 58 c 0
 206 63 195 105 193 127 c 0
 193 128 193 146 193 153 c 0
 193 168 187 198 207 205 c 1
 218 203 271 193 282 192 c 0
 283 192 299 191 305 191 c 0
 337 191 370 198 399 212 c 0
 410 218 443 237 447 240 c 0
 455 246 488 282 495 291 c 0
 498 296 520 337 525 349 c 0
 540 382 546 417 546 452 c 0
 546 495 542 534 529 575 c 0
 527 581 518 602 515 606 c 0
 512 610 484 649 474 661 c 0
 472 663 465 670 464 671 c 0
 456 677 417 701 409 705 c 1
 386 711 362 716 338 716 c 0
 336 716 331 716 330 716 c 0
 321 714 293 707 289 705 c 0
 279 701 236 677 227 671 c 0
 222 667 200 646 197 640 c 0
 195 640 l 2
 193 640 190 641 190 644 c 2
 190 712 l 2
 190 717 180 716 179 716 c 0
 173 716 l 1
 32 664 l 2
 24 661 25 655 25 648 c 0
 25 640 23 638 29 634 c 0
 36 629 57 614 60 613 c 0
 62 612 81 604 84 603 c 0
 85 602 92 597 94 596 c 0
 96 594 102 589 102 589 c 1
 102 377 l 2
 102 345 104 199 104 168 c 0
 104 158 102 110 101 99 c 0
 99 78 83 63 63 58 c 0
 51 55 37 60 25 51 c 1
 24 44 22 35 22 27 c 0
190 572 m 0
 190 580 188 583 193 589 c 0
 205 604 231 617 248 623 c 0
 253 625 269 630 272 630 c 0
 273 630 294 631 301 631 c 0
 306 631 326 630 330 630 c 1
 331 629 336 627 337 627 c 0
 397 607 420 577 447 521 c 1
 446 520 446 515 447 514 c 0
 456 476 464 452 464 412 c 0
 464 392 460 375 454 356 c 0
 453 354 448 334 447 332 c 0
 428 281 385 236 327 236 c 0
 310 236 l 1
 306 237 277 244 269 247 c 1
 262 248 243 256 241 257 c 0
 240 258 228 270 224 274 c 0
 223 275 218 283 217 284 c 0
 215 288 203 315 200 322 c 0
 192 342 194 376 193 397 c 0
 193 413 190 542 190 558 c 0
 190 559 190 569 190 572 c 0
392 272 m 0
 390 272 390 269 392 269 c 0
 394 269 394 272 392 272 c 0
EndSplineSet
EndChar

StartChar: _49
Encoding: 297 -1 55
Width: 317
VWidth: 0
Flags: W
LayerCount: 2
Fore
SplineSet
29 212 m 0
 29 199 49 199 56 199 c 2
 282 199 l 2
 288 199 289 212 289 216 c 0
 289 222 288 227 286 233 c 0
 284 239 271 239 269 240 c 0
 262 242 234 254 228 257 c 0
 226 257 221 262 221 264 c 1
 220 265 221 273 221 274 c 0
 220 275 214 277 214 277 c 2
 214 278 211 288 211 291 c 1
 210 293 208 310 207 315 c 1
 207 315 207 316 207 317 c 2
 207 318 l 2
 207 330 211 427 211 438 c 0
 211 443 207 478 207 483 c 0
 207 485 207 527 207 543 c 0
 207 559 207 606 207 610 c 0
 207 625 211 752 211 767 c 0
 211 771 207 804 207 808 c 0
 207 834 207 954 207 979 c 1
 203 983 200 983 195 983 c 0
 179 983 167 974 152 969 c 0
 136 964 59 940 43 935 c 0
 41 934 34 926 32 925 c 1
 32 925 32 924 32 923 c 0
 32 914 39 906 46 901 c 1
 55 897 93 880 101 877 c 1
 106 874 114 870 115 863 c 0
 119 759 118 654 118 550 c 0
 118 522 118 394 118 366 c 1
 117 360 115 329 115 322 c 0
 114 309 117 292 108 281 c 0
 102 274 85 255 84 253 c 0
 83 253 69 248 63 247 c 0
 61 246 49 243 46 243 c 0
 45 243 37 244 36 243 c 0
 35 243 33 238 32 236 c 0
 31 231 29 220 29 212 c 0
EndSplineSet
EndChar

StartChar: _50
Encoding: 298 -1 56
Width: 503
VWidth: 0
Flags: W
LayerCount: 2
Fore
SplineSet
41 319 m 0
 41 255 96 195 161 195 c 0
 213 195 251 224 291 253 c 0
 292 253 294 254 294 254 c 1
 308 254 309 228 318 219 c 0
 333 206 351 195 371 195 c 0
 388 195 406 199 421 205 c 0
 424 207 441 219 445 223 c 0
 449 226 459 238 459 240 c 2
 459 281 l 2
 459 286 447 285 446 285 c 0
 436 285 430 277 420 277 c 0
 405 277 394 292 394 305 c 1
 393 312 390 370 390 377 c 0
 390 412 390 578 390 613 c 1
 388 627 381 646 373 658 c 0
 359 678 318 706 294 709 c 0
 284 710 233 715 223 716 c 1
 209 708 196 709 181 705 c 0
 177 704 158 697 154 695 c 0
 145 691 104 669 96 664 c 1
 81 646 58 618 58 592 c 0
 58 586 l 1
 59 581 66 552 68 545 c 0
 72 532 84 517 98 517 c 2
 99 517 l 2
 100 517 105 520 106 521 c 0
 121 527 158 537 158 557 c 0
 158 590 133 592 133 616 c 0
 133 645 186 668 208 668 c 0
 242 668 263 652 284 627 c 0
 285 626 290 616 291 613 c 0
 295 603 294 590 294 579 c 1
 295 573 298 529 298 524 c 0
 298 523 298 518 298 516 c 0
 298 507 289 500 281 497 c 0
 276 495 241 484 236 483 c 1
 236 483 230 480 229 479 c 0
 219 475 168 456 157 452 c 1
 157 452 155 452 154 452 c 0
 149 450 130 440 127 438 c 0
 103 424 80 411 65 387 c 0
 51 364 41 345 41 319 c 0
137 335 m 0
 137 354 141 368 151 384 c 0
 157 393 169 398 178 404 c 0
 181 406 202 420 205 421 c 0
 217 427 269 451 281 455 c 2
 284 456 l 1
 299 456 298 442 298 432 c 0
 298 421 301 339 301 329 c 2
 301 327 l 2
 301 325 l 1
 283 295 245 267 209 267 c 0
 197 267 191 272 181 277 c 0
 180 278 172 280 171 281 c 0
 157 286 148 304 140 315 c 0
 136 322 137 328 137 335 c 0
151 324 m 0
 149 324 149 320 151 320 c 0
 152 320 152 324 151 324 c 0
EndSplineSet
EndChar

StartChar: _51
Encoding: 299 -1 57
Width: 548
VWidth: 0
Flags: W
LayerCount: 2
Fore
SplineSet
56 82 m 0
 56 80 58 66 60 62 c 0
 72 23 114 13 150 13 c 0
 193 13 233 43 255 79 c 0
 256 82 267 107 268 110 c 0
 280 132 291 154 299 178 c 0
 306 196 309 215 316 233 c 0
 330 267 345 301 357 336 c 1
 363 350 387 417 392 432 c 1
 402 449 l 1
 467 620 l 2
 474 638 488 649 505 658 c 0
 506 658 520 663 522 664 c 0
 527 668 526 683 526 685 c 0
 526 688 525 695 525 695 c 1
 522 699 l 1
 474 697 427 702 380 702 c 0
 375 702 352 702 347 702 c 1
 339 697 340 687 340 679 c 0
 340 646 373 659 392 644 c 0
 394 642 406 628 409 623 c 0
 410 622 412 615 412 613 c 0
 412 612 409 604 409 603 c 0
 408 598 403 577 402 572 c 2
 334 384 l 1
 327 373 328 364 316 356 c 1
 305 364 304 379 299 390 c 0
 298 394 284 424 282 428 c 0
 282 429 279 440 279 442 c 0
 272 459 262 476 255 493 c 0
 239 530 203 622 203 623 c 2
 203 634 l 1
 203 634 215 646 221 651 c 1
 221 651 226 654 227 654 c 0
 232 656 256 663 262 664 c 1
 266 669 265 674 265 679 c 0
 265 691 253 702 241 702 c 0
 235 702 208 702 202 702 c 0
 150 702 98 697 46 699 c 1
 39 692 l 1
 39 664 l 2
 39 656 58 659 63 658 c 0
 75 655 85 648 94 640 c 1
 103 620 147 524 155 503 c 1
 157 501 162 486 162 483 c 1
 265 253 l 1
 273 250 272 236 272 229 c 0
 272 223 l 1
 262 180 243 144 217 110 c 0
 216 108 209 101 207 99 c 0
 195 91 191 92 177 92 c 0
 173 92 163 92 162 92 c 1
 162 93 152 100 149 103 c 0
 134 115 119 130 97 130 c 0
 84 130 72 122 66 110 c 1
 64 103 56 84 56 82 c 0
203 22 m 0
 202 22 202 19 203 19 c 0
 205 19 205 22 203 22 c 0
193 211 m 0
 191 211 191 207 193 207 c 0
 195 207 195 211 193 211 c 0
EndSplineSet
EndChar

StartChar: _52
Encoding: 300 -1 58
Width: 317
VWidth: 0
Flags: W
LayerCount: 2
Fore
SplineSet
273 53 m 0
 271 53 271 50 273 50 c 0
 274 50 274 53 273 53 c 0
33 640 m 1
 48 641 71 642 88 637 c 0
 89 637 91 634 91 634 c 1
 91 253 l 2
 91 252 96 238 98 233 c 0
 117 188 145 181 191 181 c 0
 219 181 250 189 276 199 c 0
 279 200 286 205 286 205 c 1
 286 247 l 1
 283 250 l 1
 248 248 210 244 190 277 c 0
 187 283 184 292 184 298 c 2
 184 640 l 1
 276 640 l 1
 283 647 l 1
 283 690 l 1
 184 690 l 1
 184 781 l 2
 184 784 164 788 161 788 c 0
 143 788 134 763 125 753 c 0
 116 743 80 707 74 702 c 0
 70 699 37 677 33 675 c 0
 26 670 26 663 26 655 c 0
 26 649 25 643 33 640 c 1
EndSplineSet
EndChar

StartChar: _53
Encoding: 301 -1 59
Width: 546
VWidth: 0
Flags: W
LayerCount: 2
Fore
SplineSet
46 76 m 0
 46 29 98 6 139 6 c 0
 142 6 149 7 149 7 c 2
 151 7 168 15 173 17 c 0
 180 21 206 35 211 38 c 0
 212 38 217 43 218 45 c 0
 237 70 250 92 262 120 c 0
 266 129 285 172 290 182 c 1
 290 185 l 1
 290 185 316 253 327 281 c 0
 328 282 330 287 331 288 c 0
 336 301 353 344 355 349 c 0
 356 352 361 371 362 373 c 0
 365 382 396 453 399 462 c 0
 400 464 402 475 403 476 c 0
 404 478 412 491 413 493 c 0
 433 543 441 606 478 647 c 0
 486 657 502 657 512 661 c 0
 519 664 519 674 519 680 c 0
 519 686 519 699 509 699 c 2
 341 699 l 2
 340 699 335 694 334 692 c 1
 334 692 334 686 334 684 c 0
 334 677 333 661 341 658 c 0
 343 657 363 652 365 651 c 0
 368 649 385 640 389 637 c 0
 393 634 398 628 399 623 c 0
 401 618 403 604 403 603 c 2
 355 462 l 1
 356 455 354 455 351 449 c 1
 349 442 327 384 324 377 c 0
 323 374 316 360 314 356 c 0
 312 353 311 353 309 353 c 0
 295 353 287 391 283 401 c 0
 254 467 220 530 197 599 c 0
 193 611 190 618 190 629 c 0
 190 636 190 634 197 640 c 0
 202 644 214 654 214 654 c 1
 219 656 240 658 245 658 c 1
 256 663 256 677 256 687 c 0
 256 688 257 699 252 699 c 2
 40 699 l 2
 33 699 26 689 26 683 c 2
 26 682 l 1
 27 678 29 664 29 661 c 1
 36 656 46 656 53 654 c 0
 68 651 81 641 88 627 c 2
 156 473 l 2
 156 471 159 464 160 462 c 0
 166 447 197 378 204 363 c 0
 205 362 210 354 211 353 c 0
 214 347 223 328 225 325 c 0
 236 298 262 231 262 229 c 2
 262 223 l 1
 242 168 l 1
 237 165 237 158 235 154 c 0
 219 122 206 89 167 89 c 0
 134 89 119 130 89 130 c 2
 88 130 l 1
 84 129 74 127 74 127 c 1
 55 114 46 98 46 76 c 0
29 113 m 0
 30 115 25 115 26 113 c 0
 27 111 29 111 29 113 c 0
399 317 m 0
 398 317 398 313 399 313 c 0
 401 313 401 317 399 317 c 0
101 786 m 0
 100 786 100 783 101 783 c 0
 103 783 103 786 101 786 c 0
112 796 m 0
 110 796 110 793 112 793 c 0
 113 793 113 796 112 796 c 0
EndSplineSet
EndChar

StartChar: _54
Encoding: 302 -1 60
Width: 589
VWidth: 0
Flags: W
LayerCount: 2
Fore
SplineSet
36 7 m 1
 39 2 47 1 50 0 c 1
 57 1 88 3 95 3 c 0
 124 4 261 4 290 3 c 1
 293 7 l 2
 293 8 294 15 294 18 c 0
 294 23 295 36 290 41 c 1
 254 45 229 43 211 79 c 0
 210 80 208 90 208 92 c 0
 207 98 205 141 204 154 c 0
 204 155 204 163 204 165 c 0
 204 179 203 192 219 192 c 0
 228 192 l 1
 232 191 259 186 262 185 c 0
 280 182 292 181 311 181 c 0
 350 181 389 190 423 209 c 0
 426 211 448 228 451 229 c 0
 452 230 459 233 461 233 c 1
 497 263 519 299 536 342 c 0
 537 345 542 364 543 366 c 0
 544 369 549 378 550 380 c 0
 554 406 557 423 557 445 c 0
 557 455 l 1
 556 468 549 528 547 541 c 0
 546 543 544 550 543 551 c 0
 537 566 518 609 516 613 c 0
 515 614 508 624 506 627 c 0
 493 641 476 664 458 675 c 0
 453 678 426 692 420 695 c 0
 418 696 411 698 410 699 c 0
 387 703 371 706 351 706 c 0
 348 706 342 706 341 705 c 0
 314 700 287 689 262 675 c 0
 255 670 231 654 228 651 c 0
 219 642 222 630 208 630 c 0
 207 630 205 630 204 630 c 0
 203 634 198 651 197 654 c 1
 197 654 197 655 197 656 c 0
 197 666 201 674 201 685 c 0
 201 687 201 697 201 699 c 1
 200 700 195 705 194 705 c 2
 194 705 193 706 192 706 c 2
 191 705 l 1
 185 704 163 697 160 695 c 1
 158 695 147 689 146 688 c 0
 109 675 87 669 50 654 c 0
 43 651 33 644 33 635 c 0
 33 628 37 620 43 616 c 1
 52 613 90 593 98 589 c 0
 101 588 108 583 108 582 c 2
 112 551 l 1
 110 442 116 334 116 225 c 0
 116 201 115 137 115 134 c 0
 115 126 113 90 112 82 c 1
 102 59 91 47 64 45 c 0
 56 44 47 47 40 41 c 0
 35 37 36 24 36 21 c 0
 36 18 36 9 36 7 c 1
200 498 m 0
 200 508 201 555 201 565 c 1
 210 600 251 613 283 620 c 1
 284 619 289 616 290 616 c 0
 291 616 296 620 297 620 c 0
 298 621 305 623 307 623 c 0
 314 623 348 618 355 616 c 1
 359 616 373 611 375 610 c 0
 443 570 461 514 475 438 c 0
 475 437 475 426 475 425 c 0
 475 421 478 404 478 401 c 2
 465 336 l 1
 454 317 450 298 437 281 c 0
 436 279 419 262 413 257 c 0
 396 241 367 223 343 223 c 2
 341 223 l 1
 329 224 298 229 297 229 c 0
 281 233 259 238 245 250 c 0
 243 252 236 259 235 260 c 0
 231 266 217 292 215 298 c 0
 205 320 205 347 204 370 c 0
 204 376 201 425 201 432 c 0
 201 434 200 481 200 498 c 0
290 402 m 0
 288 402 288 399 290 399 c 0
 292 399 292 402 290 402 c 0
516 769 m 0
 514 769 514 765 516 765 c 0
 518 765 518 769 516 769 c 0
519 781 m 1
 509 777 l 1
 519 777 l 1
 519 781 l 1
530 783 m 0
 528 783 528 779 530 779 c 0
 531 779 531 783 530 783 c 0
EndSplineSet
EndChar

StartChar: _55
Encoding: 303 -1 61
Width: 447
VWidth: 0
Flags: W
LayerCount: 2
Fore
SplineSet
235 60 m 0
 233 60 233 57 235 57 c 0
 237 57 237 60 235 60 c 0
180 192 m 1
 189 190 233 183 242 182 c 1
 243 182 l 2
 245 182 l 1
 280 186 314 191 344 209 c 0
 352 214 379 233 382 236 c 0
 390 244 421 282 427 291 c 0
 430 297 430 301 430 307 c 0
 430 317 419 326 409 326 c 0
 398 326 392 307 386 301 c 1
 383 300 369 292 365 291 c 0
 353 287 312 275 307 274 c 0
 306 274 293 274 287 274 c 0
 214 274 166 305 129 366 c 0
 127 369 124 373 125 377 c 1
 105 438 l 1
 106 456 104 477 101 493 c 1
 106 508 117 507 131 507 c 0
 157 507 183 503 209 503 c 0
 211 503 l 1
 215 504 234 506 238 507 c 1
 420 507 l 2
 424 507 427 517 427 520 c 0
 427 534 422 556 416 568 c 0
 382 647 331 706 240 706 c 0
 137 706 90 649 47 562 c 0
 40 549 42 544 36 534 c 1
 34 526 27 488 26 479 c 1
 26 479 26 458 26 450 c 0
 26 427 25 396 29 373 c 0
 39 316 74 256 122 223 c 0
 144 207 159 204 180 192 c 1
108 553 m 0
 108 562 111 569 115 579 c 0
 119 588 134 617 136 620 c 0
 148 639 169 650 190 658 c 0
 199 661 212 661 222 661 c 0
 263 661 296 629 310 592 c 0
 312 587 320 565 321 562 c 0
 321 561 321 557 321 555 c 0
 321 552 322 546 317 545 c 1
 298 545 206 545 187 545 c 0
 183 545 150 541 146 541 c 0
 145 541 134 541 130 541 c 0
 128 541 117 541 115 541 c 0
 108 544 108 547 108 553 c 0
EndSplineSet
EndChar

StartChar: _56
Encoding: 304 -1 62
Width: 829
VWidth: 0
Flags: W
LayerCount: 2
Fore
SplineSet
337 435 m 0
 337 433 341 413 341 411 c 0
 343 382 341 352 354 325 c 0
 360 313 387 270 392 264 c 0
 394 261 430 228 444 216 c 0
 445 215 452 210 454 209 c 0
 489 190 524 178 565 178 c 0
 589 178 641 188 663 202 c 0
 667 205 706 230 711 233 c 0
 712 234 722 244 724 247 c 0
 773 303 797 370 797 445 c 0
 797 487 792 523 776 562 c 0
 741 645 665 706 573 706 c 0
 502 706 426 674 385 613 c 0
 385 612 382 604 382 603 c 0
 381 602 377 595 375 592 c 2
 375 592 372 590 372 589 c 0
 369 583 359 562 358 558 c 0
 357 556 352 533 351 531 c 0
 351 529 345 519 344 517 c 0
 344 515 341 486 341 476 c 0
 341 475 341 464 341 462 c 0
 341 460 337 438 337 435 c 0
39 202 m 0
 40 200 44 190 46 188 c 1
 49 188 61 188 63 188 c 0
 68 188 80 188 81 188 c 0
 85 189 118 192 122 192 c 0
 143 192 241 192 262 192 c 0
 265 192 277 194 279 195 c 0
 280 196 283 198 283 199 c 2
 283 233 l 1
 279 236 l 1
 264 239 244 242 231 253 c 1
 228 257 213 271 211 274 c 0
 210 275 208 280 207 281 c 0
 204 293 197 327 197 329 c 2
 197 644 l 1
 276 644 l 2
 292 644 290 670 290 680 c 0
 290 682 289 690 289 692 c 0
 288 694 282 699 279 699 c 2
 197 699 l 1
 196 705 194 734 194 740 c 2
 194 740 194 742 194 743 c 0
 194 744 194 746 194 747 c 0
 194 762 197 803 197 805 c 0
 201 846 218 928 272 928 c 0
 275 928 284 926 286 925 c 0
 319 907 345 853 384 853 c 0
 403 853 423 889 423 905 c 0
 423 913 424 917 420 925 c 0
 399 965 359 973 317 973 c 0
 294 973 277 974 255 966 c 0
 208 948 148 901 128 853 c 1
 115 818 115 787 108 750 c 0
 108 749 105 744 104 743 c 0
 103 733 105 718 98 709 c 0
 82 690 66 692 43 688 c 1
 35 684 36 671 36 664 c 0
 36 657 36 649 43 644 c 1
 50 644 81 644 87 644 c 0
 89 644 99 641 101 640 c 0
 102 640 104 638 104 637 c 0
 105 634 108 620 108 616 c 0
 108 591 108 474 108 449 c 0
 108 442 111 387 111 380 c 2
 111 380 111 379 111 378 c 2
 111 377 l 2
 111 368 108 300 108 291 c 0
 107 277 101 258 87 250 c 0
 84 248 53 235 50 233 c 0
 47 231 43 225 43 223 c 0
 42 218 39 204 39 202 c 0
491 277 m 1
 486 287 464 335 461 346 c 0
 459 350 447 398 444 414 c 0
 438 441 440 469 440 497 c 0
 440 505 440 546 440 555 c 0
 441 571 450 587 457 599 c 0
 475 629 500 654 536 658 c 0
 537 658 548 657 550 658 c 0
 551 658 559 661 560 661 c 0
 571 661 593 652 601 647 c 0
 649 619 660 580 676 531 c 0
 693 481 697 432 697 379 c 0
 697 368 697 340 697 339 c 0
 696 331 689 292 687 284 c 1
 679 275 672 264 666 253 c 1
 660 249 628 233 622 229 c 1
 611 224 603 222 593 222 c 0
 552 222 517 247 491 277 c 1
625 286 m 0
 623 286 623 283 625 283 c 0
 627 283 627 286 625 286 c 0
735 673 m 0
 733 673 733 670 735 670 c 0
 736 670 736 673 735 673 c 0
EndSplineSet
EndChar

StartChar: _57
Encoding: 305 -1 63
Width: 449
VWidth: 0
Flags: W
LayerCount: 2
Fore
SplineSet
41 209 m 0
 41 204 42 193 48 192 c 0
 51 191 66 188 68 188 c 0
 71 188 83 191 86 192 c 1
 92 192 123 192 130 192 c 0
 180 192 230 188 281 188 c 0
 285 188 307 188 312 188 c 0
 324 190 322 204 322 212 c 0
 322 224 323 236 308 240 c 0
 305 240 277 242 274 243 c 0
 271 244 247 253 240 257 c 0
 239 257 237 259 236 260 c 0
 227 273 220 280 219 295 c 0
 218 306 216 359 216 370 c 0
 216 373 215 431 215 452 c 0
 215 464 216 522 216 534 c 1
 214 552 225 567 236 579 c 0
 242 585 271 611 277 616 c 1
 284 620 288 620 295 620 c 0
 299 620 305 621 308 616 c 2
 339 575 l 2
 344 568 361 568 369 568 c 0
 399 568 404 610 404 632 c 0
 404 635 404 651 404 654 c 1
 393 682 366 707 336 709 c 0
 317 710 295 703 281 692 c 0
 274 686 245 658 240 651 c 1
 235 638 227 625 216 616 c 1
 216 695 l 2
 216 708 205 713 194 713 c 0
 193 713 189 713 188 712 c 2
 51 654 l 2
 45 651 44 641 44 635 c 0
 44 615 100 598 116 589 c 1
 116 586 l 1
 117 575 120 487 120 476 c 0
 120 473 120 424 120 406 c 0
 120 357 121 323 116 274 c 1
 115 245 73 243 55 240 c 0
 40 237 41 220 41 209 c 0
EndSplineSet
EndChar

StartChar: _58
Encoding: 306 -1 64
Width: 336
VWidth: 0
Flags: W
LayerCount: 2
Fore
SplineSet
103 322 m 0
 103 272 101 237 141 202 c 0
 156 189 174 188 193 188 c 0
 224 188 256 188 285 202 c 0
 288 204 295 211 295 212 c 2
 295 253 l 1
 237 253 l 2
 225 253 201 278 199 288 c 0
 198 293 196 315 196 318 c 2
 196 603 l 1
 199 644 l 1
 285 644 l 2
 295 644 295 656 295 663 c 0
 295 683 294 694 271 695 c 0
 260 696 210 696 199 695 c 1
 196 699 l 1
 196 788 l 1
 165 788 l 1
 144 757 112 726 86 702 c 0
 85 702 80 699 79 699 c 1
 79 698 76 695 76 695 c 1
 60 686 38 680 38 658 c 0
 38 653 46 646 48 644 c 1
 55 644 86 644 93 644 c 0
 112 643 107 615 107 603 c 0
 107 509 103 416 103 322 c 0
EndSplineSet
EndChar

StartChar: _59
Encoding: 307 -1 65
Width: 591
VWidth: 0
Flags: W
LayerCount: 2
Fore
SplineSet
30 212 m 0
 30 202 l 1
 37 195 l 1
 274 195 l 1
 274 195 277 200 277 202 c 0
 277 203 277 212 277 216 c 0
 277 218 277 227 277 229 c 1
 270 239 255 237 246 240 c 0
 216 249 199 265 198 298 c 0
 198 315 195 452 195 469 c 0
 195 472 195 512 195 526 c 0
 195 534 195 574 195 582 c 1
 199 603 227 613 243 620 c 0
 252 623 281 633 284 634 c 1
 284 634 299 634 305 634 c 0
 323 634 347 636 363 623 c 0
 374 615 383 605 390 592 c 0
 392 588 400 575 400 568 c 0
 401 560 404 529 404 524 c 2
 404 284 l 2
 404 251 362 235 335 236 c 1
 332 233 l 1
 332 199 l 2
 332 198 339 195 342 195 c 2
 342 195 355 195 360 195 c 0
 365 195 381 195 383 195 c 0
 411 196 540 198 568 199 c 0
 572 200 572 202 572 205 c 0
 572 219 573 236 558 240 c 0
 556 240 539 243 537 243 c 0
 506 252 498 287 496 315 c 1
 497 336 497 434 496 455 c 0
 496 467 493 557 493 568 c 0
 493 571 493 593 493 596 c 1
 492 598 488 615 486 620 c 0
 484 626 476 633 479 640 c 1
 447 688 415 710 356 710 c 0
 295 710 261 680 212 647 c 0
 211 647 202 640 200 640 c 0
 198 640 196 641 195 644 c 0
 194 647 191 659 191 661 c 0
 191 666 194 687 195 692 c 1
 195 938 l 1
 196 942 198 959 198 962 c 0
 198 974 185 977 177 977 c 0
 175 977 168 976 167 976 c 2
 58 932 l 1
 46 930 27 927 27 911 c 0
 27 905 28 897 34 894 c 2
 92 860 l 2
 96 857 101 851 102 846 c 1
 102 833 102 770 102 757 c 1
 103 747 106 667 106 658 c 0
 106 652 106 544 106 503 c 0
 106 480 106 372 106 349 c 0
 106 341 104 300 102 291 c 0
 102 287 97 273 95 271 c 1
 94 268 77 252 72 247 c 0
 71 246 66 244 65 243 c 0
 62 242 43 237 41 236 c 0
 29 232 30 223 30 212 c 0
181 820 m 0
 183 820 183 817 181 817 c 0
 179 817 179 820 181 820 c 0
EndSplineSet
EndChar

StartChar: _60
Encoding: 308 -1 66
Width: 454
VWidth: 0
Flags: W
LayerCount: 2
Fore
SplineSet
26 445 m 0
 26 419 25 389 33 363 c 0
 65 254 134 185 252 185 c 0
 331 185 376 231 427 284 c 0
 434 292 434 299 434 308 c 0
 434 310 434 317 434 318 c 0
 428 321 421 329 415 329 c 0
 413 329 l 1
 399 313 379 294 358 288 c 0
 346 284 307 274 303 274 c 0
 296 273 257 276 249 277 c 1
 242 279 209 291 201 295 c 0
 170 309 146 342 129 370 c 0
 128 371 126 376 125 377 c 0
 113 413 104 448 104 486 c 0
 104 489 105 501 105 503 c 0
 109 511 122 510 129 510 c 0
 168 510 207 507 246 507 c 0
 307 507 366 512 427 510 c 1
 431 511 430 518 430 520 c 0
 430 528 428 534 427 541 c 0
 426 546 424 561 423 562 c 0
 415 589 399 614 382 637 c 0
 378 643 359 665 355 668 c 0
 326 693 278 709 241 709 c 0
 173 709 141 690 94 640 c 0
 90 636 78 622 77 620 c 0
 50 573 29 527 26 473 c 0
 26 472 26 452 26 445 c 0
111 554 m 0
 111 572 121 591 129 606 c 0
 132 612 144 631 146 634 c 0
 161 652 204 665 225 665 c 0
 227 665 234 665 235 664 c 0
 279 655 301 621 317 582 c 0
 320 576 324 560 324 555 c 0
 324 545 309 545 303 545 c 2
 118 545 l 2
 110 545 111 549 111 554 c 0
EndSplineSet
EndChar

StartChar: _61
Encoding: 309 -1 67
Width: 479
VWidth: 0
Flags: W
LayerCount: 2
Fore
SplineSet
36 452 m 0
 36 359 52 286 125 226 c 0
 140 214 157 208 173 199 c 0
 176 197 185 192 187 192 c 0
 210 184 233 178 259 178 c 0
 269 178 283 183 293 185 c 0
 295 185 311 188 313 188 c 0
 325 191 334 199 344 202 c 0
 345 202 350 205 351 205 c 0
 356 209 371 218 372 219 c 0
 377 224 408 255 416 264 c 0
 426 274 440 291 440 306 c 0
 440 307 440 311 440 312 c 0
 439 314 429 323 426 325 c 0
 426 326 424 326 423 326 c 0
 422 326 420 326 420 325 c 0
 387 286 340 270 290 270 c 0
 284 270 270 270 269 271 c 1
 266 271 250 276 245 277 c 0
 244 278 242 281 241 281 c 0
 240 281 226 284 224 284 c 0
 171 307 139 354 122 408 c 0
 120 413 115 435 115 438 c 0
 115 440 114 466 114 476 c 0
 114 486 115 512 115 514 c 0
 115 518 120 542 122 548 c 0
 139 609 185 664 253 664 c 0
 290 664 325 652 344 620 c 0
 358 597 356 558 392 558 c 0
 426 558 432 578 440 606 c 1
 440 606 440 607 440 608 c 0
 440 630 426 657 409 671 c 0
 398 681 383 692 368 695 c 0
 362 697 310 708 303 709 c 0
 298 709 254 706 248 705 c 0
 247 705 243 705 241 705 c 0
 229 702 174 683 163 678 c 0
 157 676 131 659 125 654 c 0
 94 629 76 601 60 565 c 0
 44 527 36 493 36 452 c 0
214 303 m 0
 212 303 212 300 214 300 c 0
 216 300 216 303 214 303 c 0
307 478 m 0
 305 478 305 474 307 474 c 0
 308 474 308 478 307 478 c 0
413 892 m 0
 411 892 411 889 413 889 c 0
 414 889 414 892 413 892 c 0
EndSplineSet
EndChar

StartChar: _62
Encoding: 310 -1 68
Width: 467
VWidth: 0
Flags: W
LayerCount: 2
Fore
SplineSet
26 303 m 1
 26 301 l 1
 28 293 35 267 36 264 c 0
 37 261 42 252 43 250 c 0
 66 217 102 191 143 191 c 0
 167 191 197 195 218 209 c 0
 227 215 267 244 276 250 c 0
 279 250 l 2
 291 250 306 204 327 195 c 0
 337 191 344 192 355 192 c 0
 381 192 403 198 423 216 c 0
 428 220 440 232 440 233 c 2
 440 277 l 2
 440 282 434 281 432 281 c 0
 421 281 411 272 399 271 c 0
 387 269 375 295 375 305 c 0
 375 325 372 421 372 442 c 0
 372 444 375 456 375 459 c 2
 375 459 375 460 375 461 c 0
 375 472 372 482 372 494 c 0
 372 499 371 503 375 507 c 1
 375 582 l 2
 375 584 372 594 372 596 c 0
 372 597 372 605 372 606 c 0
 368 634 358 652 338 671 c 0
 301 705 275 709 224 709 c 0
 191 709 158 703 129 688 c 1
 103 676 72 660 57 634 c 0
 54 628 44 604 43 599 c 0
 43 598 42 584 42 579 c 0
 42 560 49 513 76 513 c 0
 78 513 84 514 84 514 c 2
 88 515 117 527 125 531 c 0
 136 536 146 545 146 557 c 0
 146 558 146 561 146 562 c 0
 146 563 141 572 139 575 c 0
 137 579 125 599 122 603 c 1
 122 606 l 2
 122 615 128 627 132 634 c 0
 147 657 172 661 198 661 c 0
 205 661 224 662 231 658 c 0
 233 657 254 640 262 634 c 0
 285 615 283 556 283 531 c 0
 283 527 283 508 283 503 c 1
 253 485 216 480 184 466 c 0
 171 460 111 431 98 425 c 1
 94 422 74 407 71 404 c 0
 67 401 55 389 53 387 c 0
 51 384 38 359 36 356 c 0
 36 355 34 353 33 353 c 0
 32 346 27 312 26 305 c 1
 26 303 l 1
122 332 m 0
 122 353 129 379 149 390 c 2
 252 449 l 2
 259 453 265 453 273 453 c 0
 274 453 279 452 279 452 c 1
 283 442 l 1
 283 315 l 2
 283 314 273 302 269 298 c 0
 249 277 219 264 190 264 c 0
 184 264 l 1
 177 266 156 275 153 277 c 0
 150 280 133 299 129 305 c 0
 122 315 122 321 122 332 c 0
341 818 m 1
 341 815 l 1
 344 815 l 1
 341 818 l 1
EndSplineSet
EndChar

StartChar: _63
Encoding: 311 -1 69
Width: 380
VWidth: 0
Flags: W
LayerCount: 2
Fore
SplineSet
30 342 m 0
 30 340 30 333 30 332 c 0
 32 302 37 230 37 229 c 2
 48 219 l 2
 49 218 87 199 102 192 c 0
 128 180 148 178 176 178 c 0
 272 178 353 225 353 328 c 0
 353 332 353 342 352 342 c 0
 335 456 213 476 137 538 c 0
 121 550 106 570 106 591 c 2
 106 592 l 1
 111 613 119 646 143 654 c 0
 157 659 175 661 190 661 c 0
 237 661 273 611 287 572 c 0
 288 570 293 550 294 548 c 0
 295 544 303 541 306 541 c 0
 312 541 322 542 325 548 c 1
 330 570 329 594 329 616 c 0
 329 623 329 651 328 658 c 0
 328 659 323 664 322 664 c 0
 287 686 252 694 212 699 c 0
 210 699 190 702 188 702 c 0
 136 700 76 686 48 637 c 0
 36 618 27 597 27 574 c 0
 27 547 37 515 54 493 c 0
 61 485 85 461 89 459 c 2
 212 387 l 2
 215 385 237 368 243 363 c 0
 247 359 266 340 270 336 c 0
 278 327 277 311 277 301 c 0
 277 237 240 216 181 216 c 0
 130 216 95 271 78 312 c 1
 75 318 l 1
 73 330 74 345 68 356 c 0
 65 362 60 360 55 360 c 0
 42 360 30 357 30 342 c 0
280 784 m 0
 278 785 278 780 280 781 c 0
 282 781 282 784 280 784 c 0
EndSplineSet
EndChar

StartChar: _64
Encoding: 312 -1 70
Width: 488
VWidth: 0
Flags: W
LayerCount: 2
Fore
SplineSet
38 448 m 0
 38 440 39 419 39 418 c 0
 40 409 44 371 46 363 c 0
 61 285 121 211 200 192 c 0
 204 191 240 186 244 185 c 0
 246 185 257 182 258 182 c 2
 258 182 259 182 260 182 c 2
 260 182 261 182 262 182 c 0
 279 184 322 191 323 192 c 0
 344 198 364 213 381 226 c 0
 382 227 391 232 392 233 c 0
 400 240 429 269 433 274 c 0
 441 283 450 296 450 309 c 0
 450 319 440 327 429 329 c 0
 425 329 417 320 416 318 c 1
 414 317 404 303 402 301 c 0
 373 282 332 274 299 274 c 0
 178 274 118 374 118 485 c 0
 118 492 121 507 131 507 c 2
 429 507 l 2
 435 507 443 510 443 517 c 0
 443 521 441 540 440 545 c 0
 439 545 436 547 436 548 c 0
 436 549 437 560 436 562 c 0
 428 592 409 621 388 644 c 0
 345 691 306 706 244 706 c 0
 214 706 189 702 162 685 c 0
 157 682 131 663 125 658 c 0
 110 646 99 628 90 613 c 0
 59 559 38 510 38 448 c 0
125 545 m 0
 124 546 124 552 124 553 c 0
 124 555 124 561 125 562 c 0
 134 604 162 642 203 658 c 0
 204 658 228 663 238 664 c 1
 239 664 l 2
 241 664 262 662 265 661 c 0
 266 661 268 658 268 658 c 2
 272 655 300 633 303 630 c 0
 305 628 314 614 316 610 c 0
 319 605 331 578 334 572 c 0
 336 567 337 560 337 554 c 0
 337 549 336 548 330 545 c 1
 311 545 222 545 203 545 c 1
 199 544 160 541 155 541 c 2
 155 541 147 541 144 541 c 0
 137 541 132 540 125 545 c 0
EndSplineSet
EndChar

StartChar: _65
Encoding: 313 -1 71
Width: 402
VWidth: 0
Flags: W
LayerCount: 2
Fore
SplineSet
46 229 m 0
 47 228 52 223 53 223 c 0
 92 198 142 178 189 178 c 0
 194 178 206 178 207 178 c 0
 208 178 216 181 217 182 c 1
 222 182 257 187 262 188 c 0
 265 189 289 201 296 205 c 0
 341 232 365 278 365 330 c 0
 365 334 365 349 364 353 c 1
 359 360 362 369 357 377 c 0
 353 385 339 411 337 414 c 0
 336 416 327 425 323 428 c 0
 318 432 294 452 289 455 c 0
 272 464 196 505 179 514 c 0
 153 529 121 558 121 591 c 0
 121 595 121 605 121 606 c 0
 122 612 132 636 135 640 c 1
 150 650 156 657 176 661 c 0
 182 662 201 665 203 664 c 0
 205 664 220 659 224 658 c 0
 257 642 279 615 292 582 c 0
 293 580 298 561 299 558 c 0
 300 555 305 545 306 545 c 0
 309 542 316 541 320 541 c 0
 325 541 335 542 337 548 c 0
 338 551 340 566 340 568 c 0
 341 570 341 601 341 613 c 0
 341 620 341 651 340 658 c 1
 334 665 329 672 320 675 c 0
 282 688 248 702 207 702 c 0
 177 702 148 700 121 688 c 0
 75 669 38 624 38 572 c 0
 38 535 56 504 80 476 c 0
 84 472 96 460 97 459 c 2
 255 363 l 2
 257 361 274 345 279 339 c 0
 288 328 289 312 289 298 c 0
 289 239 251 215 196 215 c 0
 175 215 161 218 145 233 c 0
 138 240 116 261 114 264 c 0
 110 269 96 293 94 298 c 0
 91 307 81 347 80 356 c 0
 79 361 71 360 68 360 c 0
 61 360 46 361 42 353 c 1
 42 350 42 335 42 332 c 0
 42 327 42 313 42 312 c 0
 43 299 45 242 46 229 c 0
EndSplineSet
EndChar

StartChar: _66
Encoding: 314 -1 72
Width: 603
VWidth: 0
Flags: W
LayerCount: 2
Fore
SplineSet
115 288 m 0
 119 267 121 255 135 240 c 0
 140 235 161 213 166 209 c 0
 189 188 221 185 250 185 c 0
 304 185 335 207 378 236 c 0
 388 243 394 251 406 253 c 1
 406 184 l 1
 413 184 431 183 440 188 c 1
 539 205 l 1
 542 204 554 204 556 205 c 0
 568 210 570 223 570 233 c 0
 570 236 571 257 563 257 c 2
 522 257 l 2
 521 257 511 262 508 264 c 0
 498 271 495 277 495 291 c 2
 495 658 l 1
 498 670 499 678 499 690 c 0
 499 695 499 705 490 705 c 0
 488 705 l 1
 479 704 405 696 395 695 c 0
 394 695 380 695 378 695 c 0
 363 695 327 692 327 692 c 1
 320 685 l 2
 320 684 322 665 324 658 c 0
 324 656 326 652 327 651 c 0
 358 646 402 643 406 603 c 0
 406 600 406 581 406 579 c 0
 406 563 409 431 409 414 c 0
 409 412 409 376 409 363 c 0
 409 355 409 319 409 312 c 0
 409 310 407 306 406 305 c 0
 375 270 333 257 287 257 c 0
 233 257 203 303 200 353 c 0
 200 367 200 434 200 449 c 0
 200 474 200 541 200 545 c 0
 200 549 203 585 204 589 c 1
 204 589 204 596 204 599 c 0
 204 601 204 609 204 610 c 0
 203 623 201 688 200 702 c 1
 198 702 189 702 187 702 c 0
 183 702 174 702 173 702 c 0
 170 702 145 699 142 699 c 0
 108 696 74 694 39 692 c 1
 35 689 29 682 29 677 c 0
 29 668 31 658 36 651 c 1
 69 648 96 641 108 606 c 1
 107 574 107 423 108 390 c 0
 108 375 113 303 115 288 c 0
502 574 m 0
 500 574 500 570 502 570 c 0
 503 570 503 574 502 574 c 0
EndSplineSet
EndChar

StartChar: _67
Encoding: 315 -1 73
Width: 603
VWidth: 0
Flags: W
LayerCount: 2
Fore
SplineSet
262 3 m 1
 265 2 279 0 282 0 c 0
 295 0 300 9 300 20 c 0
 300 28 300 39 289 41 c 0
 286 42 258 44 255 45 c 0
 240 48 223 65 217 79 c 0
 208 102 210 128 210 152 c 0
 210 157 210 177 210 182 c 0
 212 192 214 196 224 196 c 0
 225 196 230 195 231 195 c 0
 234 195 259 189 262 188 c 0
 285 184 294 185 317 185 c 0
 335 185 344 184 361 188 c 0
 370 191 410 203 419 205 c 1
 422 211 434 214 436 216 c 0
 446 222 472 238 474 240 c 0
 526 284 563 375 563 441 c 0
 563 498 556 547 532 599 c 1
 527 602 528 608 525 613 c 0
 524 615 507 637 501 644 c 0
 492 655 487 664 474 671 c 1
 460 680 422 701 419 702 c 0
 417 703 379 708 364 709 c 1
 364 709 357 709 355 709 c 0
 323 709 280 691 255 671 c 0
 241 660 227 644 210 637 c 1
 206 644 207 650 207 657 c 0
 207 668 210 677 210 687 c 0
 210 701 209 709 195 709 c 0
 193 709 187 709 186 709 c 0
 169 703 90 674 73 668 c 0
 71 667 51 657 46 654 c 0
 38 650 38 639 38 632 c 0
 38 630 39 623 39 623 c 2
 40 622 51 617 53 616 c 0
 54 616 62 610 63 610 c 0
 70 606 104 589 111 586 c 1
 114 582 l 1
 112 475 121 368 121 261 c 0
 121 204 116 151 118 92 c 1
 117 72 101 53 80 48 c 0
 78 48 65 48 63 48 c 0
 39 46 38 39 38 17 c 0
 38 14 39 7 39 7 c 1
 42 3 l 1
 262 3 l 1
327 84 m 0
 325 84 325 80 327 80 c 0
 328 80 328 84 327 84 c 0
241 260 m 0
 236 267 220 301 217 308 c 0
 216 311 211 342 210 353 c 0
 205 398 206 446 206 491 c 0
 206 502 207 551 207 562 c 1
 203 600 280 623 310 623 c 0
 326 623 364 620 378 613 c 0
 449 575 481 493 481 415 c 0
 481 379 472 350 460 315 c 1
 460 312 l 2
 460 310 446 288 440 281 c 0
 433 273 406 246 402 243 c 0
 398 240 372 228 364 226 c 1
 364 226 358 226 356 226 c 0
 323 226 296 233 265 243 c 0
 264 243 259 246 258 247 c 0
 255 248 243 258 241 260 c 0
49 580 m 0
 48 580 48 577 49 577 c 0
 51 577 51 580 49 580 c 0
166 717 m 0
 164 717 164 714 166 714 c 0
 167 714 167 717 166 717 c 0
EndSplineSet
EndChar

StartChar: _68
Encoding: 316 -1 74
Width: 312
VWidth: 0
Flags: W
LayerCount: 2
Fore
SplineSet
89 298 m 1
 90 292 92 263 92 257 c 2
 92 257 92 254 92 253 c 0
 96 245 105 221 106 219 c 0
 107 217 124 201 130 195 c 0
 134 192 147 189 151 188 c 0
 163 187 182 185 196 185 c 0
 202 185 l 1
 277 202 l 1
 284 209 l 1
 284 247 l 1
 281 253 l 1
 272 254 231 256 223 257 c 0
 211 258 203 267 195 274 c 0
 190 278 185 288 185 295 c 2
 185 630 l 2
 185 639 190 644 199 644 c 2
 281 644 l 1
 284 647 l 2
 284 648 285 659 285 662 c 0
 285 668 284 684 284 685 c 0
 284 689 282 697 281 697 c 2
 185 697 l 1
 185 781 l 2
 185 790 174 791 168 791 c 0
 135 791 116 743 96 726 c 0
 91 722 77 710 75 709 c 0
 62 699 41 692 31 678 c 0
 25 669 24 666 24 657 c 0
 24 651 l 1
 25 648 30 642 31 642 c 2
 89 642 l 2
 90 642 92 636 92 634 c 0
 92 633 93 627 93 624 c 0
 93 622 92 614 92 613 c 0
 92 605 89 542 89 534 c 0
 89 530 89 447 89 416 c 0
 89 398 89 316 89 298 c 1
41 557 m 0
 39 557 39 553 41 553 c 0
 43 553 43 557 41 557 c 0
EndSplineSet
EndChar

StartChar: _69
Encoding: 317 -1 75
Width: 512
VWidth: 0
Flags: W
LayerCount: 2
Fore
SplineSet
392 183 m 0
 391 183 391 180 392 180 c 0
 394 180 394 183 392 183 c 0
132 223 m 0
 168 197 209 188 252 188 c 0
 313 188 396 226 430 277 c 0
 465 330 485 394 485 457 c 0
 485 552 452 635 368 685 c 0
 361 689 325 706 317 709 c 1
 309 708 301 711 293 712 c 0
 285 713 259 716 255 716 c 0
 253 716 237 713 235 712 c 0
 234 712 226 713 225 712 c 1
 220 712 206 709 204 709 c 0
 161 696 118 675 88 640 c 0
 81 631 55 585 50 575 c 0
 49 573 42 554 40 548 c 0
 39 546 37 536 36 534 c 0
 34 518 27 465 26 459 c 0
 26 458 26 445 26 440 c 0
 26 422 26 397 29 380 c 0
 31 370 41 337 43 332 c 0
 47 323 71 285 77 277 c 0
 85 268 123 230 132 223 c 0
129 435 m 0
 128 440 125 464 125 469 c 0
 125 470 125 484 125 489 c 0
 125 547 131 634 197 658 c 0
 205 660 229 667 231 668 c 0
 232 668 243 668 247 668 c 0
 273 668 287 662 307 644 c 0
 312 639 334 617 338 613 c 0
 339 612 344 604 344 603 c 0
 351 586 375 507 379 490 c 0
 379 487 386 418 389 390 c 1
 389 390 389 387 389 385 c 0
 389 360 385 333 379 308 c 0
 367 262 340 248 297 236 c 0
 287 234 283 233 274 233 c 0
 254 233 224 242 208 257 c 0
 200 264 178 285 177 288 c 0
 174 292 162 318 160 325 c 0
 154 342 133 418 129 435 c 0
372 786 m 0
 370 786 370 783 372 783 c 0
 374 783 374 786 372 786 c 0
194 834 m 0
 192 834 192 830 194 830 c 0
 196 830 196 834 194 834 c 0
EndSplineSet
EndChar

StartChar: _70
Encoding: 318 -1 76
Width: 493
VWidth: 0
Flags: W
LayerCount: 2
Fore
SplineSet
38 65 m 0
 38 20 93 10 128 10 c 0
 135 10 l 1
 180 14 229 18 272 34 c 0
 361 68 450 163 450 263 c 0
 450 269 450 283 450 284 c 0
 449 293 442 329 440 336 c 0
 424 385 383 414 340 438 c 0
 339 439 325 444 323 445 c 0
 322 446 309 452 309 457 c 0
 309 458 310 459 310 459 c 2
 310 460 315 465 316 466 c 0
 338 478 370 488 385 510 c 0
 389 516 406 545 409 551 c 0
 410 554 415 569 416 572 c 0
 417 581 419 609 419 613 c 0
 418 619 409 652 405 661 c 0
 404 664 395 678 392 682 c 0
 384 690 348 726 340 733 c 1
 312 748 286 754 255 757 c 0
 254 757 245 757 242 757 c 0
 231 757 l 1
 222 756 178 748 169 747 c 1
 142 736 131 721 111 705 c 0
 109 704 95 696 94 695 c 0
 79 684 60 662 60 642 c 0
 60 629 74 616 87 616 c 0
 88 616 93 619 94 620 c 0
 95 621 106 632 107 634 c 1
 138 656 172 675 210 675 c 0
 234 675 273 667 289 647 c 0
 307 624 320 603 320 574 c 0
 320 536 304 504 272 483 c 0
 244 465 224 454 193 445 c 0
 187 443 137 433 131 432 c 1
 117 427 107 417 107 402 c 0
 107 375 126 381 149 380 c 0
 154 380 198 377 203 377 c 0
 204 377 213 377 214 377 c 0
 218 376 254 367 258 366 c 0
 259 366 261 366 262 366 c 0
 300 352 324 325 344 291 c 0
 344 290 350 282 351 281 c 0
 354 267 354 247 354 231 c 0
 354 182 343 138 303 106 c 0
 302 105 287 98 282 96 c 0
 280 95 273 93 272 92 c 1
 269 92 230 87 217 86 c 1
 217 86 216 86 215 86 c 2
 214 86 l 2
 203 86 174 89 173 89 c 0
 164 90 149 97 138 99 c 1
 135 99 l 1
 118 105 105 114 87 114 c 0
 71 114 59 109 49 96 c 0
 47 93 44 82 39 79 c 1
 39 77 38 67 38 65 c 0
EndSplineSet
EndChar

StartChar: _71
Encoding: 319 -1 77
Width: 524
VWidth: 0
Flags: W
LayerCount: 2
Fore
SplineSet
33 478 m 0
 33 442 30 398 43 363 c 0
 47 353 71 300 78 288 c 0
 91 263 105 249 125 233 c 0
 167 200 210 188 261 188 c 0
 333 188 423 225 454 295 c 1
 475 339 489 379 489 429 c 0
 489 552 417 658 285 658 c 0
 240 658 199 640 160 620 c 1
 157 620 l 1
 157 641 166 657 177 675 c 0
 181 682 198 709 201 712 c 0
 240 765 291 812 345 849 c 0
 376 871 419 893 454 908 c 1
 454 908 455 910 455 911 c 0
 455 924 420 942 409 942 c 0
 389 942 369 933 351 925 c 0
 320 910 293 895 266 877 c 0
 252 867 204 834 197 829 c 0
 196 828 188 820 187 818 c 0
 185 816 173 807 170 805 c 2
 101 726 l 1
 101 724 96 714 95 712 c 0
 93 710 79 688 78 685 c 0
 45 614 33 556 33 478 c 0
146 370 m 1
 141 412 136 451 136 492 c 0
 136 496 136 506 136 507 c 0
 136 513 138 542 139 548 c 1
 156 579 220 589 251 589 c 0
 255 589 265 589 266 589 c 0
 272 588 298 581 304 579 c 1
 307 573 317 571 321 568 c 0
 333 559 347 540 355 527 c 0
 379 487 382 446 382 401 c 0
 382 342 374 291 324 253 c 0
 306 240 289 236 268 236 c 0
 254 236 241 236 228 240 c 0
 192 250 171 295 160 325 c 0
 157 332 148 363 146 370 c 1
238 892 m 0
 237 892 237 889 238 889 c 0
 240 889 240 892 238 892 c 0
256 909 m 0
 254 909 254 906 256 906 c 0
 257 906 257 909 256 909 c 0
EndSplineSet
EndChar

StartChar: _72
Encoding: 320 -1 78
Width: 603
VWidth: 0
Flags: W
LayerCount: 2
Fore
SplineSet
39 26 m 0
 39 22 39 3 46 3 c 2
 299 3 l 1
 299 38 l 1
 299 38 297 41 296 41 c 0
 295 42 287 44 286 45 c 1
 282 45 255 50 251 51 c 0
 209 64 210 116 210 151 c 0
 210 156 210 180 210 185 c 1
 213 194 216 196 226 196 c 0
 228 196 234 195 234 195 c 2
 240 194 266 187 272 185 c 1
 278 185 305 184 311 184 c 0
 362 184 400 194 443 219 c 0
 445 220 462 228 464 229 c 0
 510 267 537 316 553 373 c 0
 555 383 562 414 563 418 c 1
 563 418 563 432 563 438 c 0
 563 540 536 635 443 688 c 0
 439 691 425 698 423 699 c 0
 407 704 379 706 362 706 c 0
 350 706 342 706 330 702 c 0
 318 698 280 684 275 682 c 0
 272 680 250 665 244 661 c 1
 243 659 229 645 227 644 c 0
 225 642 213 635 210 634 c 1
 209 637 207 651 207 654 c 0
 206 662 206 698 207 705 c 1
 205 707 195 709 193 709 c 0
 187 709 182 704 176 702 c 0
 155 694 135 689 114 682 c 0
 98 676 83 667 66 661 c 0
 63 660 50 658 46 654 c 0
 41 650 42 643 42 638 c 0
 42 623 58 616 70 610 c 0
 74 607 107 591 111 589 c 0
 112 588 117 584 118 582 c 1
 116 464 122 347 122 228 c 0
 122 179 122 134 118 86 c 1
 110 66 95 52 73 48 c 0
 54 45 39 52 39 26 c 0
207 555 m 0
 207 558 210 572 210 575 c 0
 211 578 213 585 214 586 c 0
 215 587 224 594 227 596 c 0
 254 612 279 624 310 624 c 0
 429 624 481 517 481 411 c 0
 481 392 482 389 477 370 c 0
 475 360 469 350 471 339 c 1
 449 288 412 226 349 226 c 0
 295 226 248 242 224 291 c 0
 222 296 214 315 214 318 c 0
 213 321 214 340 214 342 c 0
 213 345 210 364 210 366 c 0
 210 369 210 388 210 390 c 0
 210 415 207 530 207 555 c 0
EndSplineSet
EndChar

StartChar: _73
Encoding: 321 -1 79
Width: 502
VWidth: 0
Flags: W
LayerCount: 2
Fore
SplineSet
180 2 m 0
 178 2 178 -2 180 -2 c 0
 181 -2 181 2 180 2 c 0
286 57 m 0
 284 57 284 53 286 53 c 0
 287 53 287 57 286 57 c 0
22 432 m 0
 22 386 27 346 49 305 c 0
 54 297 71 270 73 267 c 0
 78 262 116 226 128 216 c 0
 145 202 172 190 193 185 c 0
 213 180 224 181 245 181 c 0
 265 181 284 180 303 188 c 0
 319 195 362 215 364 216 c 0
 367 217 389 234 395 240 c 0
 399 243 413 257 416 260 c 0
 423 271 452 324 457 336 c 0
 460 342 471 385 474 397 c 0
 477 414 478 439 478 457 c 0
 478 494 468 527 457 562 c 0
 455 566 448 583 447 586 c 0
 406 655 334 706 252 706 c 0
 218 706 188 698 156 685 c 0
 85 658 48 585 29 517 c 1
 30 509 26 501 25 493 c 0
 23 473 22 452 22 432 c 0
145 342 m 1
 121 435 l 1
 123 455 118 474 118 495 c 0
 118 560 128 615 186 651 c 0
 188 652 200 656 204 658 c 1
 209 659 236 666 241 668 c 1
 292 654 328 616 347 568 c 0
 348 567 350 553 351 551 c 0
 352 547 363 514 364 510 c 0
 365 508 370 479 371 469 c 0
 373 457 371 442 378 432 c 1
 378 339 l 2
 378 335 371 303 368 295 c 0
 367 291 355 267 351 260 c 0
 350 259 345 254 344 253 c 0
 334 247 305 230 303 229 c 0
 296 227 265 222 258 223 c 0
 257 223 236 230 227 233 c 0
 210 239 194 259 183 271 c 0
 169 286 164 295 156 315 c 0
 152 324 151 334 145 342 c 1
EndSplineSet
EndChar

StartChar: _74
Encoding: 322 -1 80
Width: 329
VWidth: 0
Flags: W
LayerCount: 2
Fore
SplineSet
46 188 m 1
 120 190 194 185 267 185 c 0
 270 185 283 185 286 185 c 1
 294 190 293 199 293 207 c 0
 293 209 293 217 293 219 c 1
 280 236 262 227 252 236 c 0
 247 241 233 255 231 257 c 0
 229 260 222 277 221 281 c 0
 220 287 217 316 218 322 c 1
 217 343 217 441 217 462 c 0
 217 499 217 597 218 603 c 1
 218 610 221 667 221 675 c 0
 221 676 221 682 221 684 c 0
 221 698 217 702 204 702 c 0
 202 702 195 702 194 702 c 0
 145 686 105 670 57 654 c 0
 53 652 50 647 50 642 c 0
 50 629 60 622 70 616 c 0
 78 612 117 590 125 586 c 1
 128 572 l 2
 129 569 129 536 129 525 c 0
 129 509 129 461 128 455 c 1
 128 428 123 301 122 274 c 1
 113 244 87 238 60 233 c 0
 53 232 49 236 43 229 c 0
 36 222 36 216 36 208 c 0
 36 200 36 190 46 188 c 1
53 474 m 0
 51 474 51 471 53 471 c 0
 55 471 55 474 53 474 c 0
108 918 m 0
 108 898 113 867 135 860 c 0
 145 857 153 853 163 853 c 2
 166 853 l 1
 174 854 195 859 197 860 c 0
 214 866 221 888 224 904 c 2
 224 904 225 908 225 909 c 0
 225 910 224 914 224 914 c 2
 217 950 202 973 163 973 c 0
 133 973 108 949 108 918 c 0
EndSplineSet
EndChar

StartChar: _75
Encoding: 323 -1 81
Width: 580
VWidth: 0
Flags: W
LayerCount: 2
Fore
SplineSet
19 202 m 0
 19 195 21 190 29 188 c 0
 35 187 57 185 60 185 c 0
 62 185 72 187 74 188 c 1
 80 188 109 189 115 189 c 0
 161 189 208 185 254 185 c 0
 269 185 269 195 269 207 c 0
 269 218 268 229 255 233 c 0
 252 234 227 239 224 240 c 0
 205 247 190 271 190 291 c 2
 190 500 l 1
 188 510 187 513 187 520 c 0
 187 524 l 2
 187 533 190 573 190 582 c 1
 219 615 261 630 304 630 c 0
 323 630 348 629 361 613 c 0
 382 589 390 573 392 541 c 0
 392 538 392 513 392 510 c 0
 393 497 395 393 396 380 c 0
 396 379 396 372 396 369 c 0
 396 342 394 313 392 288 c 0
 388 229 320 233 320 226 c 2
 320 195 l 1
 327 188 l 1
 331 189 351 189 355 188 c 0
 356 188 367 185 368 185 c 0
 372 185 389 187 392 188 c 1
 557 188 l 1
 560 192 l 1
 560 192 561 200 561 203 c 0
 561 246 535 220 512 243 c 0
 489 266 489 284 488 315 c 0
 488 340 485 543 485 568 c 0
 485 575 l 2
 485 576 482 585 481 586 c 1
 481 589 476 614 474 616 c 1
 469 633 454 652 444 664 c 0
 440 669 425 684 423 685 c 0
 395 704 368 702 334 705 c 1
 334 705 331 706 330 706 c 0
 324 706 321 705 314 702 c 0
 307 700 288 693 286 692 c 0
 276 686 232 663 224 658 c 1
 220 654 198 638 194 634 c 1
 187 634 l 1
 187 652 191 670 191 689 c 0
 191 692 190 698 190 699 c 2
 187 702 l 1
 163 702 l 1
 91 675 l 1
 79 663 19 652 19 637 c 0
 19 633 27 625 29 623 c 2
 94 582 l 2
 95 582 97 541 98 524 c 1
 98 506 98 422 98 404 c 1
 102 390 101 381 101 367 c 0
 101 346 101 331 98 308 c 0
 93 273 84 241 46 229 c 0
 45 229 34 230 33 229 c 0
 20 227 19 212 19 202 c 0
228 943 m 0
 226 943 226 940 228 940 c 0
 230 940 230 943 228 943 c 0
EndSplineSet
EndChar

StartChar: _76
Encoding: 324 -1 82
Width: 320
VWidth: 0
Flags: W
LayerCount: 2
Fore
SplineSet
108 209 m 1
 138 175 156 178 199 178 c 0
 207 178 227 178 228 178 c 0
 232 179 266 188 276 192 c 0
 280 193 290 199 290 205 c 2
 290 243 l 1
 283 247 l 1
 248 245 210 239 190 274 c 1
 190 284 187 329 187 339 c 0
 187 350 186 472 186 514 c 0
 186 542 187 621 187 627 c 1
 190 634 l 1
 283 634 l 2
 285 634 290 644 290 644 c 1
 290 644 290 655 290 659 c 0
 290 668 292 679 283 685 c 1
 254 690 218 689 190 688 c 1
 187 692 l 1
 187 774 l 2
 187 781 171 781 168 781 c 0
 160 781 154 780 149 774 c 0
 147 771 131 749 129 747 c 0
 122 739 91 711 84 705 c 0
 77 700 41 676 33 671 c 1
 26 664 25 657 25 648 c 0
 25 646 26 641 26 640 c 2
 33 635 l 1
 88 635 l 2
 89 635 94 629 94 627 c 2
 94 627 94 624 94 622 c 0
 94 621 94 617 94 616 c 0
 94 609 91 549 91 541 c 0
 91 536 91 440 91 404 c 0
 91 384 91 288 91 267 c 1
 92 248 101 225 108 209 c 1
EndSplineSet
EndChar

StartChar: _77
Encoding: 325 -1 83
Width: 248
VWidth: 0
Flags: W
LayerCount: 2
Fore
SplineSet
12 25 m 0
 12 17 11 13 19 7 c 1
 21 7 30 7 33 7 c 0
 78 7 108 14 146 41 c 1
 168 58 190 78 204 103 c 0
 209 113 224 142 224 144 c 0
 225 146 232 189 235 205 c 0
 235 206 235 208 235 209 c 0
 235 239 228 262 217 291 c 0
 209 314 196 326 180 346 c 0
 166 363 140 367 120 367 c 0
 79 367 59 360 43 322 c 1
 43 319 42 304 42 301 c 0
 42 277 47 262 67 247 c 0
 70 244 80 238 80 238 c 1
 132 238 l 2
 133 238 143 232 146 229 c 0
 159 217 163 199 163 182 c 0
 163 148 156 120 135 92 c 0
 133 90 126 83 125 82 c 0
 123 81 97 69 87 65 c 0
 86 64 79 62 77 62 c 0
 58 57 38 58 19 51 c 1
 10 49 12 32 12 25 c 0
EndSplineSet
EndChar

StartChar: _78
Encoding: 326 -1 84
Width: 500
VWidth: 0
Flags: W
LayerCount: 2
Fore
SplineSet
41 314 m 0
 41 256 71 218 123 192 c 0
 133 187 149 188 159 188 c 0
 211 188 250 214 291 247 c 1
 294 247 l 1
 303 225 315 214 332 199 c 0
 343 189 355 188 368 188 c 0
 403 188 429 199 452 226 c 0
 453 227 455 232 455 233 c 2
 455 274 l 2
 455 278 449 278 447 278 c 0
 436 278 430 270 418 270 c 0
 414 270 404 269 401 274 c 0
 399 276 394 285 394 288 c 0
 392 294 387 323 387 329 c 0
 387 331 386 352 386 359 c 0
 386 364 387 379 387 380 c 2
 390 387 l 1
 389 399 387 457 387 469 c 0
 387 474 390 509 390 514 c 2
 390 515 l 2
 390 517 l 2
 390 525 387 591 387 599 c 0
 387 609 388 617 383 627 c 0
 371 652 356 673 332 688 c 0
 329 690 310 697 305 699 c 0
 296 701 255 708 246 709 c 1
 243 708 229 706 226 705 c 0
 225 705 220 706 219 705 c 0
 207 703 168 696 164 695 c 0
 152 692 147 684 137 678 c 0
 133 676 103 660 99 658 c 0
 75 641 56 611 55 582 c 0
 55 580 57 561 58 555 c 0
 61 542 75 507 90 507 c 0
 97 507 99 507 106 510 c 0
 115 514 141 526 144 527 c 0
 152 532 158 543 158 552 c 0
 158 572 134 591 137 610 c 0
 138 622 155 647 168 651 c 0
 172 652 194 657 199 658 c 1
 199 658 207 658 210 658 c 0
 241 658 262 641 281 616 c 1
 281 616 284 611 284 610 c 0
 286 603 291 587 291 586 c 2
 291 500 l 2
 291 498 284 491 281 490 c 0
 279 489 265 487 264 486 c 0
 256 484 220 472 212 469 c 0
 203 466 193 460 185 455 c 0
 136 431 88 413 58 366 c 0
 46 348 41 335 41 314 c 0
137 326 m 0
 137 348 140 369 157 384 c 0
 162 388 168 389 171 394 c 1
 264 442 l 2
 270 445 274 446 281 446 c 0
 284 446 290 447 291 442 c 0
 298 415 294 381 294 356 c 1
 295 353 298 328 298 325 c 0
 298 323 293 311 291 308 c 0
 286 301 269 282 267 281 c 0
 264 279 245 269 240 267 c 0
 234 265 208 258 202 257 c 1
 183 268 157 269 147 291 c 0
 145 296 138 316 137 318 c 0
 137 319 137 324 137 326 c 0
175 284 m 0
 175 286 171 286 171 284 c 0
 172 282 174 282 175 284 c 0
157 295 m 1
 159 292 160 291 163 291 c 2
 164 291 l 1
 163 294 162 295 159 295 c 2
 159 295 158 295 157 295 c 1
EndSplineSet
EndChar

StartChar: _79
Encoding: 327 -1 85
Width: 620
VWidth: 0
Flags: W
LayerCount: 2
Fore
SplineSet
39 205 m 0
 39 199 38 185 49 185 c 2
 282 185 l 2
 286 185 292 197 292 200 c 0
 292 202 l 2
 292 207 289 221 289 223 c 0
 285 237 269 233 258 236 c 0
 233 245 215 265 210 291 c 1
 211 379 207 466 207 554 c 0
 207 573 207 583 224 596 c 0
 253 619 286 630 323 630 c 0
 353 630 377 621 395 596 c 0
 398 591 408 572 409 568 c 0
 410 565 409 538 409 534 c 0
 409 533 412 525 412 524 c 0
 413 519 412 481 412 476 c 0
 412 467 415 399 416 390 c 1
 416 390 416 380 416 376 c 0
 416 373 416 364 416 363 c 0
 416 358 413 314 412 308 c 0
 410 268 405 243 361 233 c 0
 350 230 337 233 337 216 c 0
 337 215 339 203 340 199 c 0
 341 196 344 188 344 188 c 1
 577 188 l 2
 578 188 583 193 584 195 c 0
 584 196 584 202 584 205 c 0
 584 238 567 223 546 233 c 0
 519 245 511 275 508 301 c 1
 509 331 509 470 508 500 c 0
 508 513 503 576 501 589 c 0
 487 655 442 703 371 705 c 0
 364 706 335 703 330 702 c 0
 327 701 293 687 282 682 c 0
 268 675 250 664 238 654 c 1
 228 647 221 634 208 634 c 1
 208 638 206 651 207 654 c 0
 207 655 210 666 210 668 c 2
 210 668 211 679 211 683 c 0
 211 686 210 696 210 699 c 0
 208 705 197 706 191 706 c 1
 190 705 l 1
 188 705 181 703 179 702 c 0
 177 701 155 690 152 688 c 0
 143 685 72 658 63 654 c 0
 52 649 39 647 39 633 c 0
 39 618 101 595 114 579 c 1
 115 574 118 553 118 548 c 0
 118 534 118 424 118 411 c 0
 118 406 121 368 121 363 c 0
 121 356 116 301 114 284 c 0
 112 266 94 237 77 233 c 0
 72 232 50 227 46 226 c 1
 39 221 39 213 39 205 c 0
EndSplineSet
EndChar

StartChar: _80
Encoding: 328 -1 86
Width: 604
VWidth: 0
Flags: W
LayerCount: 2
Fore
SplineSet
38 426 m 2
 38 425 l 1
 39 419 44 372 45 366 c 0
 45 365 45 351 45 349 c 0
 45 348 51 340 52 339 c 0
 53 336 61 311 62 308 c 0
 103 227 156 174 253 174 c 0
 306 174 359 209 394 247 c 1
 396 247 l 2
 399 247 401 243 401 240 c 0
 401 239 401 230 401 226 c 0
 401 222 401 213 401 212 c 2
 401 212 398 206 398 205 c 0
 398 201 400 182 401 178 c 1
 403 178 411 178 413 178 c 0
 416 178 424 178 425 178 c 0
 426 178 434 181 435 182 c 0
 450 185 517 199 531 202 c 1
 539 200 538 203 545 205 c 0
 566 213 566 209 566 235 c 0
 566 238 566 246 565 247 c 2
 559 253 l 1
 521 253 l 2
 520 253 515 256 514 257 c 0
 511 259 504 266 504 267 c 0
 502 270 497 290 497 295 c 0
 497 298 497 322 497 325 c 0
 497 339 493 449 493 462 c 0
 493 536 493 882 493 955 c 1
 492 966 486 973 475 973 c 0
 442 973 417 952 387 942 c 0
 382 940 338 930 333 928 c 0
 326 926 315 918 315 911 c 0
 315 903 323 893 329 890 c 2
 380 866 l 2
 381 866 383 863 384 863 c 0
 385 863 390 860 391 860 c 0
 392 858 394 851 394 849 c 0
 394 846 394 822 394 818 c 0
 394 814 397 778 398 774 c 1
 398 772 l 2
 398 766 394 760 394 754 c 0
 394 739 398 725 398 710 c 0
 398 704 395 695 387 695 c 2
 384 695 l 1
 381 696 359 702 356 702 c 0
 349 703 315 708 309 709 c 0
 308 709 301 709 298 709 c 0
 252 709 202 694 165 668 c 0
 161 665 128 640 124 637 c 0
 123 636 117 634 117 634 c 2
 116 633 114 627 113 627 c 0
 112 626 104 621 103 620 c 0
 103 619 100 614 100 613 c 0
 98 610 81 585 79 582 c 0
 76 577 58 536 55 531 c 0
 55 530 49 522 48 521 c 0
 48 520 48 511 48 510 c 0
 47 502 39 436 38 428 c 1
 38 428 38 427 38 426 c 2
189 301 m 1
 186 311 176 317 172 325 c 0
 152 359 137 400 130 438 c 0
 130 439 130 451 130 456 c 0
 130 536 153 614 230 647 c 0
 242 652 250 658 264 658 c 0
 308 658 344 642 374 610 c 0
 389 593 387 571 394 551 c 1
 395 539 397 479 398 466 c 0
 398 457 397 385 398 377 c 0
 398 372 401 334 401 329 c 0
 401 328 401 324 401 323 c 0
 401 296 343 274 326 267 c 0
 325 267 320 264 319 264 c 0
 318 264 306 263 302 263 c 0
 297 263 285 264 285 264 c 2
 284 264 275 267 274 267 c 0
 273 267 259 267 257 267 c 0
 232 273 209 284 189 301 c 1
555 822 m 0
 556 824 547 824 548 822 c 0
 549 820 554 820 555 822 c 0
EndSplineSet
EndChar

StartChar: _81
Encoding: 329 -1 87
Width: 390
VWidth: 0
Flags: W
LayerCount: 2
Fore
SplineSet
40 206 m 0
 40 194 47 182 62 182 c 0
 67 182 94 184 99 185 c 1
 346 185 l 1
 346 226 l 2
 346 243 253 214 246 291 c 0
 245 302 243 348 243 356 c 0
 243 361 243 456 243 491 c 0
 243 512 243 607 243 627 c 0
 243 661 276 682 308 685 c 0
 311 685 330 685 332 685 c 0
 334 685 338 688 339 688 c 0
 343 694 343 704 343 711 c 0
 343 726 341 726 325 729 c 1
 324 729 l 2
 322 729 l 2
 316 729 269 726 264 726 c 0
 231 726 80 726 48 726 c 1
 42 723 41 714 41 707 c 0
 41 698 42 683 55 682 c 2
 106 675 l 2
 107 674 122 660 127 654 c 0
 132 648 136 635 137 627 c 0
 138 619 140 593 140 589 c 2
 140 301 l 2
 140 300 138 288 137 284 c 0
 127 249 112 236 75 233 c 0
 50 231 40 236 40 206 c 0
312 762 m 0
 310 762 310 759 312 759 c 0
 313 759 313 762 312 762 c 0
EndSplineSet
EndChar

StartChar: _82
Encoding: 330 -1 88
Width: 531
VWidth: 0
Flags: W
LayerCount: 2
Fore
SplineSet
35 205 m 0
 35 202 36 196 36 195 c 2
 43 188 l 2
 44 187 149 185 194 185 c 0
 266 185 439 187 440 188 c 2
 444 192 l 1
 448 205 469 268 474 281 c 0
 477 288 491 319 495 325 c 1
 495 327 495 333 495 334 c 2
 495 334 497 346 491 346 c 2
 457 346 l 1
 457 346 455 343 454 342 c 0
 452 341 448 333 447 332 c 0
 446 329 435 307 433 305 c 0
 426 294 411 286 399 281 c 1
 388 279 335 275 324 274 c 0
 320 274 287 274 283 274 c 0
 279 274 249 271 245 271 c 0
 239 271 200 273 190 274 c 0
 188 274 178 277 176 277 c 1
 176 278 176 280 176 281 c 0
 176 286 226 317 228 318 c 0
 249 333 269 351 289 366 c 0
 291 368 298 372 300 373 c 2
 399 462 l 2
 421 482 434 514 444 541 c 0
 447 551 447 563 447 574 c 0
 447 601 438 635 423 658 c 0
 387 711 326 744 262 744 c 0
 258 744 239 743 235 743 c 1
 220 737 205 738 190 733 c 0
 160 723 132 704 108 685 c 0
 105 683 83 660 81 658 c 0
 73 651 63 649 63 637 c 0
 63 621 78 609 93 609 c 0
 94 609 97 610 98 610 c 0
 99 610 107 616 108 616 c 0
 122 624 163 646 166 647 c 0
 185 656 210 658 231 658 c 0
 262 658 286 649 310 630 c 0
 320 622 336 607 341 592 c 0
 346 578 345 574 345 557 c 0
 345 525 335 494 313 469 c 0
 303 457 252 402 241 390 c 1
 228 382 216 370 204 360 c 0
 193 351 154 319 149 315 c 0
 117 290 85 265 53 240 c 0
 51 238 41 228 39 226 c 0
 34 220 35 213 35 205 c 0
EndSplineSet
EndChar

StartChar: _83
Encoding: 331 -1 89
Width: 478
VWidth: 0
Flags: W
LayerCount: 2
Fore
SplineSet
34 52 m 0
 34 26 58 7 82 3 c 0
 88 3 117 3 123 3 c 0
 210 3 276 18 346 72 c 0
 354 78 380 102 383 106 c 0
 388 111 414 152 421 164 c 0
 430 181 440 207 442 226 c 0
 442 228 442 253 442 262 c 0
 442 267 442 293 442 298 c 1
 429 339 414 371 380 397 c 0
 374 402 343 421 335 425 c 1
 331 423 304 437 304 443 c 0
 304 446 305 447 308 449 c 0
 311 450 333 461 335 462 c 0
 344 468 375 492 380 497 c 0
 383 500 395 516 397 521 c 0
 400 528 410 559 411 565 c 0
 411 566 411 580 411 585 c 0
 411 641 393 668 352 705 c 1
 338 719 330 726 311 733 c 0
 288 742 263 743 238 743 c 0
 233 743 220 743 219 743 c 0
 214 743 181 738 171 736 c 0
 169 736 162 734 161 733 c 0
 153 728 117 704 109 699 c 1
 95 688 51 656 51 634 c 0
 51 628 60 613 65 610 c 0
 71 605 80 599 89 599 c 0
 94 599 95 600 99 606 c 0
 109 620 111 617 123 627 c 0
 125 628 135 639 137 640 c 0
 142 643 163 653 168 654 c 0
 169 655 186 654 188 654 c 0
 189 654 194 658 195 658 c 0
 196 658 208 658 213 658 c 0
 274 658 312 614 312 555 c 0
 312 477 250 453 185 432 c 0
 168 426 157 422 137 418 c 0
 128 416 111 417 106 408 c 0
 104 405 99 388 99 384 c 0
 98 377 105 369 109 366 c 1
 166 362 243 370 291 332 c 1
 294 329 l 2
 296 328 307 320 308 318 c 0
 309 318 311 315 311 315 c 1
 318 305 337 274 339 271 c 0
 348 253 349 233 349 214 c 0
 349 167 331 123 298 89 c 1
 272 77 245 72 217 72 c 0
 182 72 146 77 116 92 c 0
 113 94 101 99 99 99 c 2
 99 99 92 100 90 100 c 0
 61 100 41 88 34 58 c 1
 34 58 34 53 34 52 c 0
246 625 m 0
 245 625 245 622 246 622 c 0
 248 622 248 625 246 625 c 0
EndSplineSet
EndChar

StartChar: _84
Encoding: 332 -1 90
Width: 536
VWidth: 0
Flags: W
LayerCount: 2
Fore
SplineSet
19 229 m 0
 19 222 18 192 26 192 c 2
 283 192 l 2
 290 192 293 184 293 178 c 2
 293 17 l 2
 293 14 297 9 300 7 c 1
 302 7 311 7 314 7 c 0
 327 7 l 2
 328 7 333 10 334 10 c 0
 335 10 340 8 341 7 c 1
 379 7 l 2
 382 7 388 18 389 21 c 0
 390 37 392 114 392 130 c 0
 392 139 392 180 392 188 c 1
 396 192 l 1
 492 192 l 2
 493 192 500 194 502 195 c 0
 503 196 505 198 505 199 c 2
 505 260 l 2
 505 265 500 271 495 271 c 2
 389 271 l 1
 389 462 l 1
 390 468 392 494 392 500 c 0
 392 509 389 577 389 586 c 0
 389 609 389 720 389 743 c 1
 382 750 l 1
 382 750 370 751 366 751 c 0
 360 751 342 750 341 750 c 0
 327 749 328 741 320 729 c 0
 310 714 299 698 290 682 c 0
 270 650 222 573 221 572 c 2
 218 568 l 1
 81 346 l 2
 80 345 78 343 77 342 c 0
 73 337 61 320 60 318 c 0
 58 315 42 284 40 281 c 0
 38 279 27 266 26 264 c 0
 19 250 19 242 19 229 c 0
276 173 m 0
 274 173 274 170 276 170 c 0
 278 170 278 173 276 173 c 0
91 276 m 2
 91 277 l 1
 92 279 97 289 98 291 c 0
 148 377 201 461 255 545 c 0
 263 557 283 586 283 586 c 1
 290 582 l 1
 290 582 292 568 293 562 c 0
 293 561 293 558 293 557 c 0
 293 528 289 499 289 470 c 0
 289 451 293 434 293 416 c 2
 293 416 293 415 293 414 c 0
 293 410 290 374 290 370 c 0
 290 367 293 345 293 342 c 2
 293 342 293 336 293 334 c 0
 293 314 288 297 290 277 c 1
 283 271 l 1
 232 272 182 267 131 267 c 0
 115 267 l 2
 113 267 101 270 98 271 c 0
 93 272 91 272 91 276 c 2
EndSplineSet
EndChar

StartChar: _85
Encoding: 333 -1 91
Width: 486
VWidth: 0
Flags: W
LayerCount: 2
Fore
SplineSet
36 44 m 0
 36 38 l 1
 49 13 86 16 104 3 c 1
 127 6 148 8 170 10 c 0
 173 11 187 13 190 14 c 0
 220 21 255 40 279 58 c 0
 292 68 338 107 344 113 c 0
 347 116 369 147 372 151 c 0
 389 174 407 213 416 240 c 0
 416 241 416 249 416 250 c 0
 419 271 423 290 423 311 c 0
 423 340 418 366 406 394 c 0
 405 397 390 418 389 421 c 0
 388 422 386 427 385 428 c 0
 380 435 351 466 344 473 c 0
 341 475 316 491 313 493 c 1
 313 493 310 496 310 497 c 2
 235 541 l 1
 232 541 223 544 221 545 c 0
 215 547 186 562 180 565 c 0
 180 566 179 571 179 572 c 0
 179 579 203 639 214 640 c 1
 222 639 261 634 269 634 c 1
 281 632 286 636 296 630 c 1
 309 630 369 633 382 634 c 0
 391 634 398 634 402 640 c 0
 404 642 415 659 416 661 c 0
 417 662 426 670 426 671 c 0
 427 673 432 693 433 695 c 0
 440 712 447 721 447 739 c 0
 447 741 447 746 447 747 c 0
 445 750 433 762 430 764 c 0
 429 764 421 765 418 765 c 0
 388 765 397 741 378 733 c 0
 365 727 353 726 339 726 c 0
 305 726 271 737 236 737 c 0
 222 737 205 738 197 723 c 2
 159 651 l 1
 159 647 l 1
 115 568 l 2
 114 567 112 560 111 558 c 0
 106 547 79 497 74 486 c 1
 84 476 l 1
 180 442 l 2
 181 441 188 436 190 435 c 0
 191 434 199 432 200 432 c 0
 228 418 250 410 272 390 c 1
 279 385 308 359 313 353 c 0
 314 352 319 345 320 342 c 0
 326 331 343 295 344 291 c 0
 348 280 348 260 348 248 c 0
 348 232 348 222 344 205 c 0
 338 178 306 128 286 113 c 0
 280 109 261 97 259 96 c 0
 238 89 215 89 193 89 c 0
 173 89 162 88 142 92 c 0
 141 93 136 96 135 96 c 0
 129 97 102 102 98 103 c 0
 97 103 89 103 86 103 c 0
 57 103 36 71 36 44 c 0
194 430 m 0
 192 430 192 426 194 426 c 0
 195 426 195 430 194 430 c 0
EndSplineSet
EndChar

StartChar: _86
Encoding: 334 -1 92
Width: 524
VWidth: 0
Flags: W
LayerCount: 2
Fore
SplineSet
136 219 m 0
 143 215 179 198 187 195 c 0
 198 192 248 182 259 182 c 1
 266 188 271 184 280 185 c 0
 287 186 323 193 331 195 c 0
 332 195 337 198 338 199 c 0
 339 199 350 202 351 202 c 0
 364 208 400 227 403 229 c 0
 411 235 442 266 447 274 c 0
 448 276 450 283 451 284 c 0
 453 289 473 330 475 336 c 0
 475 337 478 351 478 353 c 0
 486 381 489 397 489 427 c 0
 489 455 487 490 475 517 c 0
 472 524 450 567 444 579 c 0
 443 581 438 588 437 589 c 0
 431 596 407 620 403 623 c 0
 402 624 391 629 389 630 c 0
 388 631 380 637 379 637 c 0
 367 642 328 654 324 654 c 0
 323 654 303 655 296 655 c 0
 279 655 261 657 245 651 c 0
 234 646 181 625 170 620 c 1
 170 620 169 620 168 620 c 0
 164 620 163 625 163 628 c 0
 163 641 168 644 173 654 c 0
 175 657 189 685 191 688 c 0
 193 693 205 710 208 712 c 2
 300 812 l 2
 302 814 334 838 345 846 c 0
 346 847 357 852 358 853 c 0
 360 854 371 862 372 863 c 0
 384 870 442 901 454 908 c 1
 454 918 l 2
 454 919 433 936 423 942 c 0
 421 943 412 945 410 945 c 0
 407 945 391 940 386 938 c 0
 384 938 367 929 365 928 c 0
 359 926 330 916 324 914 c 0
 321 912 318 908 317 904 c 1
 201 829 l 2
 198 827 167 798 156 788 c 1
 134 765 116 739 98 712 c 0
 95 708 92 702 88 699 c 1
 81 686 55 623 50 610 c 0
 50 608 43 572 40 558 c 0
 33 523 32 491 32 455 c 0
 32 444 33 415 33 414 c 0
 35 400 51 336 57 322 c 0
 62 310 90 260 98 250 c 1
 103 246 127 227 132 223 c 0
 133 222 135 220 136 219 c 0
251 583 m 0
 255 583 265 582 266 582 c 0
 274 581 305 571 310 568 c 0
 315 566 334 552 338 548 c 0
 341 545 355 523 358 517 c 0
 360 515 368 492 369 490 c 0
 369 489 372 484 372 483 c 2
 372 483 375 480 375 479 c 0
 376 478 375 467 375 466 c 0
 376 462 382 435 382 432 c 0
 382 430 383 408 383 399 c 0
 383 360 377 327 362 291 c 0
 357 281 352 279 345 271 c 0
 344 270 339 261 338 260 c 0
 336 258 326 251 324 250 c 0
 316 246 290 234 286 233 c 1
 286 233 277 233 273 233 c 0
 243 233 212 234 194 260 c 0
 174 290 159 317 149 353 c 0
 147 361 143 387 143 390 c 2
 143 541 l 2
 143 556 191 573 201 575 c 0
 207 577 231 582 235 582 c 0
 236 582 247 583 251 583 c 0
160 389 m 0
 158 389 158 385 160 385 c 0
 161 385 161 389 160 389 c 0
252 526 m 0
 250 526 250 522 252 522 c 0
 254 522 254 526 252 526 c 0
290 533 m 0
 288 533 288 529 290 529 c 0
 292 529 292 533 290 533 c 0
393 858 m 0
 391 858 391 854 393 854 c 0
 394 854 394 858 393 858 c 0
EndSplineSet
EndChar

StartChar: _87
Encoding: 335 -1 93
Width: 507
VWidth: 0
Flags: W
LayerCount: 2
Fore
SplineSet
147 24 m 1
 150 15 159 7 168 7 c 0
 210 7 209 43 223 75 c 0
 224 77 232 91 233 92 c 0
 242 112 246 136 257 154 c 0
 258 155 263 163 264 164 c 0
 266 169 278 201 281 209 c 0
 282 211 284 221 284 223 c 2
 367 421 l 1
 367 428 l 1
 483 712 l 2
 483 713 483 715 483 716 c 0
 483 719 483 721 480 723 c 1
 387 721 296 726 204 726 c 0
 191 726 133 726 120 726 c 0
 115 726 91 723 86 723 c 0
 69 720 65 693 65 682 c 1
 31 562 l 2
 31 561 31 559 31 558 c 0
 31 547 48 548 55 548 c 0
 62 548 75 546 79 555 c 0
 92 582 95 609 127 616 c 0
 133 618 162 625 168 627 c 1
 367 627 l 2
 377 627 381 620 381 611 c 0
 381 610 380 606 380 606 c 1
 343 527 l 1
 337 492 314 452 302 421 c 0
 283 373 266 322 247 274 c 0
 246 271 234 249 233 247 c 0
 232 244 227 225 226 223 c 0
 225 220 214 198 213 195 c 0
 207 182 183 117 178 103 c 1
 168 92 173 92 168 79 c 0
 167 76 155 51 154 48 c 0
 153 44 148 28 147 24 c 1
EndSplineSet
EndChar

StartChar: _88
Encoding: 336 -1 94
Width: 495
VWidth: 0
Flags: W
LayerCount: 2
Fore
SplineSet
39 363 m 0
 39 343 38 316 49 298 c 0
 56 288 75 259 77 257 c 0
 116 207 190 185 251 185 c 0
 344 185 414 235 447 322 c 1
 446 322 446 325 447 325 c 1
 447 327 450 338 450 339 c 0
 450 340 450 360 450 368 c 0
 450 441 408 502 354 548 c 0
 350 551 317 576 313 579 c 0
 311 580 304 588 303 589 c 1
 303 589 303 590 303 591 c 0
 303 602 316 605 323 610 c 0
 346 625 368 649 385 668 c 0
 386 669 391 677 392 678 c 0
 393 679 401 687 402 688 c 0
 407 695 421 719 423 723 c 0
 424 727 434 760 436 771 c 1
 436 771 436 774 436 776 c 0
 436 781 l 2
 436 782 433 787 433 788 c 0
 428 808 426 827 416 846 c 0
 412 852 400 871 399 873 c 0
 393 879 359 908 351 914 c 0
 319 937 275 942 238 942 c 0
 234 942 214 942 210 942 c 1
 209 941 202 939 200 938 c 0
 199 938 194 935 193 935 c 0
 189 934 156 926 152 925 c 0
 145 922 119 908 114 904 c 0
 109 900 83 874 77 866 c 0
 50 835 42 799 42 759 c 0
 42 747 l 1
 44 738 53 702 56 695 c 0
 79 634 130 601 179 562 c 0
 183 559 183 559 183 555 c 0
 183 549 182 549 176 545 c 1
 171 540 126 508 121 503 c 0
 112 495 74 455 66 445 c 1
 62 438 46 405 42 397 c 1
 39 388 39 373 39 363 c 0
135 353 m 0
 135 384 143 410 152 438 c 0
 153 440 155 451 155 452 c 0
 160 462 170 466 173 476 c 1
 217 521 l 1
 217 521 221 521 223 521 c 0
 239 521 251 503 262 493 c 0
 293 464 323 438 347 401 c 0
 360 380 361 360 361 336 c 0
 361 289 338 244 289 233 c 1
 284 233 263 233 258 233 c 0
 242 233 226 231 210 236 c 0
 162 253 135 304 135 353 c 0
131 789 m 0
 131 799 131 816 135 825 c 0
 154 866 195 897 241 897 c 0
 285 897 310 875 330 839 c 0
 339 823 351 802 351 783 c 0
 351 738 338 713 316 678 c 0
 309 667 279 620 269 620 c 0
 253 620 242 638 231 647 c 0
 230 648 225 650 224 651 c 0
 206 664 187 683 173 699 c 0
 149 725 131 753 131 789 c 0
EndSplineSet
EndChar

StartChar: _89
Encoding: 337 -1 95
Width: 522
VWidth: 0
Flags: W
LayerCount: 2
Fore
SplineSet
58 46 m 0
 58 35 79 14 91 14 c 2
 92 14 l 2
 93 14 101 17 102 17 c 0
 105 17 121 17 123 17 c 0
 125 17 142 23 144 24 c 0
 147 25 171 30 174 31 c 0
 176 31 183 34 185 34 c 0
 197 40 238 59 243 62 c 0
 268 75 290 95 315 110 c 1
 325 120 373 168 383 178 c 0
 385 180 399 197 400 199 c 1
 402 200 413 211 414 212 c 0
 468 279 486 383 486 466 c 0
 486 543 474 589 435 658 c 0
 434 659 429 663 428 664 c 0
 426 666 416 680 414 682 c 0
 370 726 333 751 269 751 c 0
 226 751 179 751 144 723 c 0
 135 715 106 691 102 688 c 1
 102 688 97 679 96 678 c 0
 94 676 87 669 85 668 c 1
 54 617 33 569 33 509 c 0
 33 505 34 487 34 483 c 1
 35 482 37 477 37 476 c 0
 38 472 43 439 44 435 c 0
 48 420 53 403 61 390 c 0
 90 347 124 304 178 291 c 0
 198 286 219 284 240 284 c 0
 246 284 l 1
 258 286 294 293 298 295 c 0
 302 296 332 313 335 315 c 0
 338 316 350 321 352 322 c 1
 357 321 356 314 356 311 c 0
 356 297 350 283 342 271 c 0
 335 260 302 209 294 199 c 0
 293 197 285 190 284 188 c 0
 283 188 281 182 281 182 c 1
 268 168 250 148 233 137 c 0
 229 135 202 118 198 116 c 0
 197 116 186 107 185 106 c 0
 175 101 144 84 140 82 c 0
 134 80 81 64 75 62 c 0
 66 58 58 56 58 46 c 0
195 190 m 0
 195 188 196 186 198 185 c 1
 198 195 l 1
 196 194 195 192 195 190 c 0
192 202 m 0
 189 203 189 194 192 195 c 0
 194 196 194 201 192 202 c 0
137 543 m 2
 137 545 l 1
 140 565 141 587 147 606 c 0
 148 609 160 631 161 634 c 1
 161 637 l 1
 177 675 212 706 255 706 c 0
 271 706 289 700 301 695 c 0
 302 695 312 688 315 685 c 0
 323 678 342 659 342 658 c 2
 370 589 l 2
 372 584 381 514 383 490 c 0
 383 489 384 465 384 457 c 0
 384 447 383 420 383 418 c 0
 383 416 381 404 380 401 c 0
 378 394 377 384 370 380 c 0
 363 377 332 362 325 360 c 0
 309 353 293 353 277 349 c 1
 277 349 276 349 275 349 c 2
 274 349 l 1
 270 350 243 359 239 360 c 0
 238 360 230 359 229 360 c 0
 217 363 208 368 198 377 c 0
 185 389 163 409 157 428 c 0
 147 465 137 505 137 543 c 2
EndSplineSet
EndChar

StartChar: _90
Encoding: 338 -1 96
Width: 557
VWidth: 0
Flags: W
LayerCount: 2
Fore
SplineSet
199 185 m 1
 202 185 l 1
 205 184 227 179 230 178 c 0
 252 174 269 174 291 174 c 0
 326 174 361 184 391 202 c 0
 462 246 500 320 514 401 c 1
 514 409 515 449 515 457 c 0
 515 489 517 523 507 555 c 0
 506 558 495 579 493 582 c 1
 493 584 490 591 490 592 c 2
 446 654 l 1
 432 660 426 672 415 682 c 1
 411 684 395 696 391 699 c 0
 383 703 352 720 346 723 c 0
 321 734 292 733 265 733 c 0
 236 733 209 723 182 712 c 0
 180 712 176 709 175 709 c 0
 141 685 103 661 83 623 c 0
 79 617 65 589 62 582 c 0
 49 536 38 492 38 445 c 0
 38 443 38 439 38 438 c 0
 41 421 50 363 52 356 c 0
 69 281 130 215 199 185 c 1
116 455 m 0
 116 464 117 486 117 486 c 2
 118 493 130 536 134 548 c 0
 160 621 206 662 285 662 c 0
 340 662 377 635 404 589 c 0
 408 583 425 551 428 545 c 0
 429 544 431 534 432 531 c 0
 436 508 439 486 439 463 c 0
 439 431 435 401 428 370 c 0
 428 368 426 361 425 360 c 0
 404 315 381 277 336 253 c 0
 331 251 314 243 312 243 c 2
 312 243 299 243 294 243 c 0
 277 243 257 243 240 247 c 0
 238 247 226 252 223 253 c 0
 197 268 181 282 161 305 c 0
 124 349 116 399 116 455 c 0
233 289 m 0
 231 289 231 286 233 286 c 0
 235 286 235 289 233 289 c 0
192 557 m 0
 190 557 190 553 192 553 c 0
 194 553 194 557 192 557 c 0
EndSplineSet
EndChar

StartChar: a
Encoding: 97 97 97
Width: 503
VWidth: 0
Flags: W
HStem: -6.06673 83.0667<362.827 439.206> -5 73<154.207 247.233> 465 52.122<151.649 274.893>
VStem: 41 96<84.7182 184.809> 54 86<340.29 452.811> 298 96<119.097 129 249 255.999 338 440.566>
LayerCount: 2
Back
SplineSet
41 115 m 0xb4
 41 86 51 58 72 37 c 0
 90 19 113 -3 140 -4 c 0
 141 -4 158 -5 164 -5 c 0
 178 -5 189 -6 202 -1 c 0
 210 2 236 14 240 16 c 0
 263 30 277 45 298 57 c 0
 299 57 301 55 301 54 c 0
 303 51 320 23 322 20 c 0
 333 3 354 -5 373 -5 c 0
 401 -5 443 8 455 37 c 0
 460 47 459 56 459 68 c 0x6c
 459 70 459 82 459 85 c 1
 457 88 456 88 454 88 c 0
 442 88 435 77 421 77 c 0
 399 77 394 104 394 122 c 0
 394 152 394 288 394 318 c 0
 394 333 391 405 390 420 c 1
 374 496 305 517 234 517 c 0
 184 517 120 485 82 455 c 1
 73 430 54 426 54 391 c 0xac
 54 374 54 366 62 349 c 1
 66 338 77 314 92 314 c 0
 99 314 l 1
 103 316 133 330 137 331 c 0xb4
 138 332 146 334 147 335 c 0
 151 337 160 347 161 349 c 2
 161 349 162 356 162 358 c 0
 162 379 140 392 140 412 c 0xac
 140 418 140 420 144 427 c 1
 159 463 182 465 219 465 c 0
 256 465 290 438 294 400 c 0
 295 396 297 353 298 338 c 0
 298 337 298 325 298 322 c 0
 298 311 l 1
 291 304 l 1
 120 232 l 1
 102 217 82 211 68 191 c 0
 65 187 49 156 44 146 c 0
 40 137 41 125 41 115 c 0xb4
137 133 m 0x74
 137 159 147 184 171 198 c 0
 183 205 245 238 260 246 c 0
 268 250 284 256 293 256 c 0
 296 256 297 255 298 249 c 1
 298 232 301 150 301 133 c 2
 301 131 l 2
 301 129 l 2
 301 128 299 121 298 119 c 0
 271 89 245 68 203 68 c 0
 173 68 151 98 140 122 c 0x6c
 139 125 137 132 137 133 c 0x74
EndSplineSet
Fore
SplineSet
394 339 m 2xb4
 394 466.416 355.106 517.122 226.291 517.122 c 0
 134.636 517.122 54 465.322 54 391 c 0
 54 366.386 65.6419 314 92 314 c 0
 115.621 314 162 336.174 162 358 c 0
 162 379 140 392 140 412 c 0xac
 140 457.461 183.631 465 219 465 c 0
 288.06 465 298 412 298 338 c 2
 298 311 l 1
 291 304 l 1
 148 246 l 2
 99.2065 226.21 41 190.807 41 115 c 0
 41 48.5961 95.4316 -5 164 -5 c 0x74
 233.077 -5 287.985 39.5161 306 64 c 1
 313.068 24.1227 339.628 -6.06673 386.026 -6.06673 c 0xb4
 424 -6.06673 459 21.1348 459 68 c 0x74
 459 75.3214 456.048 88 454 88 c 0
 442 88 435 77 421 77 c 0
 399 77 394 104 394 122 c 2
 394 339 l 2xb4
301 133 m 2
 301 129 l 2
 301 128 299 121 298 119 c 0
 271 89 245 68 203 68 c 0
 175.886 68 137 87.5652 137 133 c 0x74
 137 198.633 211.565 220.168 260 246 c 0
 268 250 284 256 293 256 c 0
 296 256 297 255 298 249 c 1
 298 232 301 150 301 133 c 2
EndSplineSet
EndChar

StartChar: b
Encoding: 98 98 98
Width: 603
VWidth: 0
Flags: W
LayerCount: 2
Fore
SplineSet
95 137 m 1
 109 129 173 98 188 93 c 0
 199 89 254 77 267 75 c 0
 269 75 298 74 308 74 c 0
 391 74 467 113 515 181 c 0
 522 191 544 225 546 230 c 0
 547 234 560 274 563 287 c 0
 571 315 568 343 568 372 c 0
 568 385 568 418 568 419 c 0
 567 426 558 463 554 472 c 0
 538 517 508 562 471 592 c 1
 468 593 447 603 444 605 c 0
 434 610 425 617 413 618 c 0
 409 619 373 622 369 623 c 0
 368 623 356 623 352 623 c 0
 328 623 311 612 290 605 c 0
 289 605 282 605 281 605 c 0
 280 605 273 602 272 600 c 1
 266 597 220 564 214 561 c 1
 211 558 208 556 203 556 c 0
 200 556 199 557 197 561 c 0
 197 563 197 576 197 578 c 0
 197 614 201 649 201 685 c 0
 201 696 197 706 197 717 c 0
 197 718 197 719 197 720 c 0
 197 722 201 743 201 746 c 0
 201 752 201 798 201 804 c 0
 201 812 205 883 206 892 c 1
 206 892 206 896 206 897 c 0
 206 907 191 906 185 906 c 0
 182 906 175 905 175 905 c 2
 172 904 151 893 148 892 c 0
 113 878 74 870 38 857 c 1
 33 851 33 845 33 838 c 0
 33 813 89 804 104 781 c 1
 104 767 104 701 104 687 c 0
 104 587 103 488 100 389 c 0
 97 309 91 230 91 151 c 0
 91 145 90 142 95 137 c 1
267 534 m 1
 273 534 299 535 305 535 c 0
 323 535 346 536 365 530 c 0
 447 500 480 399 480 319 c 0
 480 292 477 267 471 238 c 0
 466 217 449 192 435 177 c 1
 403 139 378 123 328 123 c 0
 268 123 197 162 197 230 c 2
 197 490 l 2
 197 509 252 531 267 534 c 1
188 146 m 0
 187 143 184 143 184 146 c 1
 183 148 189 148 188 146 c 0
148 225 m 1
 166 225 l 1
 164 219 151 219 148 219 c 1
 148 225 l 1
501 479 m 0
 504 479 504 475 501 475 c 0
 499 475 499 479 501 479 c 0
338 563 m 0
 340 563 340 558 338 558 c 0
 336 558 336 563 338 563 c 0
184 594 m 0
 186 594 186 589 184 589 c 0
 181 589 181 594 184 594 c 0
157 669 m 0
 159 669 159 664 157 664 c 0
 155 664 155 669 157 669 c 0
153 819 m 0
 155 819 155 815 153 815 c 0
 150 815 150 819 153 819 c 0
EndSplineSet
EndChar

StartChar: c
Encoding: 99 99 99
Width: 479
VWidth: 0
Flags: W
LayerCount: 2
Fore
SplineSet
185 192 m 1
 253 178 l 1
 272 184 293 184 311 188 c 0
 364 201 399 244 431 284 c 0
 434 288 441 297 442 298 c 1
 442 298 442 305 442 307 c 0
 442 315 l 1
 441 316 431 324 428 325 c 0
 428 326 425 326 425 326 c 1
 418 326 417 323 411 318 c 1
 408 317 389 300 387 298 c 0
 380 294 349 277 342 274 c 1
 324 275 307 270 289 270 c 0
 220 270 154 320 130 384 c 0
 118 414 116 447 116 480 c 0
 116 488 116 509 116 510 c 0
 117 521 125 538 123 551 c 1
 132 585 147 615 174 637 c 1
 175 636 177 636 178 637 c 0
 179 638 181 643 181 644 c 0
 202 656 228 665 253 665 c 0
 318 665 343 632 363 572 c 1
 368 564 379 558 388 558 c 0
 389 558 393 558 394 558 c 0
 430 566 438 577 438 616 c 0
 438 669 378 701 332 705 c 0
 322 706 277 711 267 712 c 1
 254 710 194 693 181 688 c 0
 173 685 137 666 130 661 c 0
 129 660 127 658 126 658 c 0
 125 656 111 645 109 644 c 0
 108 643 103 634 102 634 c 0
 101 632 90 621 89 620 c 0
 54 568 34 514 34 452 c 0
 34 427 39 402 37 377 c 1
 40 367 52 324 55 315 c 0
 55 313 60 304 61 301 c 0
 83 268 109 233 144 212 c 1
 144 212 153 209 154 209 c 0
 159 207 180 195 185 192 c 1
EndSplineSet
EndChar

StartChar: comma
Encoding: 44 44 100
Width: 248
VWidth: 0
Flags: W
LayerCount: 2
Fore
SplineSet
12 25 m 0
 12 17 11 13 19 7 c 1
 21 7 30 7 33 7 c 0
 78 7 108 14 146 41 c 1
 168 58 190 78 204 103 c 0
 209 113 224 142 224 144 c 0
 225 146 232 189 235 205 c 0
 235 206 235 208 235 209 c 0
 235 239 228 262 217 291 c 0
 209 314 196 326 180 346 c 0
 166 363 140 367 120 367 c 0
 79 367 59 360 43 322 c 1
 43 319 42 304 42 301 c 0
 42 277 47 262 67 247 c 0
 70 244 80 238 80 238 c 1
 132 238 l 2
 133 238 143 232 146 229 c 0
 159 217 163 199 163 182 c 0
 163 148 156 120 135 92 c 0
 133 90 126 83 125 82 c 0
 123 81 97 69 87 65 c 0
 86 64 79 62 77 62 c 0
 58 57 38 58 19 51 c 1
 10 49 12 32 12 25 c 0
EndSplineSet
EndChar

StartChar: d
Encoding: 100 100 101
Width: 584
VWidth: 0
Flags: W
LayerCount: 2
Fore
SplineSet
337 94 m 0
 336 94 336 91 337 91 c 0
 339 91 339 94 337 94 c 0
29 430 m 0
 29 422 29 402 29 401 c 0
 29 395 34 366 36 360 c 0
 53 297 96 225 156 195 c 0
 183 182 220 183 248 182 c 1
 250 182 l 2
 275 182 303 195 324 209 c 0
 329 213 373 246 378 250 c 0
 379 251 384 253 385 253 c 0
 386 254 388 253 389 253 c 1
 389 188 l 1
 389 188 393 183 395 182 c 2
 395 182 396 181 397 181 c 0
 409 181 418 189 430 192 c 0
 468 201 509 203 546 216 c 0
 555 219 553 236 553 241 c 0
 553 244 553 255 553 257 c 0
 552 261 549 260 546 260 c 0
 540 260 534 257 527 257 c 0
 497 257 482 275 481 305 c 0
 481 314 481 391 481 401 c 0
 481 404 478 428 478 432 c 0
 478 433 477 462 477 474 c 0
 477 593 481 712 481 830 c 0
 481 850 481 943 481 962 c 1
 480 975 473 980 462 980 c 0
 431 980 408 962 378 952 c 0
 369 949 326 937 317 935 c 1
 310 930 306 924 306 916 c 0
 306 911 l 1
 307 909 315 902 317 901 c 0
 325 897 361 880 368 877 c 1
 372 874 385 867 385 860 c 2
 385 705 l 2
 385 701 379 702 377 702 c 0
 376 702 372 702 371 702 c 0
 341 707 309 716 277 716 c 0
 254 716 216 709 197 699 c 0
 187 693 153 674 149 671 c 0
 105 642 70 605 50 555 c 0
 46 546 34 505 32 497 c 1
 33 495 33 485 32 483 c 0
 32 481 29 464 29 462 c 0
 29 461 29 438 29 430 c 0
132 384 m 1
 132 384 132 386 132 387 c 0
 130 393 119 442 118 449 c 1
 118 449 118 468 118 475 c 0
 118 483 118 505 118 507 c 0
 118 508 121 519 121 521 c 1
 122 522 122 529 121 531 c 1
 124 539 139 577 142 586 c 0
 158 627 210 665 254 665 c 0
 321 665 369 631 382 565 c 0
 382 564 385 553 385 551 c 0
 386 547 385 508 385 503 c 0
 386 487 388 352 389 336 c 0
 389 335 389 329 389 327 c 0
 389 314 373 300 361 295 c 1
 355 291 319 275 310 271 c 0
 308 270 301 268 300 267 c 1
 298 267 l 2
 296 267 l 1
 241 274 186 279 156 332 c 0
 151 340 135 376 132 384 c 1
491 334 m 0
 490 334 490 330 491 330 c 0
 493 330 493 334 491 334 c 0
498 334 m 0
 496 334 496 330 498 330 c 0
 500 330 500 334 498 334 c 0
498 517 m 0
 499 519 494 519 495 517 c 0
 495 515 498 515 498 517 c 0
224 762 m 0
 222 762 222 759 224 759 c 0
 226 759 226 762 224 762 c 0
211 832 m 1
 214 829 l 1
 214 832 l 1
 211 832 l 1
207 837 m 0
 205 837 205 834 207 834 c 0
 209 834 209 837 207 837 c 0
EndSplineSet
EndChar

StartChar: e
Encoding: 101 101 102
Width: 457
VWidth: 0
Flags: W
HStem: -11.4227 88.9219<192.166 336.467> 314 38.1895<107.039 114 317.147 325.312> 472.001 45.9194<158.268 284.051>
VStem: 18.5701 88.4299<174.789 379.289>
LayerCount: 2
Back
SplineSet
414 136 m 6
 395.54 136 366.013 77.4992 272.558 77.4992 c 4
 159.679 77.4992 104 177.523 104 291 c 4
 103.01 301.99 104.188 310.812 111 314 c 5
 358 314 l 6
 382.549 314 421.879 316.879 426 321 c 4
 426 322 427 330 427 333 c 4
 427 336 426 347 426 349 c 4
 414.15 443.803 335.004 517.871 235.735 517.871 c 4
 82.8641 517.871 24.9442 356.71 24.9442 279.121 c 4
 24.9442 104.819 92.3951 -11.1142 258.086 -11.1142 c 4
 347.411 -11.1142 416.08 60.1868 433 105 c 5
 433 112 l 6
 433 125 428 129 416 136 c 5
 414 136 l 6
107 359 m 4
 107 415.864 168.858 472 222 472 c 4
 286.979 472 325.314 396.771 325.314 365.441 c 4
 325.314 357.202 322.663 351.999 317.147 351.999 c 4
 309.205 351.999 301.258 352.19 293.309 352.19 c 4
 234.707 352.19 175.978 349 118 349 c 5
 113 350 107 353 107 359 c 4
EndSplineSet
Fore
SplineSet
245.861 -11.4227 m 0
 341.99 -11.4227 415.062 57.4918 433 105 c 1
 433 112 l 2
 433 125 428 129 416 136 c 1
 414 136 l 2
 395.54 136 366.013 77.4992 272.558 77.4992 c 0
 159.679 77.4992 104 177.523 104 291 c 0
 103.08 301.214 104.033 310.739 111 314 c 1
 358 314 l 2
 382.549 314 421.879 316.879 426 321 c 0
 426 322 427 330 427 333 c 0
 427 336 426 347 426 349 c 0
 414.32 442.436 337.249 517.92 240.017 517.92 c 0
 89.4994 517.92 18.5701 390.349 18.5701 262.62 c 0
 18.5701 127.233 97.4168 -11.4227 245.861 -11.4227 c 0
107 359 m 0
 107 415.745 160.43 472.001 221.615 472.001 c 0
 298.633 471.854 325.314 396.924 325.314 365.441 c 0
 325.314 357.202 322.663 351.999 317.147 351.999 c 0
 309.205 351.999 301.258 352.19 293.309 352.19 c 0
 233.37 352.19 173.301 349 114 349 c 1
 110.818 350 107 353 107 359 c 0
EndSplineSet
EndChar

StartChar: eight
Encoding: 56 56 103
Width: 495
VWidth: -209
Flags: HW
LayerCount: 2
Fore
SplineSet
39 154 m 0
 39 134 38 107 49 89 c 0
 56 79 75 50 77 48 c 0
 116 -2 190 -24 251 -24 c 0
 344 -24 414 26 447 113 c 1
 446 113 446 116 447 116 c 1
 447 118 450 129 450 130 c 0
 450 131 450 151 450 159 c 0
 450 232 408 293 354 339 c 0
 350 342 317 367 313 370 c 0
 311 371 304 379 303 380 c 1
 303 380 303 381 303 382 c 0
 303 393 316 396 323 401 c 0
 346 416 368 440 385 459 c 0
 386 460 391 468 392 469 c 0
 393 470 401 478 402 479 c 0
 407 486 421 510 423 514 c 0
 424 518 434 551 436 562 c 1
 436 562 436 565 436 567 c 0
 436 572 l 2
 436 573 433 578 433 579 c 0
 428 599 426 618 416 637 c 0
 412 643 400 662 399 664 c 0
 393 670 359 699 351 705 c 0
 319 728 275 733 238 733 c 0
 234 733 214 733 210 733 c 1
 209 732 202 730 200 729 c 0
 199 729 194 726 193 726 c 0
 189 725 156 717 152 716 c 0
 145 713 119 699 114 695 c 0
 109 691 83 665 77 657 c 0
 50 626 42 590 42 550 c 0
 42 538 l 1
 44 529 53 493 56 486 c 0
 79 425 130 392 179 353 c 0
 183 350 183 350 183 346 c 0
 183 340 182 340 176 336 c 1
 171 331 126 299 121 294 c 0
 112 286 74 246 66 236 c 1
 62 229 46 196 42 188 c 1
 39 179 39 164 39 154 c 0
135 144 m 0
 135 175 143 201 152 229 c 0
 153 231 155 242 155 243 c 0
 160 253 170 257 173 267 c 1
 217 312 l 1
 217 312 221 312 223 312 c 0
 239 312 251 294 262 284 c 0
 293 255 323 229 347 192 c 0
 360 171 361 151 361 127 c 0
 361 80 338 35 289 24 c 1
 284 24 263 24 258 24 c 0
 242 24 226 22 210 27 c 0
 162 44 135 95 135 144 c 0
131 580 m 0
 131 590 131 607 135 616 c 0
 154 657 195 688 241 688 c 0
 285 688 310 666 330 630 c 0
 339 614 351 593 351 574 c 0
 351 529 338 504 316 469 c 0
 309 458 279 411 269 411 c 0
 253 411 242 429 231 438 c 0
 230 439 225 441 224 442 c 0
 206 455 187 474 173 490 c 0
 149 516 131 544 131 580 c 0
EndSplineSet
EndChar

StartChar: f
Encoding: 102 102 104
Width: 829
VWidth: 0
Flags: W
LayerCount: 2
Fore
SplineSet
39 202 m 0
 40 200 44 190 46 188 c 1
 49 188 61 188 63 188 c 0
 68 188 80 188 81 188 c 0
 85 189 118 192 122 192 c 0
 143 192 241 192 262 192 c 0
 265 192 277 194 279 195 c 0
 280 196 283 198 283 199 c 2
 283 233 l 1
 279 236 l 1
 264 239 244 242 231 253 c 1
 228 257 213 271 211 274 c 0
 210 275 208 280 207 281 c 0
 204 293 197 327 197 329 c 2
 197 644 l 1
 276 644 l 2
 292 644 290 670 290 680 c 0
 290 682 289 690 289 692 c 0
 288 694 282 699 279 699 c 2
 197 699 l 1
 196 705 194 734 194 740 c 2
 194 740 194 742 194 743 c 0
 194 744 194 746 194 747 c 0
 194 762 197 803 197 805 c 0
 201 846 218 928 272 928 c 0
 275 928 284 926 286 925 c 0
 319 907 345 853 384 853 c 0
 403 853 423 889 423 905 c 0
 423 913 424 917 420 925 c 0
 399 965 359 973 317 973 c 0
 294 973 277 974 255 966 c 0
 208 948 148 901 128 853 c 1
 115 818 115 787 108 750 c 0
 108 749 105 744 104 743 c 0
 103 733 105 718 98 709 c 0
 82 690 66 692 43 688 c 1
 35 684 36 671 36 664 c 0
 36 657 36 649 43 644 c 1
 50 644 81 644 87 644 c 0
 89 644 99 641 101 640 c 0
 102 640 104 638 104 637 c 0
 105 634 108 620 108 616 c 0
 108 591 108 474 108 449 c 0
 108 442 111 387 111 380 c 2
 111 380 111 379 111 378 c 2
 111 377 l 2
 111 368 108 300 108 291 c 0
 107 277 101 258 87 250 c 0
 84 248 53 235 50 233 c 0
 47 231 43 225 43 223 c 0
 42 218 39 204 39 202 c 0
EndSplineSet
EndChar

StartChar: five
Encoding: 53 53 105
Width: 486
VWidth: -209
Flags: W
HStem: -206 100<48.5421 141.95> 217 4<193.908 194.046> 223 109<184.322 235> 421 96<237.64 377.391> 425 103<194.625 337.406>
VStem: 348 75<12.937 120.803> 348 68<-19.6657 101.017>
LayerCount: 2
Fore
SplineSet
36 -165 m 0xec
 36 -171 l 1
 49 -196 86 -193 104 -206 c 1
 127 -203 148 -201 170 -199 c 0
 173 -198 187 -196 190 -195 c 0
 220 -188 255 -169 279 -151 c 0
 292 -141 338 -102 344 -96 c 0
 347 -93 369 -62 372 -58 c 0
 389 -35 407 4 416 31 c 0
 416 32 416 40 416 41 c 0xea
 419 62 423 81 423 102 c 0
 423 131 418 157 406 185 c 0
 405 188 390 209 389 212 c 0
 388 213 386 218 385 219 c 0
 380 226 351 257 344 264 c 0
 341 266 316 282 313 284 c 1
 313 284 310 287 310 288 c 2
 235 332 l 1
 232 332 223 335 221 336 c 0
 215 338 186 353 180 356 c 0
 180 357 179 362 179 363 c 0
 179 370 203 430 214 431 c 1
 222 430 261 425 269 425 c 1xec
 281 423 286 427 296 421 c 1xf4
 309 421 369 424 382 425 c 0xec
 391 425 398 425 402 431 c 0
 404 433 415 450 416 452 c 0
 417 453 426 461 426 462 c 0
 427 464 432 484 433 486 c 0
 440 503 447 512 447 530 c 0
 447 532 447 537 447 538 c 0
 445 541 433 553 430 555 c 0
 429 555 421 556 418 556 c 0
 388 556 397 532 378 524 c 0
 365 518 353 517 339 517 c 0xf2
 305 517 271 528 236 528 c 0
 222 528 205 529 197 514 c 2
 159 442 l 1
 159 438 l 1
 115 359 l 2
 114 358 112 351 111 349 c 0
 106 338 79 288 74 277 c 1
 84 267 l 1
 180 233 l 2
 181 232 188 227 190 226 c 0
 191 225 199 223 200 223 c 0
 228 209 250 201 272 181 c 1
 279 176 308 150 313 144 c 0
 314 143 319 136 320 133 c 0
 326 122 343 86 344 82 c 0
 348 71 348 51 348 39 c 0
 348 23 348 13 344 -4 c 0
 338 -31 306 -81 286 -96 c 0
 280 -100 261 -112 259 -113 c 0
 238 -120 215 -120 193 -120 c 0
 173 -120 162 -121 142 -117 c 0
 141 -116 136 -113 135 -113 c 0
 129 -112 102 -107 98 -106 c 0
 97 -106 89 -106 86 -106 c 0
 57 -106 36 -138 36 -165 c 0xec
194 221 m 0
 192 221 192 217 194 217 c 0
 195 217 195 221 194 221 c 0
EndSplineSet
EndChar

StartChar: four
Encoding: 52 52 106
Width: 536
VWidth: -209
Flags: W
HStem: -39 3<275.908 276.092> -17 79<91 115 283 283 492 501.903>
VStem: 293 96<-198.872 -188 -31 -21 353 372.99>
DStem2: 221 363 255 336 0.534612 0.845098<-298.57 44.9773>
LayerCount: 2
Fore
SplineSet
19 20 m 0
 19 13 18 -17 26 -17 c 2
 283 -17 l 2
 290 -17 293 -25 293 -31 c 2
 293 -192 l 2
 293 -195 297 -200 300 -202 c 1
 302 -202 311 -202 314 -202 c 0
 327 -202 l 2
 328 -202 333 -199 334 -199 c 0
 335 -199 340 -201 341 -202 c 1
 379 -202 l 2
 382 -202 388 -191 389 -188 c 0
 390 -172 392 -95 392 -79 c 0
 392 -70 392 -29 392 -21 c 1
 396 -17 l 1
 492 -17 l 2
 493 -17 500 -15 502 -14 c 0
 503 -13 505 -11 505 -10 c 2
 505 51 l 2
 505 56 500 62 495 62 c 2
 389 62 l 1
 389 253 l 1
 390 259 392 285 392 291 c 0
 392 300 389 368 389 377 c 0
 389 400 389 511 389 534 c 1
 382 541 l 1
 382 541 370 542 366 542 c 0
 360 542 342 541 341 541 c 0
 327 540 328 532 320 520 c 0
 310 505 299 489 290 473 c 0
 270 441 222 364 221 363 c 2
 218 359 l 1
 81 137 l 2
 80 136 78 134 77 133 c 0
 73 128 61 111 60 109 c 0
 58 106 42 75 40 72 c 0
 38 70 27 57 26 55 c 0
 19 41 19 33 19 20 c 0
276 -36 m 0
 274 -36 274 -39 276 -39 c 0
 278 -39 278 -36 276 -36 c 0
91 67 m 2
 91 68 l 1
 92 70 97 80 98 82 c 0
 148 168 201 252 255 336 c 0
 263 348 283 377 283 377 c 1
 290 373 l 1
 290 373 292 359 293 353 c 0
 293 352 293 349 293 348 c 0
 293 319 289 290 289 261 c 0
 289 242 293 225 293 207 c 2
 293 207 293 206 293 205 c 0
 293 201 290 165 290 161 c 0
 290 158 293 136 293 133 c 2
 293 133 293 127 293 125 c 0
 293 105 288 88 290 68 c 1
 283 62 l 1
 232 63 182 58 131 58 c 0
 115 58 l 2
 113 58 101 61 98 62 c 0
 93 63 91 63 91 67 c 2
EndSplineSet
EndChar

StartChar: g
Encoding: 103 103 107
Width: 521
VWidth: 0
Flags: W
LayerCount: 2
Fore
SplineSet
157 76 m 0
 156 76 156 72 157 72 c 0
 159 72 159 76 157 76 c 0
294 94 m 0
 292 94 292 91 294 91 c 0
 296 91 296 94 294 94 c 0
64 181 m 0
 64 133 139 109 176 100 c 0
 197 95 211 96 233 96 c 0
 285 96 309 99 357 118 c 0
 359 119 377 125 379 126 c 0
 427 151 465 188 465 244 c 0
 465 290 449 297 416 322 c 0
 415 323 410 328 409 329 c 0
 401 331 365 339 357 340 c 1
 357 340 354 340 353 340 c 0
 351 340 330 344 327 344 c 0
 321 344 271 344 265 344 c 0
 254 344 202 347 191 348 c 1
 183 352 165 365 165 375 c 0
 165 394 191 414 209 414 c 0
 223 414 233 410 250 410 c 0
 303 410 374 449 398 499 c 0
 407 519 409 544 409 566 c 0
 409 584 404 601 398 617 c 1
 402 624 410 625 417 625 c 0
 438 625 458 621 478 621 c 0
 483 621 l 1
 484 622 486 627 486 628 c 2
 486 677 l 1
 486 677 482 688 479 688 c 2
 398 688 l 1
 257 713 l 1
 257 713 256 713 255 713 c 2
 254 713 l 1
 240 712 204 706 202 706 c 0
 178 701 161 689 143 673 c 0
 137 668 122 653 120 651 c 0
 115 642 94 601 91 591 c 1
 91 587 90 566 90 562 c 0
 90 543 89 534 95 518 c 1
 98 507 109 481 109 481 c 1
 157 433 l 1
 158 431 l 1
 158 420 145 416 139 410 c 0
 132 404 111 383 109 381 c 0
 106 376 93 353 91 348 c 0
 91 347 90 341 90 339 c 0
 90 325 93 315 98 299 c 1
 108 297 108 291 117 285 c 0
 128 277 132 281 139 270 c 1
 114 239 64 227 64 181 c 0
135 194 m 0
 135 220 162 244 180 259 c 0
 181 260 186 262 187 262 c 2
 327 262 l 2
 330 262 345 260 350 259 c 0
 354 258 369 253 372 251 c 0
 374 250 382 245 383 244 c 0
 386 240 394 224 394 222 c 0
 394 217 389 193 387 189 c 0
 386 187 370 172 364 166 c 1
 364 166 359 163 357 163 c 0
 324 150 291 147 255 147 c 0
 246 147 222 148 220 148 c 0
 217 148 176 159 161 163 c 0
 148 166 135 180 135 194 c 0
124 272 m 0
 122 272 122 268 124 268 c 0
 126 268 126 272 124 272 c 0
28 285 m 0
 26 286 26 276 28 277 c 0
 30 278 30 284 28 285 c 0
176 547 m 0
 176 555 178 601 180 614 c 0
 183 650 222 670 254 670 c 0
 273 670 285 662 298 647 c 0
 325 616 324 578 324 538 c 0
 324 530 324 511 324 510 c 0
 323 505 315 482 313 477 c 0
 312 475 299 462 294 458 c 0
 284 450 265 451 253 451 c 0
 248 451 236 451 235 451 c 0
 234 451 229 454 228 455 c 0
 202 478 176 510 176 547 c 0
446 774 m 0
 444 774 444 771 446 771 c 0
 448 771 448 774 446 774 c 0
EndSplineSet
EndChar

StartChar: h
Encoding: 104 104 108
Width: 591
VWidth: 0
Flags: W
LayerCount: 2
Fore
SplineSet
30 212 m 0
 30 202 l 1
 37 195 l 1
 274 195 l 1
 274 195 277 200 277 202 c 0
 277 203 277 212 277 216 c 0
 277 218 277 227 277 229 c 1
 270 239 255 237 246 240 c 0
 216 249 199 265 198 298 c 0
 198 315 195 452 195 469 c 0
 195 472 195 512 195 526 c 0
 195 534 195 574 195 582 c 1
 199 603 227 613 243 620 c 0
 252 623 281 633 284 634 c 1
 284 634 299 634 305 634 c 0
 323 634 347 636 363 623 c 0
 374 615 383 605 390 592 c 0
 392 588 400 575 400 568 c 0
 401 560 404 529 404 524 c 2
 404 284 l 2
 404 251 362 235 335 236 c 1
 332 233 l 1
 332 199 l 2
 332 198 339 195 342 195 c 2
 342 195 355 195 360 195 c 0
 365 195 381 195 383 195 c 0
 411 196 540 198 568 199 c 0
 572 200 572 202 572 205 c 0
 572 219 573 236 558 240 c 0
 556 240 539 243 537 243 c 0
 506 252 498 287 496 315 c 1
 497 336 497 434 496 455 c 0
 496 467 493 557 493 568 c 0
 493 571 493 593 493 596 c 1
 492 598 488 615 486 620 c 0
 484 626 476 633 479 640 c 1
 447 688 415 710 356 710 c 0
 295 710 261 680 212 647 c 0
 211 647 202 640 200 640 c 0
 198 640 196 641 195 644 c 0
 194 647 191 659 191 661 c 0
 191 666 194 687 195 692 c 1
 195 938 l 1
 196 942 198 959 198 962 c 0
 198 974 185 977 177 977 c 0
 175 977 168 976 167 976 c 2
 58 932 l 1
 46 930 27 927 27 911 c 0
 27 905 28 897 34 894 c 2
 92 860 l 2
 96 857 101 851 102 846 c 1
 102 833 102 770 102 757 c 1
 103 747 106 667 106 658 c 0
 106 652 106 544 106 503 c 0
 106 480 106 372 106 349 c 0
 106 341 104 300 102 291 c 0
 102 287 97 273 95 271 c 1
 94 268 77 252 72 247 c 0
 71 246 66 244 65 243 c 0
 62 242 43 237 41 236 c 0
 29 232 30 223 30 212 c 0
181 820 m 0
 183 820 183 817 181 817 c 0
 179 817 179 820 181 820 c 0
EndSplineSet
EndChar

StartChar: i
Encoding: 105 105 109
Width: 317
VWidth: 0
Flags: W
HStem: 0 41<32.7566 100.327 228.598 297.075> 665 123<110.149 203.851>
VStem: 96 122<678.946 775.544> 125 88<63.4574 141 391 400.949>
LayerCount: 2
Back
SplineSet
157 788 m 4xe0
 196 788 218 762 218 729 c 4
 218 686 187 665 157 665 c 4
 127 665 96 686 96 729 c 4
 96 762 118 788 157 788 c 4xe0
40 0 m 6
 294 0 l 6
 297.541 0 298.93 3.65936 298.93 8.70752 c 4
 298.93 19.7149 292.323 37.3251 287 38 c 4
 244.513 44.9577 213.743 46.2809 213 126 c 6
 211 378 l 6
 211 419 215 460.667 215 502 c 4
 215 512.528 211.017 517.121 202.25 517.121 c 4
 196.199 517.121 187.871 514.933 177 511 c 6
 54 466 l 6
 43 462 39.9553 446.746 44 444 c 4
 54 437.211 93.2444 414.478 119 401 c 4
 121 400 125 393 125 391 c 6
 125 141 l 6xd0
 125 64.4979 102.017 49.2689 40 41 c 4
 35.8041 39.6014 32.5711 27.1416 32.5711 16.3208 c 4
 32.5711 7.63204 34.6557 3.33786e-06 40 0 c 6
EndSplineSet
Fore
SplineSet
157 788 m 0xe0
 196 788 218 762 218 729 c 0
 218 686 187 665 157 665 c 0
 127 665 96 686 96 729 c 0
 96 762 118 788 157 788 c 0xe0
40 0 m 2
 294 0 l 2
 297.541 0 298.93 3.65936 298.93 8.70752 c 0
 298.93 19.7149 292.323 37.3251 287 38 c 0
 244.513 44.9577 213.743 46.2809 213 126 c 2
 211 378 l 2
 211 419 215 460.667 215 502 c 0
 215 512.528 211.017 517.121 202.25 517.121 c 0
 198.596 517.121 192.834 515.668 187 513 c 0
 144.829 496.289 118.638 487.48 54 466 c 0
 42.8925 462.309 39.9553 446.746 44 444 c 0
 54 437.211 93.2444 414.478 119 401 c 0
 121 400 125 393 125 391 c 2
 125 141 l 2xd0
 125 64.4979 102.017 49.2689 40 41 c 0
 35.8041 39.6014 32.5711 27.1416 32.5711 16.3208 c 0
 32.5711 7.63204 34.6557 3.33786e-06 40 0 c 2
EndSplineSet
EndChar

StartChar: j
Encoding: 106 106 110
Width: 805
VWidth: 0
Flags: W
LayerCount: 2
Fore
SplineSet
36 381 m 0
 36 379 36 374 36 373 c 0
 36 371 39 349 39 346 c 0
 48 240 99 141 183 75 c 0
 188 71 227 47 238 41 c 0
 240 40 267 28 276 24 c 0
 277 23 284 21 286 21 c 0
 302 17 343 7 344 7 c 0
 346 7 375 6 386 6 c 0
 481 6 535 25 615 75 c 0
 620 79 637 91 639 92 c 0
 697 145 733 205 752 281 c 0
 752 282 752 287 752 288 c 0
 756 305 765 333 765 353 c 1
 766 354 766 386 766 397 c 0
 766 453 759 494 741 548 c 0
 741 550 732 570 731 572 c 1
 731 575 l 1
 704 634 l 1
 702 635 695 642 694 644 c 0
 691 647 669 678 666 682 c 0
 663 685 644 704 639 709 c 0
 638 710 629 715 628 716 c 0
 555 773 496 795 398 795 c 0
 286 795 217 750 139 671 c 0
 137 670 125 655 122 651 c 0
 120 649 115 642 115 640 c 1
 114 639 112 631 111 630 c 0
 110 628 99 615 98 613 c 0
 96 610 86 593 84 589 c 0
 83 588 81 580 81 579 c 0
 67 550 54 524 46 493 c 0
 46 492 46 481 46 479 c 0
 45 468 41 461 39 449 c 0
 39 443 37 403 36 390 c 1
 36 390 36 383 36 381 c 0
159 418 m 0
 159 451 158 477 163 510 c 0
 165 525 185 592 190 606 c 0
 192 611 219 659 228 675 c 0
 239 694 260 711 279 723 c 0
 288 728 319 745 324 747 c 0
 342 754 358 754 376 754 c 0
 410 754 441 749 471 733 c 0
 475 731 506 711 515 705 c 0
 519 703 528 696 529 695 c 2
 577 637 l 1
 585 617 601 603 608 582 c 0
 634 508 646 432 646 353 c 0
 646 325 640 298 635 271 c 0
 635 270 636 261 635 260 c 1
 635 258 626 236 625 233 c 0
 624 229 616 196 615 192 c 0
 613 187 591 146 584 134 c 0
 580 126 567 111 560 106 c 0
 550 98 511 72 505 68 c 0
 475 51 443 50 409 45 c 1
 408 45 l 2
 406 45 l 2
 402 45 372 48 368 48 c 2
 365 48 l 2
 363 48 353 54 351 55 c 0
 350 55 339 54 337 55 c 2
 334 58 l 1
 314 72 290 85 272 103 c 0
 190 185 159 304 159 418 c 0
269 658 m 0
 267 658 267 654 269 654 c 0
 271 655 271 657 269 658 c 0
EndSplineSet
EndChar

StartChar: k
Encoding: 107 107 111
Width: 791
VWidth: 0
Flags: W
LayerCount: 2
Fore
SplineSet
237 17 m 1
 341 18 443 14 548 14 c 0
 555 14 l 2
 557 14 562 19 562 21 c 2
 562 48 l 2
 562 54 548 58 545 58 c 1
 543 59 529 61 528 62 c 0
 519 64 495 71 493 72 c 0
 492 73 478 87 473 92 c 0
 470 96 463 105 463 106 c 2
 456 147 l 1
 456 171 456 284 456 308 c 0
 456 315 453 373 452 380 c 0
 452 381 452 388 452 390 c 0
 452 392 452 400 452 401 c 0
 453 412 456 503 456 514 c 0
 456 547 456 700 456 733 c 1
 463 740 l 1
 465 740 492 741 502 741 c 0
 516 741 558 740 562 740 c 0
 565 740 592 735 600 733 c 0
 610 730 633 722 641 716 c 0
 666 696 686 661 702 637 c 0
 712 622 715 606 737 606 c 0
 744 606 754 609 757 616 c 0
 757 618 757 627 757 628 c 0
 757 647 755 664 750 682 c 0
 743 709 749 742 740 771 c 0
 739 775 728 777 726 777 c 0
 700 777 578 777 552 777 c 1
 546 778 520 780 514 781 c 1
 59 781 l 2
 52 781 48 773 48 767 c 0
 47 754 42 694 41 682 c 0
 40 667 38 655 38 640 c 0
 38 637 38 623 38 620 c 0
 38 608 56 609 63 609 c 0
 86 609 93 639 103 654 c 0
 131 696 162 735 216 736 c 0
 221 736 270 737 287 737 c 0
 300 737 332 736 333 736 c 2
 336 723 l 1
 336 712 336 664 336 654 c 0
 336 638 339 506 339 490 c 0
 340 455 340 292 339 257 c 1
 341 250 343 219 343 212 c 0
 343 205 337 145 336 137 c 1
 336 134 l 1
 334 124 329 100 329 99 c 0
 316 65 272 55 240 58 c 1
 231 52 233 41 233 32 c 0
 233 21 l 1
 237 17 l 1
267 646 m 0
 266 646 266 642 267 642 c 0
 269 642 269 646 267 646 c 0
EndSplineSet
EndChar

StartChar: l
Encoding: 108 108 112
Width: 317
VWidth: 0
Flags: W
LayerCount: 2
Fore
SplineSet
29 212 m 0
 29 199 49 199 56 199 c 2
 282 199 l 2
 288 199 289 212 289 216 c 0
 289 222 288 227 286 233 c 0
 284 239 271 239 269 240 c 0
 262 242 234 254 228 257 c 0
 226 257 221 262 221 264 c 1
 220 265 221 273 221 274 c 0
 220 275 214 277 214 277 c 2
 214 278 211 288 211 291 c 1
 210 293 208 310 207 315 c 1
 207 315 207 316 207 317 c 2
 207 318 l 2
 207 330 211 427 211 438 c 0
 211 443 207 478 207 483 c 0
 207 485 207 527 207 543 c 0
 207 559 207 606 207 610 c 0
 207 625 211 752 211 767 c 0
 211 771 207 804 207 808 c 0
 207 834 207 954 207 979 c 1
 203 983 200 983 195 983 c 0
 179 983 167 974 152 969 c 0
 136 964 59 940 43 935 c 0
 41 934 34 926 32 925 c 1
 32 925 32 924 32 923 c 0
 32 914 39 906 46 901 c 1
 55 897 93 880 101 877 c 1
 106 874 114 870 115 863 c 0
 119 759 118 654 118 550 c 0
 118 522 118 394 118 366 c 1
 117 360 115 329 115 322 c 0
 114 309 117 292 108 281 c 0
 102 274 85 255 84 253 c 0
 83 253 69 248 63 247 c 0
 61 246 49 243 46 243 c 0
 45 243 37 244 36 243 c 0
 35 243 33 238 32 236 c 0
 31 231 29 220 29 212 c 0
EndSplineSet
EndChar

